<svg xmlns="http://www.w3.org/2000/svg" xmlns:xlink="http://www.w3.org/1999/xlink" width="657" zoomAndPan="magnify" viewBox="0 0 492.75 304.499991" height="406" preserveAspectRatio="xMidYMid meet" version="1.0"><defs><g/><clipPath id="8aea86b3ab"><path d="M 188.519531 0 L 491.773438 0 L 491.773438 303.253906 L 188.519531 303.253906 Z M 188.519531 0 " clip-rule="nonzero"/></clipPath><clipPath id="9c9c326296"><path d="M 340.152344 0 C 256.40625 0 188.519531 67.886719 188.519531 151.632812 C 188.519531 235.375 256.40625 303.265625 340.152344 303.265625 C 423.894531 303.265625 491.785156 235.375 491.785156 151.632812 C 491.785156 67.886719 423.894531 0 340.152344 0 Z M 340.152344 0 " clip-rule="nonzero"/></clipPath><clipPath id="6db18ffa98"><path d="M 0.277344 0 L 303.53125 0 L 303.53125 303.253906 L 0.277344 303.253906 Z M 0.277344 0 " clip-rule="nonzero"/></clipPath><clipPath id="18256d8e82"><path d="M 151.910156 0 C 68.167969 0 0.277344 67.886719 0.277344 151.632812 C 0.277344 235.375 68.167969 303.265625 151.910156 303.265625 C 235.65625 303.265625 303.542969 235.375 303.542969 151.632812 C 303.542969 67.886719 235.65625 0 151.910156 0 Z M 151.910156 0 " clip-rule="nonzero"/></clipPath></defs><g clip-path="url(#8aea86b3ab)"><g clip-path="url(#9c9c326296)"><path stroke-linecap="butt" transform="matrix(0.74877, 0, 0, 0.74877, 188.519951, -0.000000000000063844)" fill="none" stroke-linejoin="miter" d="M 202.50852 0.000000000000085265 C 90.663701 0.000000000000085265 -0.000560235 90.664261 -0.000560235 202.50908 C -0.000560235 314.348681 90.663701 405.01816 202.50852 405.01816 C 314.348121 405.01816 405.017599 314.348681 405.017599 202.50908 C 405.017599 90.664261 314.348121 0.000000000000085265 202.50852 0.000000000000085265 Z M 202.50852 0.000000000000085265 " stroke="#d22449" stroke-width="14" stroke-opacity="1" stroke-miterlimit="4"/></g></g><g clip-path="url(#6db18ffa98)"><g clip-path="url(#18256d8e82)"><path stroke-linecap="butt" transform="matrix(0.74877, 0, 0, 0.74877, 0.279106, -0.000000000000063844)" fill="none" stroke-linejoin="miter" d="M 202.506727 0.000000000000085265 C 90.667125 0.000000000000085265 -0.00235304 90.664261 -0.00235304 202.50908 C -0.00235304 314.348681 90.667125 405.01816 202.506727 405.01816 C 314.351545 405.01816 405.015807 314.348681 405.015807 202.50908 C 405.015807 90.664261 314.351545 0.000000000000085265 202.506727 0.000000000000085265 Z M 202.506727 0.000000000000085265 " stroke="#d12448" stroke-width="14" stroke-opacity="1" stroke-miterlimit="4"/></g></g><g fill="#d22449" fill-opacity="1"><g transform="translate(57.293796, 168.835459)"><g><path d="M 31.0625 -7.203125 C 31.0625 -6.929688 31.023438 -6.660156 30.953125 -6.390625 C 30.890625 -6.117188 30.742188 -5.832031 30.515625 -5.53125 C 29.035156 -3.59375 27.132812 -2.101562 24.8125 -1.0625 C 22.5 -0.0195312 20.117188 0.5 17.671875 0.5 C 15.523438 0.5 13.476562 0.0820312 11.53125 -0.75 C 9.582031 -1.59375 7.867188 -2.773438 6.390625 -4.296875 C 4.910156 -5.828125 3.757812 -7.609375 2.9375 -9.640625 C 2.125 -11.671875 1.734375 -13.878906 1.765625 -16.265625 C 1.765625 -18.984375 2.285156 -21.363281 3.328125 -23.40625 C 4.367188 -25.457031 5.707031 -27.15625 7.34375 -28.5 C 8.988281 -29.84375 10.734375 -30.847656 12.578125 -31.515625 C 14.429688 -32.179688 16.179688 -32.515625 17.828125 -32.515625 C 20.003906 -32.515625 22.175781 -32.128906 24.34375 -31.359375 C 26.507812 -30.585938 28.28125 -29.398438 29.65625 -27.796875 C 30.019531 -27.359375 30.164062 -26.898438 30.09375 -26.421875 C 30.03125 -25.953125 29.832031 -25.554688 29.5 -25.234375 C 29.164062 -24.921875 28.769531 -24.765625 28.3125 -24.765625 C 27.863281 -24.765625 27.4375 -24.984375 27.03125 -25.421875 C 25.957031 -26.703125 24.648438 -27.648438 23.109375 -28.265625 C 21.566406 -28.890625 20.003906 -29.203125 18.421875 -29.203125 C 17.078125 -29.203125 15.648438 -28.921875 14.140625 -28.359375 C 12.628906 -27.804688 11.210938 -26.976562 9.890625 -25.875 C 8.566406 -24.769531 7.484375 -23.398438 6.640625 -21.765625 C 5.804688 -20.140625 5.390625 -18.253906 5.390625 -16.109375 C 5.421875 -14.328125 5.769531 -12.644531 6.4375 -11.0625 C 7.113281 -9.488281 8.019531 -8.097656 9.15625 -6.890625 C 10.300781 -5.679688 11.609375 -4.722656 13.078125 -4.015625 C 14.554688 -3.316406 16.101562 -2.953125 17.71875 -2.921875 C 19.601562 -2.890625 21.429688 -3.265625 23.203125 -4.046875 C 24.984375 -4.835938 26.425781 -5.972656 27.53125 -7.453125 L 27.53125 -14.140625 L 18.46875 -14.140625 C 17.863281 -14.140625 17.425781 -14.304688 17.15625 -14.640625 C 16.894531 -14.984375 16.769531 -15.375 16.78125 -15.8125 C 16.800781 -16.25 16.953125 -16.632812 17.234375 -16.96875 C 17.523438 -17.300781 17.9375 -17.46875 18.46875 -17.46875 L 29.15625 -17.46875 C 29.882812 -17.46875 30.382812 -17.300781 30.65625 -16.96875 C 30.925781 -16.632812 31.0625 -16.179688 31.0625 -15.609375 Z M 31.0625 -7.203125 "/></g></g></g><g fill="#d22449" fill-opacity="1"><g transform="translate(92.782611, 168.835459)"><g><path d="M 16.96875 -32.515625 C 17.707031 -32.515625 18.242188 -32.195312 18.578125 -31.5625 L 33.421875 -2.421875 C 33.796875 -1.710938 33.765625 -1.128906 33.328125 -0.671875 C 32.890625 -0.222656 32.351562 0 31.71875 0 C 31.382812 0 31.066406 -0.0703125 30.765625 -0.21875 C 30.460938 -0.375 30.226562 -0.617188 30.0625 -0.953125 L 26.4375 -8.109375 L 7.5 -8.109375 L 3.78125 -0.90625 C 3.4375 -0.300781 2.929688 0 2.265625 0 C 1.691406 0 1.171875 -0.234375 0.703125 -0.703125 C 0.234375 -1.171875 0.148438 -1.722656 0.453125 -2.359375 L 15.296875 -31.5625 C 15.472656 -31.894531 15.710938 -32.132812 16.015625 -32.28125 C 16.316406 -32.4375 16.632812 -32.515625 16.96875 -32.515625 Z M 16.96875 -27.140625 L 9.015625 -11.28125 L 24.875 -11.28125 Z M 16.96875 -27.140625 "/></g></g></g><g fill="#d22449" fill-opacity="1"><g transform="translate(127.868715, 168.835459)"><g><path d="M 27.28125 -32.015625 C 27.882812 -32.015625 28.347656 -31.835938 28.671875 -31.484375 C 28.992188 -31.140625 29.15625 -30.738281 29.15625 -30.28125 C 29.15625 -29.832031 28.992188 -29.429688 28.671875 -29.078125 C 28.347656 -28.722656 27.882812 -28.546875 27.28125 -28.546875 L 16.0625 -28.546875 L 16.109375 -1.859375 C 16.109375 -1.222656 15.894531 -0.753906 15.46875 -0.453125 C 15.050781 -0.148438 14.628906 0 14.203125 0 C 13.765625 0 13.351562 -0.148438 12.96875 -0.453125 C 12.582031 -0.753906 12.390625 -1.222656 12.390625 -1.859375 L 12.390625 -28.546875 L 1.203125 -28.546875 C 0.597656 -28.546875 0.15625 -28.722656 -0.125 -29.078125 C -0.40625 -29.429688 -0.546875 -29.832031 -0.546875 -30.28125 C -0.546875 -30.738281 -0.40625 -31.140625 -0.125 -31.484375 C 0.15625 -31.835938 0.597656 -32.015625 1.203125 -32.015625 Z M 27.28125 -32.015625 "/></g></g></g><g fill="#d22449" fill-opacity="1"><g transform="translate(340.154665, 168.835459)"><g><path d="M 17.671875 -32.015625 C 18.847656 -32.015625 20.125 -31.890625 21.5 -31.640625 C 22.875 -31.390625 24.171875 -30.953125 25.390625 -30.328125 C 26.617188 -29.710938 27.628906 -28.832031 28.421875 -27.6875 C 29.210938 -26.550781 29.609375 -25.09375 29.609375 -23.3125 C 29.609375 -22 29.285156 -20.804688 28.640625 -19.734375 C 28.003906 -18.660156 27.03125 -17.851562 25.71875 -17.3125 C 27.570312 -16.75 29.066406 -15.820312 30.203125 -14.53125 C 31.347656 -13.238281 31.921875 -11.566406 31.921875 -9.515625 C 31.921875 -7.640625 31.539062 -6.085938 30.78125 -4.859375 C 30.03125 -3.628906 29.023438 -2.660156 27.765625 -1.953125 C 26.503906 -1.253906 25.09375 -0.753906 23.53125 -0.453125 C 21.96875 -0.148438 20.398438 0 18.828125 0 L 5.734375 0 C 5.234375 0 4.796875 -0.175781 4.421875 -0.53125 C 4.054688 -0.882812 3.875 -1.3125 3.875 -1.8125 L 3.875 -30.203125 C 3.875 -30.710938 4.054688 -31.140625 4.421875 -31.484375 C 4.796875 -31.835938 5.234375 -32.015625 5.734375 -32.015625 Z M 17.671875 -28.75 L 7.546875 -28.75 L 7.546875 -18.46875 L 17.828125 -18.46875 C 19.265625 -18.46875 20.59375 -18.617188 21.8125 -18.921875 C 23.039062 -19.222656 24.03125 -19.726562 24.78125 -20.4375 C 25.539062 -21.144531 25.921875 -22.101562 25.921875 -23.3125 C 25.921875 -24.382812 25.644531 -25.269531 25.09375 -25.96875 C 24.539062 -26.675781 23.835938 -27.234375 22.984375 -27.640625 C 22.128906 -28.046875 21.222656 -28.332031 20.265625 -28.5 C 19.304688 -28.664062 18.441406 -28.75 17.671875 -28.75 Z M 20.34375 -15.203125 L 7.546875 -15.203125 L 7.546875 -3.265625 L 18.828125 -3.265625 C 20.304688 -3.265625 21.757812 -3.429688 23.1875 -3.765625 C 24.613281 -4.109375 25.796875 -4.734375 26.734375 -5.640625 C 27.671875 -6.546875 28.140625 -7.835938 28.140625 -9.515625 C 28.140625 -11.492188 27.382812 -12.9375 25.875 -13.84375 C 24.363281 -14.75 22.519531 -15.203125 20.34375 -15.203125 Z M 20.34375 -15.203125 "/></g></g></g><g fill="#d22449" fill-opacity="1"><g transform="translate(374.737377, 168.835459)"><g><path d="M 4.28125 0 C 3.644531 0 3.097656 -0.21875 2.640625 -0.65625 C 2.191406 -1.09375 1.96875 -1.597656 1.96875 -2.171875 L 1.96875 -29.90625 C 1.96875 -30.476562 2.191406 -30.972656 2.640625 -31.390625 C 3.097656 -31.804688 3.644531 -32.015625 4.28125 -32.015625 L 15.25 -32.015625 C 17.769531 -32.015625 19.960938 -31.5625 21.828125 -30.65625 C 23.691406 -29.75 25.25 -28.53125 26.5 -27 C 27.757812 -25.476562 28.695312 -23.769531 29.3125 -21.875 C 29.9375 -19.976562 30.25 -18.023438 30.25 -16.015625 C 30.25 -13.992188 29.9375 -12.035156 29.3125 -10.140625 C 28.695312 -8.242188 27.757812 -6.53125 26.5 -5 C 25.25 -3.476562 23.691406 -2.265625 21.828125 -1.359375 C 19.960938 -0.453125 17.769531 0 15.25 0 Z M 5.59375 -3.265625 L 15.25 -3.265625 C 17.132812 -3.265625 18.789062 -3.625 20.21875 -4.34375 C 21.644531 -5.070312 22.828125 -6.046875 23.765625 -7.265625 C 24.703125 -8.492188 25.40625 -9.863281 25.875 -11.375 C 26.34375 -12.882812 26.578125 -14.429688 26.578125 -16.015625 C 26.578125 -17.585938 26.34375 -19.132812 25.875 -20.65625 C 25.40625 -22.1875 24.703125 -23.5625 23.765625 -24.78125 C 22.828125 -26.007812 21.644531 -26.984375 20.21875 -27.703125 C 18.789062 -28.429688 17.132812 -28.796875 15.25 -28.796875 L 5.59375 -28.796875 Z M 5.59375 -3.265625 "/></g></g></g><g fill="#d22449" fill-opacity="1"><g transform="translate(407.809935, 168.835459)"><g><path d="M 4.28125 0 C 3.644531 0 3.097656 -0.21875 2.640625 -0.65625 C 2.191406 -1.09375 1.96875 -1.597656 1.96875 -2.171875 L 1.96875 -29.90625 C 1.96875 -30.476562 2.191406 -30.972656 2.640625 -31.390625 C 3.097656 -31.804688 3.644531 -32.015625 4.28125 -32.015625 L 15.25 -32.015625 C 17.769531 -32.015625 19.960938 -31.5625 21.828125 -30.65625 C 23.691406 -29.75 25.25 -28.53125 26.5 -27 C 27.757812 -25.476562 28.695312 -23.769531 29.3125 -21.875 C 29.9375 -19.976562 30.25 -18.023438 30.25 -16.015625 C 30.25 -13.992188 29.9375 -12.035156 29.3125 -10.140625 C 28.695312 -8.242188 27.757812 -6.53125 26.5 -5 C 25.25 -3.476562 23.691406 -2.265625 21.828125 -1.359375 C 19.960938 -0.453125 17.769531 0 15.25 0 Z M 5.59375 -3.265625 L 15.25 -3.265625 C 17.132812 -3.265625 18.789062 -3.625 20.21875 -4.34375 C 21.644531 -5.070312 22.828125 -6.046875 23.765625 -7.265625 C 24.703125 -8.492188 25.40625 -9.863281 25.875 -11.375 C 26.34375 -12.882812 26.578125 -14.429688 26.578125 -16.015625 C 26.578125 -17.585938 26.34375 -19.132812 25.875 -20.65625 C 25.40625 -22.1875 24.703125 -23.5625 23.765625 -24.78125 C 22.828125 -26.007812 21.644531 -26.984375 20.21875 -27.703125 C 18.789062 -28.429688 17.132812 -28.796875 15.25 -28.796875 L 5.59375 -28.796875 Z M 5.59375 -3.265625 "/></g></g></g><g fill="#d22449" fill-opacity="1"><g transform="translate(201.759474, 159.930511)"><g><path d="M 8.5 -16.296875 C 8.863281 -16.296875 9.132812 -16.132812 9.3125 -15.8125 L 16.75 -1.203125 C 16.925781 -0.859375 16.90625 -0.570312 16.6875 -0.34375 C 16.46875 -0.113281 16.203125 0 15.890625 0 C 15.722656 0 15.5625 -0.0351562 15.40625 -0.109375 C 15.257812 -0.191406 15.144531 -0.316406 15.0625 -0.484375 L 13.234375 -4.0625 L 3.75 -4.0625 L 1.890625 -0.453125 C 1.722656 -0.148438 1.472656 0 1.140625 0 C 0.847656 0 0.582031 -0.113281 0.34375 -0.34375 C 0.113281 -0.582031 0.078125 -0.863281 0.234375 -1.1875 L 7.671875 -15.8125 C 7.753906 -15.976562 7.867188 -16.097656 8.015625 -16.171875 C 8.171875 -16.253906 8.332031 -16.296875 8.5 -16.296875 Z M 8.5 -13.59375 L 4.515625 -5.65625 L 12.453125 -5.65625 Z M 8.5 -13.59375 "/></g></g></g><g fill="#d22449" fill-opacity="1"><g transform="translate(219.330884, 159.930511)"><g><path d="M 15.5625 -3.609375 C 15.5625 -3.472656 15.539062 -3.335938 15.5 -3.203125 C 15.46875 -3.066406 15.394531 -2.925781 15.28125 -2.78125 C 14.539062 -1.800781 13.585938 -1.050781 12.421875 -0.53125 C 11.265625 -0.0078125 10.078125 0.25 8.859375 0.25 C 7.773438 0.25 6.742188 0.0390625 5.765625 -0.375 C 4.796875 -0.800781 3.941406 -1.394531 3.203125 -2.15625 C 2.460938 -2.914062 1.882812 -3.804688 1.46875 -4.828125 C 1.0625 -5.847656 0.863281 -6.953125 0.875 -8.140625 C 0.875 -9.503906 1.132812 -10.695312 1.65625 -11.71875 C 2.1875 -12.75 2.863281 -13.597656 3.6875 -14.265625 C 4.507812 -14.941406 5.378906 -15.445312 6.296875 -15.78125 C 7.222656 -16.125 8.097656 -16.296875 8.921875 -16.296875 C 10.015625 -16.296875 11.101562 -16.097656 12.1875 -15.703125 C 13.269531 -15.316406 14.160156 -14.722656 14.859375 -13.921875 C 15.035156 -13.703125 15.109375 -13.472656 15.078125 -13.234375 C 15.046875 -13.003906 14.945312 -12.804688 14.78125 -12.640625 C 14.613281 -12.484375 14.414062 -12.40625 14.1875 -12.40625 C 13.957031 -12.40625 13.742188 -12.515625 13.546875 -12.734375 C 13.003906 -13.367188 12.347656 -13.84375 11.578125 -14.15625 C 10.804688 -14.46875 10.023438 -14.625 9.234375 -14.625 C 8.554688 -14.625 7.835938 -14.484375 7.078125 -14.203125 C 6.328125 -13.929688 5.617188 -13.515625 4.953125 -12.953125 C 4.285156 -12.398438 3.742188 -11.71875 3.328125 -10.90625 C 2.910156 -10.09375 2.703125 -9.144531 2.703125 -8.0625 C 2.710938 -7.175781 2.882812 -6.335938 3.21875 -5.546875 C 3.5625 -4.753906 4.019531 -4.054688 4.59375 -3.453125 C 5.164062 -2.847656 5.820312 -2.367188 6.5625 -2.015625 C 7.300781 -1.660156 8.070312 -1.476562 8.875 -1.46875 C 9.820312 -1.445312 10.738281 -1.632812 11.625 -2.03125 C 12.519531 -2.425781 13.242188 -2.992188 13.796875 -3.734375 L 13.796875 -7.09375 L 9.25 -7.09375 C 8.945312 -7.09375 8.726562 -7.175781 8.59375 -7.34375 C 8.457031 -7.507812 8.394531 -7.703125 8.40625 -7.921875 C 8.414062 -8.140625 8.492188 -8.332031 8.640625 -8.5 C 8.785156 -8.664062 8.988281 -8.75 9.25 -8.75 L 14.609375 -8.75 C 14.972656 -8.75 15.222656 -8.664062 15.359375 -8.5 C 15.492188 -8.332031 15.5625 -8.101562 15.5625 -7.8125 Z M 15.5625 -3.609375 "/></g></g></g><g fill="#d22449" fill-opacity="1"><g transform="translate(237.103973, 159.930511)"><g><path d="M 8.859375 -16.046875 C 9.441406 -16.046875 10.078125 -15.976562 10.765625 -15.84375 C 11.453125 -15.71875 12.101562 -15.5 12.71875 -15.1875 C 13.332031 -14.882812 13.835938 -14.445312 14.234375 -13.875 C 14.628906 -13.300781 14.828125 -12.566406 14.828125 -11.671875 C 14.828125 -11.015625 14.664062 -10.414062 14.34375 -9.875 C 14.03125 -9.34375 13.546875 -8.941406 12.890625 -8.671875 C 13.816406 -8.390625 14.5625 -7.921875 15.125 -7.265625 C 15.695312 -6.617188 15.984375 -5.785156 15.984375 -4.765625 C 15.984375 -3.828125 15.796875 -3.050781 15.421875 -2.4375 C 15.046875 -1.820312 14.539062 -1.335938 13.90625 -0.984375 C 13.28125 -0.628906 12.570312 -0.375 11.78125 -0.21875 C 11 -0.0703125 10.21875 0 9.4375 0 L 2.875 0 C 2.625 0 2.40625 -0.0859375 2.21875 -0.265625 C 2.03125 -0.441406 1.9375 -0.65625 1.9375 -0.90625 L 1.9375 -15.125 C 1.9375 -15.382812 2.03125 -15.601562 2.21875 -15.78125 C 2.40625 -15.957031 2.625 -16.046875 2.875 -16.046875 Z M 8.859375 -14.40625 L 3.78125 -14.40625 L 3.78125 -9.25 L 8.921875 -9.25 C 9.648438 -9.25 10.320312 -9.320312 10.9375 -9.46875 C 11.550781 -9.625 12.046875 -9.878906 12.421875 -10.234375 C 12.796875 -10.585938 12.984375 -11.066406 12.984375 -11.671875 C 12.984375 -12.210938 12.84375 -12.660156 12.5625 -13.015625 C 12.289062 -13.367188 11.941406 -13.644531 11.515625 -13.84375 C 11.085938 -14.039062 10.632812 -14.179688 10.15625 -14.265625 C 9.675781 -14.359375 9.242188 -14.40625 8.859375 -14.40625 Z M 10.1875 -7.609375 L 3.78125 -7.609375 L 3.78125 -1.640625 L 9.4375 -1.640625 C 10.175781 -1.640625 10.898438 -1.722656 11.609375 -1.890625 C 12.328125 -2.054688 12.921875 -2.363281 13.390625 -2.8125 C 13.859375 -3.269531 14.09375 -3.921875 14.09375 -4.765625 C 14.09375 -5.753906 13.710938 -6.472656 12.953125 -6.921875 C 12.203125 -7.378906 11.28125 -7.609375 10.1875 -7.609375 Z M 10.1875 -7.609375 "/></g></g></g><g fill="#d22449" fill-opacity="1"><g transform="translate(254.423279, 159.930511)"><g><path d="M 2.140625 0 C 1.828125 0 1.554688 -0.109375 1.328125 -0.328125 C 1.097656 -0.546875 0.984375 -0.796875 0.984375 -1.078125 L 0.984375 -14.984375 C 0.984375 -15.265625 1.097656 -15.507812 1.328125 -15.71875 C 1.554688 -15.9375 1.828125 -16.046875 2.140625 -16.046875 L 7.640625 -16.046875 C 8.898438 -16.046875 9.992188 -15.816406 10.921875 -15.359375 C 11.859375 -14.898438 12.640625 -14.285156 13.265625 -13.515625 C 13.898438 -12.753906 14.375 -11.898438 14.6875 -10.953125 C 15 -10.003906 15.15625 -9.023438 15.15625 -8.015625 C 15.15625 -7.003906 15 -6.023438 14.6875 -5.078125 C 14.375 -4.128906 13.898438 -3.269531 13.265625 -2.5 C 12.640625 -1.738281 11.859375 -1.128906 10.921875 -0.671875 C 9.992188 -0.222656 8.898438 0 7.640625 0 Z M 2.796875 -1.640625 L 7.640625 -1.640625 C 8.578125 -1.640625 9.40625 -1.816406 10.125 -2.171875 C 10.84375 -2.535156 11.4375 -3.023438 11.90625 -3.640625 C 12.375 -4.253906 12.722656 -4.9375 12.953125 -5.6875 C 13.191406 -6.445312 13.3125 -7.222656 13.3125 -8.015625 C 13.3125 -8.804688 13.191406 -9.582031 12.953125 -10.34375 C 12.722656 -11.113281 12.375 -11.804688 11.90625 -12.421875 C 11.4375 -13.035156 10.84375 -13.519531 10.125 -13.875 C 9.40625 -14.238281 8.578125 -14.421875 7.640625 -14.421875 L 2.796875 -14.421875 Z M 2.796875 -1.640625 "/></g></g></g><g fill="#d22449" fill-opacity="1"><g transform="translate(270.986288, 159.930511)"><g><path d="M 2.140625 0 C 1.828125 0 1.554688 -0.109375 1.328125 -0.328125 C 1.097656 -0.546875 0.984375 -0.796875 0.984375 -1.078125 L 0.984375 -14.984375 C 0.984375 -15.265625 1.097656 -15.507812 1.328125 -15.71875 C 1.554688 -15.9375 1.828125 -16.046875 2.140625 -16.046875 L 7.640625 -16.046875 C 8.898438 -16.046875 9.992188 -15.816406 10.921875 -15.359375 C 11.859375 -14.898438 12.640625 -14.285156 13.265625 -13.515625 C 13.898438 -12.753906 14.375 -11.898438 14.6875 -10.953125 C 15 -10.003906 15.15625 -9.023438 15.15625 -8.015625 C 15.15625 -7.003906 15 -6.023438 14.6875 -5.078125 C 14.375 -4.128906 13.898438 -3.269531 13.265625 -2.5 C 12.640625 -1.738281 11.859375 -1.128906 10.921875 -0.671875 C 9.992188 -0.222656 8.898438 0 7.640625 0 Z M 2.796875 -1.640625 L 7.640625 -1.640625 C 8.578125 -1.640625 9.40625 -1.816406 10.125 -2.171875 C 10.84375 -2.535156 11.4375 -3.023438 11.90625 -3.640625 C 12.375 -4.253906 12.722656 -4.9375 12.953125 -5.6875 C 13.191406 -6.445312 13.3125 -7.222656 13.3125 -8.015625 C 13.3125 -8.804688 13.191406 -9.582031 12.953125 -10.34375 C 12.722656 -11.113281 12.375 -11.804688 11.90625 -12.421875 C 11.4375 -13.035156 10.84375 -13.519531 10.125 -13.875 C 9.40625 -14.238281 8.578125 -14.421875 7.640625 -14.421875 L 2.796875 -14.421875 Z M 2.796875 -1.640625 "/></g></g></g></svg>