<svg xmlns="http://www.w3.org/2000/svg" xmlns:xlink="http://www.w3.org/1999/xlink" width="229" zoomAndPan="magnify" viewBox="0 0 171.75 231" height="308" preserveAspectRatio="xMidYMid meet" version="1.0"><defs><clipPath id="f9d9eb7186"><path d="M 89 159 L 171.5 159 L 171.5 230.082031 L 89 230.082031 Z M 89 159 " clip-rule="nonzero"/></clipPath><clipPath id="43811d38b7"><path d="M 63 0.167969 L 107 0.167969 L 107 19 L 63 19 Z M 63 0.167969 " clip-rule="nonzero"/></clipPath><clipPath id="f6a979611f"><path d="M 89 159 L 171.5 159 L 171.5 230.082031 L 89 230.082031 Z M 89 159 " clip-rule="nonzero"/></clipPath><clipPath id="3706e326c5"><path d="M 63 0.167969 L 107 0.167969 L 107 19 L 63 19 Z M 63 0.167969 " clip-rule="nonzero"/></clipPath></defs><path fill="#aa233b" d="M 82.484375 43.058594 L 102.382812 77.519531 L 82.484375 111.976562 L 42.695312 111.976562 L 22.800781 77.519531 L 42.695312 43.058594 L 82.484375 43.058594 M 83.105469 41.984375 L 42.074219 41.984375 L 21.558594 77.519531 L 42.074219 113.054688 L 83.109375 113.054688 L 103.625 77.519531 Z M 83.105469 41.984375 " fill-opacity="1" fill-rule="nonzero"/><g clip-path="url(#f9d9eb7186)"><path fill="#aa233b" d="M 150.25 160.183594 L 170.148438 194.640625 L 150.25 229.101562 L 110.460938 229.101562 L 90.566406 194.640625 L 110.460938 160.183594 L 150.25 160.183594 M 150.871094 159.105469 L 109.839844 159.105469 L 89.324219 194.640625 L 109.839844 230.175781 L 150.871094 230.175781 L 171.390625 194.640625 Z M 150.871094 159.105469 " fill-opacity="1" fill-rule="nonzero"/></g><path fill="#aa233b" d="M 104.949219 77.519531 C 104.949219 77.902344 104.875 78.273438 104.726562 78.628906 C 104.582031 78.984375 104.371094 79.296875 104.101562 79.566406 C 103.828125 79.839844 103.515625 80.050781 103.160156 80.195312 C 102.804688 80.34375 102.433594 80.417969 102.050781 80.417969 C 101.667969 80.417969 101.296875 80.34375 100.941406 80.195312 C 100.585938 80.050781 100.273438 79.839844 100 79.566406 C 99.730469 79.296875 99.519531 78.984375 99.371094 78.628906 C 99.226562 78.273438 99.152344 77.902344 99.152344 77.519531 C 99.152344 77.132812 99.226562 76.765625 99.371094 76.410156 C 99.519531 76.054688 99.730469 75.742188 100 75.46875 C 100.273438 75.195312 100.585938 74.988281 100.941406 74.839844 C 101.296875 74.695312 101.667969 74.621094 102.050781 74.621094 C 102.433594 74.621094 102.804688 74.695312 103.160156 74.839844 C 103.515625 74.988281 103.828125 75.195312 104.101562 75.46875 C 104.371094 75.742188 104.582031 76.054688 104.726562 76.410156 C 104.875 76.765625 104.949219 77.132812 104.949219 77.519531 Z M 104.949219 77.519531 " fill-opacity="1" fill-rule="nonzero"/><path fill="#aa233b" d="M 85.460938 42.429688 C 85.460938 42.816406 85.390625 43.183594 85.242188 43.539062 C 85.09375 43.894531 84.886719 44.207031 84.613281 44.480469 C 84.339844 44.75 84.027344 44.960938 83.671875 45.109375 C 83.316406 45.253906 82.949219 45.328125 82.5625 45.328125 C 82.179688 45.328125 81.808594 45.253906 81.453125 45.109375 C 81.097656 44.960938 80.785156 44.75 80.515625 44.480469 C 80.242188 44.207031 80.03125 43.894531 79.886719 43.539062 C 79.738281 43.183594 79.664062 42.816406 79.664062 42.429688 C 79.664062 42.046875 79.738281 41.675781 79.886719 41.320312 C 80.03125 40.964844 80.242188 40.652344 80.515625 40.382812 C 80.785156 40.109375 81.097656 39.898438 81.453125 39.753906 C 81.808594 39.605469 82.179688 39.53125 82.5625 39.53125 C 82.949219 39.53125 83.316406 39.605469 83.671875 39.753906 C 84.027344 39.898438 84.339844 40.109375 84.613281 40.382812 C 84.886719 40.652344 85.09375 40.964844 85.242188 41.320312 C 85.390625 41.675781 85.460938 42.046875 85.460938 42.429688 Z M 85.460938 42.429688 " fill-opacity="1" fill-rule="nonzero"/><path fill="#aa233b" d="M 82.484375 120.019531 L 102.382812 154.476562 L 82.484375 188.9375 L 42.695312 188.9375 L 22.800781 154.476562 L 42.695312 120.019531 L 82.484375 120.019531 M 83.105469 118.945312 L 42.074219 118.945312 L 21.558594 154.476562 L 42.074219 190.011719 L 83.109375 190.011719 L 103.625 154.476562 Z M 83.105469 118.945312 " fill-opacity="1" fill-rule="nonzero"/><path fill="#aa233b" d="M 85.339844 119.890625 C 85.339844 120.277344 85.265625 120.644531 85.117188 121 C 84.972656 121.355469 84.761719 121.667969 84.492188 121.941406 C 84.21875 122.210938 83.90625 122.421875 83.550781 122.570312 C 83.195312 122.714844 82.824219 122.789062 82.441406 122.789062 C 82.054688 122.789062 81.6875 122.714844 81.332031 122.570312 C 80.976562 122.421875 80.664062 122.210938 80.390625 121.941406 C 80.121094 121.667969 79.910156 121.355469 79.761719 121 C 79.617188 120.644531 79.542969 120.277344 79.542969 119.890625 C 79.542969 119.507812 79.617188 119.136719 79.761719 118.78125 C 79.910156 118.425781 80.121094 118.113281 80.390625 117.839844 C 80.664062 117.570312 80.976562 117.359375 81.332031 117.214844 C 81.6875 117.066406 82.054688 116.992188 82.441406 116.992188 C 82.824219 116.992188 83.195312 117.066406 83.550781 117.214844 C 83.90625 117.359375 84.21875 117.570312 84.492188 117.839844 C 84.761719 118.113281 84.972656 118.425781 85.117188 118.78125 C 85.265625 119.136719 85.339844 119.507812 85.339844 119.890625 Z M 85.339844 119.890625 " fill-opacity="1" fill-rule="nonzero"/><path fill="#aa233b" d="M 105.175781 154.476562 C 105.175781 154.863281 105.101562 155.230469 104.953125 155.585938 C 104.808594 155.941406 104.597656 156.257812 104.324219 156.527344 C 104.054688 156.800781 103.742188 157.007812 103.386719 157.15625 C 103.03125 157.304688 102.660156 157.375 102.277344 157.375 C 101.890625 157.375 101.523438 157.304688 101.167969 157.15625 C 100.8125 157.007812 100.5 156.800781 100.226562 156.527344 C 99.953125 156.257812 99.746094 155.941406 99.597656 155.585938 C 99.449219 155.230469 99.378906 154.863281 99.378906 154.476562 C 99.378906 154.09375 99.449219 153.722656 99.597656 153.367188 C 99.746094 153.015625 99.953125 152.699219 100.226562 152.429688 C 100.5 152.15625 100.8125 151.949219 101.167969 151.800781 C 101.523438 151.652344 101.890625 151.578125 102.277344 151.578125 C 102.660156 151.578125 103.03125 151.652344 103.386719 151.800781 C 103.742188 151.949219 104.054688 152.15625 104.324219 152.429688 C 104.597656 152.699219 104.808594 153.015625 104.953125 153.371094 C 105.101562 153.722656 105.175781 154.09375 105.175781 154.476562 Z M 105.175781 154.476562 " fill-opacity="1" fill-rule="nonzero"/><path fill="#aa233b" d="M 112.894531 159.609375 C 112.894531 159.992188 112.820312 160.363281 112.671875 160.71875 C 112.527344 161.070312 112.316406 161.386719 112.046875 161.65625 C 111.773438 161.929688 111.460938 162.136719 111.105469 162.285156 C 110.75 162.433594 110.378906 162.507812 109.996094 162.507812 C 109.613281 162.507812 109.242188 162.433594 108.886719 162.285156 C 108.53125 162.136719 108.21875 161.929688 107.945312 161.65625 C 107.675781 161.386719 107.464844 161.070312 107.316406 160.71875 C 107.171875 160.363281 107.097656 159.992188 107.097656 159.609375 C 107.097656 159.222656 107.171875 158.855469 107.316406 158.5 C 107.464844 158.144531 107.675781 157.832031 107.945312 157.558594 C 108.21875 157.285156 108.53125 157.078125 108.886719 156.929688 C 109.242188 156.78125 109.613281 156.710938 109.996094 156.710938 C 110.378906 156.710938 110.75 156.78125 111.105469 156.929688 C 111.460938 157.078125 111.773438 157.285156 112.046875 157.558594 C 112.316406 157.832031 112.527344 158.144531 112.671875 158.5 C 112.820312 158.855469 112.894531 159.222656 112.894531 159.609375 Z M 112.894531 159.609375 " fill-opacity="1" fill-rule="nonzero"/><path fill="#aa233b" d="M 153.28125 159.675781 C 153.28125 160.058594 153.207031 160.429688 153.058594 160.785156 C 152.914062 161.140625 152.703125 161.453125 152.429688 161.722656 C 152.160156 161.996094 151.847656 162.207031 151.492188 162.351562 C 151.136719 162.5 150.765625 162.574219 150.382812 162.574219 C 149.996094 162.574219 149.628906 162.5 149.273438 162.351562 C 148.917969 162.207031 148.605469 161.996094 148.332031 161.722656 C 148.058594 161.453125 147.851562 161.140625 147.703125 160.785156 C 147.558594 160.429688 147.484375 160.058594 147.484375 159.675781 C 147.484375 159.289062 147.558594 158.921875 147.703125 158.566406 C 147.851562 158.210938 148.058594 157.898438 148.332031 157.625 C 148.605469 157.351562 148.917969 157.144531 149.273438 156.996094 C 149.628906 156.851562 149.996094 156.777344 150.382812 156.777344 C 150.765625 156.777344 151.136719 156.851562 151.492188 156.996094 C 151.847656 157.144531 152.160156 157.351562 152.429688 157.625 C 152.703125 157.898438 152.914062 158.210938 153.058594 158.566406 C 153.207031 158.921875 153.28125 159.289062 153.28125 159.675781 Z M 153.28125 159.675781 " fill-opacity="1" fill-rule="nonzero"/><path fill="#aa233b" d="M 121.175781 131.40625 L 121.3125 131.40625 C 121.308594 131.382812 121.308594 131.363281 121.308594 131.339844 C 121.308594 131.3125 121.308594 131.28125 121.3125 131.253906 L 121.175781 131.253906 C 121.175781 131.28125 121.171875 131.3125 121.171875 131.339844 C 121.171875 131.363281 121.175781 131.382812 121.175781 131.40625 Z M 121.175781 131.40625 " fill-opacity="1" fill-rule="nonzero"/><path fill="#aa233b" d="M 119.410156 155.523438 L 108.511719 155.523438 L 103.640625 147.085938 C 103.5625 147.132812 103.476562 147.171875 103.386719 147.195312 L 108.351562 155.800781 L 119.566406 155.800781 L 124.554688 147.15625 C 124.46875 147.121094 124.390625 147.078125 124.316406 147.023438 Z M 119.410156 155.523438 " fill-opacity="1" fill-rule="nonzero"/><path fill="#aa233b" d="M 108.511719 136.652344 L 113.003906 136.652344 L 113.164062 136.375 L 108.351562 136.375 L 103.386719 144.976562 C 103.476562 145.003906 103.5625 145.042969 103.640625 145.085938 Z M 108.511719 136.652344 " fill-opacity="1" fill-rule="nonzero"/><path fill="#aa233b" d="M 124.316406 145.152344 C 124.390625 145.097656 124.46875 145.050781 124.558594 145.015625 L 122.597656 141.625 L 122.441406 141.902344 Z M 124.316406 145.152344 " fill-opacity="1" fill-rule="nonzero"/><path fill="#aa233b" d="M 122.351562 141.75 L 122.511719 141.472656 L 119.566406 136.375 L 113.34375 136.375 L 113.183594 136.652344 L 119.410156 136.652344 Z M 122.351562 141.75 " fill-opacity="1" fill-rule="nonzero"/><path fill="#aa233b" d="M 116.210938 131.40625 L 121.175781 131.40625 C 121.175781 131.382812 121.171875 131.363281 121.171875 131.339844 C 121.171875 131.3125 121.175781 131.28125 121.175781 131.253906 L 116.121094 131.253906 L 113.164062 136.375 L 113.34375 136.375 Z M 116.210938 131.40625 " fill-opacity="1" fill-rule="nonzero"/><path fill="#aa233b" d="M 122.355469 142.050781 L 122.441406 141.902344 L 122.351562 141.75 L 122.265625 141.894531 L 116.210938 141.894531 L 113.183594 136.652344 L 113.007812 136.652344 L 116.121094 142.050781 Z M 122.355469 142.050781 " fill-opacity="1" fill-rule="nonzero"/><path fill="#aa233b" d="M 125.296875 136.652344 L 122.511719 141.472656 L 122.597656 141.625 L 125.472656 136.652344 L 122.9375 132.261719 C 122.894531 132.289062 122.851562 132.316406 122.804688 132.339844 Z M 125.296875 136.652344 " fill-opacity="1" fill-rule="nonzero"/><path fill="#aa233b" d="M 122.351562 141.75 L 122.441406 141.902344 L 122.597656 141.625 L 122.511719 141.472656 Z M 122.351562 141.75 " fill-opacity="1" fill-rule="nonzero"/><path fill="#aa233b" d="M 113.183594 136.652344 L 113.34375 136.375 L 113.164062 136.375 L 113.007812 136.652344 Z M 113.183594 136.652344 " fill-opacity="1" fill-rule="nonzero"/><path fill="#aa233b" d="M 122.296875 132.460938 C 122.480469 132.460938 122.652344 132.417969 122.804688 132.339844 L 122.738281 132.222656 C 122.605469 132.289062 122.453125 132.328125 122.296875 132.328125 C 121.773438 132.328125 121.347656 131.921875 121.3125 131.40625 L 121.175781 131.40625 C 121.210938 131.996094 121.699219 132.460938 122.296875 132.460938 Z M 122.296875 132.460938 " fill-opacity="1" fill-rule="nonzero"/><path fill="#aa233b" d="M 122.296875 130.351562 C 122.839844 130.351562 123.285156 130.792969 123.285156 131.339844 C 123.285156 131.671875 123.117188 131.964844 122.867188 132.140625 L 122.9375 132.257812 C 123.226562 132.058594 123.417969 131.71875 123.417969 131.339844 C 123.417969 130.71875 122.914062 130.21875 122.296875 130.21875 C 121.707031 130.21875 121.222656 130.675781 121.179688 131.253906 L 121.3125 131.253906 C 121.355469 130.75 121.78125 130.351562 122.296875 130.351562 Z M 122.296875 130.351562 " fill-opacity="1" fill-rule="nonzero"/><path fill="#aa233b" d="M 122.738281 132.222656 L 122.804688 132.339844 C 122.847656 132.316406 122.894531 132.289062 122.9375 132.257812 L 122.867188 132.140625 C 122.828125 132.171875 122.785156 132.199219 122.738281 132.222656 Z M 122.738281 132.222656 " fill-opacity="1" fill-rule="nonzero"/><path fill="#aa233b" d="M 124.039062 146.085938 C 124.039062 145.777344 124.1875 145.5 124.417969 145.328125 L 124.316406 145.152344 C 124.027344 145.363281 123.835938 145.703125 123.835938 146.089844 C 123.835938 146.472656 124.027344 146.816406 124.316406 147.023438 L 124.417969 146.851562 C 124.1875 146.671875 124.039062 146.398438 124.039062 146.085938 Z M 124.039062 146.085938 " fill-opacity="1" fill-rule="nonzero"/><path fill="#aa233b" d="M 124.992188 144.933594 C 124.835938 144.933594 124.691406 144.960938 124.558594 145.015625 L 124.660156 145.195312 C 124.761719 145.15625 124.875 145.132812 124.992188 145.132812 C 125.515625 145.132812 125.945312 145.5625 125.945312 146.089844 C 125.945312 146.613281 125.515625 147.042969 124.992188 147.042969 C 124.875 147.042969 124.761719 147.019531 124.660156 146.980469 L 124.558594 147.160156 C 124.691406 147.214844 124.835938 147.246094 124.992188 147.246094 C 125.628906 147.246094 126.148438 146.726562 126.148438 146.089844 C 126.148438 145.449219 125.628906 144.933594 124.992188 144.933594 Z M 124.992188 144.933594 " fill-opacity="1" fill-rule="nonzero"/><path fill="#aa233b" d="M 124.417969 145.328125 C 124.488281 145.269531 124.570312 145.226562 124.660156 145.195312 L 124.558594 145.015625 C 124.472656 145.050781 124.390625 145.097656 124.316406 145.148438 Z M 124.417969 145.328125 " fill-opacity="1" fill-rule="nonzero"/><path fill="#aa233b" d="M 124.417969 146.847656 L 124.316406 147.023438 C 124.390625 147.078125 124.472656 147.121094 124.558594 147.15625 L 124.660156 146.980469 C 124.570312 146.949219 124.492188 146.902344 124.417969 146.847656 Z M 124.417969 146.847656 " fill-opacity="1" fill-rule="nonzero"/><path fill="#aa233b" d="M 104.222656 146.085938 C 104.222656 145.660156 103.988281 145.285156 103.640625 145.085938 L 103.542969 145.261719 C 103.828125 145.425781 104.019531 145.734375 104.019531 146.085938 C 104.019531 146.441406 103.824219 146.746094 103.542969 146.914062 L 103.640625 147.085938 C 103.988281 146.886719 104.222656 146.515625 104.222656 146.085938 Z M 104.222656 146.085938 " fill-opacity="1" fill-rule="nonzero"/><path fill="#aa233b" d="M 103.066406 147.042969 C 102.539062 147.042969 102.109375 146.613281 102.109375 146.085938 C 102.109375 145.5625 102.539062 145.132812 103.066406 145.132812 C 103.140625 145.132812 103.214844 145.140625 103.28125 145.15625 L 103.386719 144.976562 C 103.285156 144.949219 103.175781 144.929688 103.066406 144.929688 C 102.425781 144.929688 101.910156 145.449219 101.910156 146.085938 C 101.910156 146.726562 102.425781 147.242188 103.066406 147.242188 C 103.175781 147.242188 103.285156 147.226562 103.386719 147.199219 L 103.28125 147.015625 C 103.214844 147.03125 103.140625 147.042969 103.066406 147.042969 Z M 103.066406 147.042969 " fill-opacity="1" fill-rule="nonzero"/><path fill="#aa233b" d="M 103.542969 145.261719 L 103.640625 145.085938 C 103.5625 145.042969 103.476562 145.003906 103.386719 144.976562 L 103.28125 145.160156 C 103.375 145.179688 103.460938 145.214844 103.542969 145.261719 Z M 103.542969 145.261719 " fill-opacity="1" fill-rule="nonzero"/><path fill="#aa233b" d="M 103.542969 146.914062 C 103.460938 146.960938 103.375 146.992188 103.28125 147.015625 L 103.386719 147.195312 C 103.476562 147.167969 103.5625 147.132812 103.640625 147.085938 Z M 103.542969 146.914062 " fill-opacity="1" fill-rule="nonzero"/><path fill="#aa233b" d="M 81.496094 218.355469 L 70.601562 218.355469 L 65.730469 209.917969 C 65.648438 209.964844 65.5625 210 65.472656 210.027344 L 70.441406 218.632812 L 81.65625 218.632812 L 86.644531 209.988281 C 86.558594 209.953125 86.476562 209.910156 86.402344 209.855469 Z M 81.496094 218.355469 " fill-opacity="1" fill-rule="nonzero"/><path fill="#aa233b" d="M 70.601562 199.484375 L 75.09375 199.484375 L 75.253906 199.207031 L 70.441406 199.207031 L 65.472656 207.808594 C 65.566406 207.835938 65.648438 207.871094 65.730469 207.917969 Z M 70.601562 199.484375 " fill-opacity="1" fill-rule="nonzero"/><path fill="#aa233b" d="M 86.402344 207.980469 C 86.476562 207.929688 86.558594 207.882812 86.644531 207.847656 L 84.6875 204.457031 L 84.527344 204.734375 Z M 86.402344 207.980469 " fill-opacity="1" fill-rule="nonzero"/><path fill="#aa233b" d="M 84.4375 204.578125 L 84.597656 204.304688 L 81.65625 199.207031 L 75.429688 199.207031 L 75.269531 199.484375 L 81.496094 199.484375 Z M 84.4375 204.578125 " fill-opacity="1" fill-rule="nonzero"/><path fill="#aa233b" d="M 78.296875 194.238281 L 83.261719 194.238281 C 83.261719 194.214844 83.261719 194.195312 83.261719 194.171875 C 83.261719 194.144531 83.261719 194.113281 83.265625 194.085938 L 78.210938 194.085938 L 75.253906 199.207031 L 75.429688 199.207031 Z M 78.296875 194.238281 " fill-opacity="1" fill-rule="nonzero"/><path fill="#aa233b" d="M 84.441406 204.882812 L 84.527344 204.734375 L 84.4375 204.578125 L 84.355469 204.726562 L 78.296875 204.726562 L 75.269531 199.484375 L 75.09375 199.484375 L 78.210938 204.882812 Z M 84.441406 204.882812 " fill-opacity="1" fill-rule="nonzero"/><path fill="#aa233b" d="M 87.382812 199.484375 L 84.597656 204.304688 L 84.6875 204.457031 L 87.558594 199.484375 L 85.023438 195.089844 C 84.980469 195.121094 84.9375 195.148438 84.890625 195.171875 Z M 87.382812 199.484375 " fill-opacity="1" fill-rule="nonzero"/><path fill="#aa233b" d="M 84.4375 204.578125 L 84.527344 204.734375 L 84.6875 204.457031 L 84.597656 204.304688 Z M 84.4375 204.578125 " fill-opacity="1" fill-rule="nonzero"/><path fill="#aa233b" d="M 75.269531 199.484375 L 75.429688 199.207031 L 75.253906 199.207031 L 75.09375 199.484375 Z M 75.269531 199.484375 " fill-opacity="1" fill-rule="nonzero"/><path fill="#aa233b" d="M 84.382812 195.292969 C 84.566406 195.292969 84.738281 195.25 84.890625 195.171875 L 84.824219 195.054688 C 84.691406 195.121094 84.542969 195.160156 84.382812 195.160156 C 83.863281 195.160156 83.433594 194.75 83.398438 194.238281 L 83.265625 194.238281 C 83.296875 194.824219 83.785156 195.292969 84.382812 195.292969 Z M 84.382812 195.292969 " fill-opacity="1" fill-rule="nonzero"/><path fill="#aa233b" d="M 84.382812 193.183594 C 84.929688 193.183594 85.371094 193.625 85.371094 194.171875 C 85.371094 194.503906 85.207031 194.796875 84.957031 194.972656 L 85.023438 195.089844 C 85.316406 194.890625 85.503906 194.550781 85.503906 194.171875 C 85.503906 193.550781 85 193.050781 84.382812 193.050781 C 83.792969 193.050781 83.308594 193.507812 83.265625 194.085938 L 83.402344 194.085938 C 83.441406 193.582031 83.867188 193.183594 84.382812 193.183594 Z M 84.382812 193.183594 " fill-opacity="1" fill-rule="nonzero"/><path fill="#aa233b" d="M 84.824219 195.054688 L 84.890625 195.171875 C 84.9375 195.148438 84.980469 195.121094 85.023438 195.089844 L 84.957031 194.972656 C 84.914062 195.003906 84.871094 195.03125 84.824219 195.054688 Z M 84.824219 195.054688 " fill-opacity="1" fill-rule="nonzero"/><path fill="#aa233b" d="M 86.125 208.917969 C 86.125 208.609375 86.273438 208.332031 86.503906 208.160156 L 86.402344 207.984375 C 86.113281 208.195312 85.921875 208.535156 85.921875 208.921875 C 85.921875 209.304688 86.113281 209.648438 86.402344 209.855469 L 86.503906 209.683594 C 86.273438 209.503906 86.125 209.230469 86.125 208.917969 Z M 86.125 208.917969 " fill-opacity="1" fill-rule="nonzero"/><path fill="#aa233b" d="M 87.078125 207.761719 C 86.925781 207.761719 86.777344 207.792969 86.644531 207.847656 L 86.746094 208.027344 C 86.851562 207.988281 86.960938 207.964844 87.078125 207.964844 C 87.605469 207.964844 88.03125 208.394531 88.03125 208.917969 C 88.03125 209.445312 87.605469 209.875 87.078125 209.875 C 86.960938 209.875 86.851562 209.851562 86.746094 209.8125 L 86.644531 209.988281 C 86.777344 210.046875 86.925781 210.074219 87.078125 210.074219 C 87.714844 210.074219 88.234375 209.558594 88.234375 208.917969 C 88.234375 208.28125 87.714844 207.761719 87.078125 207.761719 Z M 87.078125 207.761719 " fill-opacity="1" fill-rule="nonzero"/><path fill="#aa233b" d="M 86.503906 208.160156 C 86.578125 208.101562 86.660156 208.058594 86.746094 208.027344 L 86.644531 207.847656 C 86.558594 207.882812 86.476562 207.929688 86.402344 207.980469 Z M 86.503906 208.160156 " fill-opacity="1" fill-rule="nonzero"/><path fill="#aa233b" d="M 86.503906 209.679688 L 86.402344 209.855469 C 86.476562 209.910156 86.558594 209.953125 86.644531 209.988281 L 86.746094 209.8125 C 86.660156 209.78125 86.578125 209.734375 86.503906 209.679688 Z M 86.503906 209.679688 " fill-opacity="1" fill-rule="nonzero"/><path fill="#aa233b" d="M 66.308594 208.917969 C 66.308594 208.492188 66.074219 208.117188 65.730469 207.917969 L 65.628906 208.09375 C 65.914062 208.257812 66.105469 208.566406 66.105469 208.917969 C 66.105469 209.273438 65.914062 209.578125 65.628906 209.746094 L 65.730469 209.917969 C 66.074219 209.71875 66.308594 209.347656 66.308594 208.917969 Z M 66.308594 208.917969 " fill-opacity="1" fill-rule="nonzero"/><path fill="#aa233b" d="M 65.152344 209.875 C 64.625 209.875 64.199219 209.445312 64.199219 208.917969 C 64.199219 208.394531 64.625 207.964844 65.152344 207.964844 C 65.226562 207.964844 65.300781 207.972656 65.371094 207.988281 L 65.472656 207.808594 C 65.371094 207.78125 65.265625 207.761719 65.152344 207.761719 C 64.515625 207.761719 63.996094 208.28125 63.996094 208.917969 C 63.996094 209.558594 64.515625 210.074219 65.152344 210.074219 C 65.265625 210.074219 65.371094 210.058594 65.472656 210.03125 L 65.371094 209.847656 C 65.300781 209.863281 65.226562 209.875 65.152344 209.875 Z M 65.152344 209.875 " fill-opacity="1" fill-rule="nonzero"/><path fill="#aa233b" d="M 65.628906 208.09375 L 65.730469 207.917969 C 65.648438 207.875 65.5625 207.835938 65.472656 207.808594 L 65.371094 207.992188 C 65.460938 208.011719 65.550781 208.046875 65.628906 208.09375 Z M 65.628906 208.09375 " fill-opacity="1" fill-rule="nonzero"/><path fill="#aa233b" d="M 65.628906 209.746094 C 65.550781 209.792969 65.460938 209.824219 65.371094 209.847656 L 65.472656 210.027344 C 65.566406 210 65.648438 209.964844 65.730469 209.917969 Z M 65.628906 209.746094 " fill-opacity="1" fill-rule="nonzero"/><path fill="#aa233b" d="M 106.945312 113.90625 C 106.75 113.90625 106.566406 113.839844 106.421875 113.726562 L 106.21875 114.078125 C 106.371094 114.183594 106.546875 114.257812 106.734375 114.292969 L 106.957031 113.90625 C 106.953125 113.90625 106.949219 113.90625 106.945312 113.90625 Z M 106.945312 113.90625 " fill-opacity="1" fill-rule="nonzero"/><path fill="#aa233b" d="M 106.421875 112.378906 C 106.566406 112.269531 106.75 112.199219 106.945312 112.199219 C 106.949219 112.199219 106.953125 112.199219 106.957031 112.199219 L 106.734375 111.816406 C 106.542969 111.847656 106.371094 111.921875 106.21875 112.03125 Z M 106.421875 112.378906 " fill-opacity="1" fill-rule="nonzero"/><path fill="#aa233b" d="M 75.292969 94.179688 L 95.914062 94.179688 L 106.21875 112.03125 C 106.371094 111.921875 106.542969 111.847656 106.734375 111.816406 L 96.234375 93.628906 L 75.320312 93.628906 C 75.332031 93.699219 75.339844 93.773438 75.339844 93.847656 C 75.339844 93.960938 75.320312 94.074219 75.292969 94.179688 Z M 75.292969 94.179688 " fill-opacity="1" fill-rule="nonzero"/><path fill="#aa233b" d="M 95.914062 131.925781 L 74.125 131.925781 L 63.226562 113.054688 L 73.640625 95.019531 C 73.464844 94.953125 73.308594 94.851562 73.179688 94.71875 L 62.589844 113.054688 L 73.804688 132.476562 L 96.234375 132.476562 L 106.730469 114.292969 C 106.542969 114.261719 106.371094 114.1875 106.21875 114.078125 Z M 95.914062 131.925781 " fill-opacity="1" fill-rule="nonzero"/><path fill="#aa233b" d="M 106.09375 113.054688 C 106.09375 112.78125 106.222656 112.535156 106.421875 112.378906 L 106.21875 112.027344 C 105.898438 112.257812 105.6875 112.628906 105.6875 113.054688 C 105.6875 113.476562 105.898438 113.847656 106.21875 114.078125 L 106.421875 113.726562 C 106.222656 113.570312 106.09375 113.328125 106.09375 113.054688 Z M 106.09375 113.054688 " fill-opacity="1" fill-rule="nonzero"/><path fill="#aa233b" d="M 106.945312 111.796875 C 106.875 111.796875 106.804688 111.804688 106.734375 111.816406 L 106.957031 112.199219 C 107.421875 112.207031 107.800781 112.585938 107.800781 113.054688 C 107.800781 113.523438 107.421875 113.902344 106.957031 113.90625 L 106.734375 114.292969 C 106.800781 114.304688 106.875 114.3125 106.945312 114.3125 C 107.640625 114.3125 108.203125 113.746094 108.203125 113.054688 C 108.203125 112.359375 107.640625 111.796875 106.945312 111.796875 Z M 106.945312 111.796875 " fill-opacity="1" fill-rule="nonzero"/><path fill="#aa233b" d="M 75.292969 94.179688 L 74.867188 94.179688 C 74.734375 94.484375 74.433594 94.699219 74.082031 94.699219 C 74 94.699219 73.921875 94.6875 73.84375 94.664062 L 73.640625 95.019531 C 73.777344 95.070312 73.925781 95.101562 74.082031 95.101562 C 74.660156 95.101562 75.144531 94.710938 75.292969 94.179688 Z M 75.292969 94.179688 " fill-opacity="1" fill-rule="nonzero"/><path fill="#aa233b" d="M 73.230469 93.84375 C 73.230469 93.375 73.613281 92.992188 74.082031 92.992188 C 74.480469 92.992188 74.8125 93.261719 74.90625 93.628906 L 75.320312 93.628906 C 75.21875 93.039062 74.703125 92.589844 74.082031 92.589844 C 73.390625 92.589844 72.824219 93.152344 72.824219 93.84375 C 72.824219 94.183594 72.960938 94.492188 73.179688 94.71875 L 73.390625 94.347656 C 73.289062 94.207031 73.230469 94.03125 73.230469 93.84375 Z M 73.230469 93.84375 " fill-opacity="1" fill-rule="nonzero"/><path fill="#aa233b" d="M 73.640625 95.019531 L 73.84375 94.664062 C 73.660156 94.613281 73.503906 94.496094 73.390625 94.347656 L 73.179688 94.71875 C 73.308594 94.851562 73.464844 94.953125 73.640625 95.019531 Z M 73.640625 95.019531 " fill-opacity="1" fill-rule="nonzero"/><path fill="#aa233b" d="M 74.933594 93.84375 C 74.933594 93.964844 74.910156 94.078125 74.867188 94.179688 L 75.292969 94.179688 C 75.320312 94.074219 75.339844 93.960938 75.339844 93.84375 C 75.339844 93.769531 75.332031 93.699219 75.320312 93.628906 L 74.90625 93.628906 C 74.925781 93.699219 74.933594 93.769531 74.933594 93.84375 Z M 74.933594 93.84375 " fill-opacity="1" fill-rule="nonzero"/><path fill="#aa233b" d="M 44.351562 155.851562 C 44.152344 155.851562 43.972656 155.785156 43.828125 155.671875 L 43.625 156.023438 C 43.773438 156.128906 43.949219 156.203125 44.136719 156.238281 L 44.359375 155.851562 C 44.355469 155.851562 44.355469 155.851562 44.351562 155.851562 Z M 44.351562 155.851562 " fill-opacity="1" fill-rule="nonzero"/><path fill="#aa233b" d="M 43.828125 154.324219 C 43.972656 154.214844 44.152344 154.144531 44.351562 154.144531 C 44.351562 154.144531 44.355469 154.144531 44.359375 154.144531 L 44.136719 153.761719 C 43.949219 153.792969 43.773438 153.867188 43.625 153.972656 Z M 43.828125 154.324219 " fill-opacity="1" fill-rule="nonzero"/><path fill="#aa233b" d="M 12.695312 136.128906 L 33.320312 136.128906 L 43.625 153.976562 C 43.773438 153.867188 43.949219 153.792969 44.136719 153.761719 L 33.636719 135.574219 L 12.722656 135.574219 C 12.734375 135.644531 12.742188 135.71875 12.742188 135.792969 C 12.742188 135.90625 12.726562 136.019531 12.695312 136.128906 Z M 12.695312 136.128906 " fill-opacity="1" fill-rule="nonzero"/><path fill="#aa233b" d="M 33.320312 173.871094 L 11.527344 173.871094 L 0.632812 155 L 11.042969 136.96875 C 10.867188 136.898438 10.710938 136.796875 10.582031 136.664062 L -0.00390625 155 L 11.210938 174.425781 L 33.636719 174.425781 L 44.136719 156.238281 C 43.949219 156.207031 43.773438 156.132812 43.625 156.027344 Z M 33.320312 173.871094 " fill-opacity="1" fill-rule="nonzero"/><path fill="#aa233b" d="M 43.496094 155 C 43.496094 154.726562 43.625 154.480469 43.828125 154.324219 L 43.625 153.972656 C 43.304688 154.203125 43.09375 154.574219 43.09375 155 C 43.09375 155.421875 43.304688 155.796875 43.625 156.023438 L 43.828125 155.671875 C 43.625 155.515625 43.496094 155.273438 43.496094 155 Z M 43.496094 155 " fill-opacity="1" fill-rule="nonzero"/><path fill="#aa233b" d="M 44.351562 153.742188 C 44.277344 153.742188 44.207031 153.75 44.136719 153.761719 L 44.359375 154.148438 C 44.828125 154.152344 45.203125 154.53125 45.203125 155 C 45.203125 155.46875 44.824219 155.847656 44.359375 155.851562 L 44.136719 156.238281 C 44.207031 156.25 44.277344 156.257812 44.351562 156.257812 C 45.042969 156.257812 45.605469 155.695312 45.605469 155 C 45.605469 154.304688 45.042969 153.742188 44.351562 153.742188 Z M 44.351562 153.742188 " fill-opacity="1" fill-rule="nonzero"/><path fill="#aa233b" d="M 12.695312 136.128906 L 12.269531 136.128906 C 12.140625 136.429688 11.835938 136.644531 11.488281 136.644531 C 11.402344 136.644531 11.324219 136.632812 11.25 136.609375 L 11.042969 136.964844 C 11.179688 137.019531 11.328125 137.046875 11.484375 137.046875 C 12.0625 137.046875 12.550781 136.65625 12.695312 136.128906 Z M 12.695312 136.128906 " fill-opacity="1" fill-rule="nonzero"/><path fill="#aa233b" d="M 10.632812 135.789062 C 10.632812 135.320312 11.015625 134.9375 11.488281 134.9375 C 11.882812 134.9375 12.214844 135.210938 12.3125 135.574219 L 12.722656 135.574219 C 12.621094 134.984375 12.105469 134.535156 11.488281 134.535156 C 10.792969 134.535156 10.230469 135.097656 10.230469 135.789062 C 10.230469 136.128906 10.363281 136.4375 10.582031 136.664062 L 10.796875 136.292969 C 10.695312 136.152344 10.632812 135.976562 10.632812 135.789062 Z M 10.632812 135.789062 " fill-opacity="1" fill-rule="nonzero"/><path fill="#aa233b" d="M 11.042969 136.964844 L 11.25 136.609375 C 11.066406 136.558594 10.90625 136.441406 10.796875 136.292969 L 10.582031 136.664062 C 10.710938 136.796875 10.867188 136.898438 11.042969 136.964844 Z M 11.042969 136.964844 " fill-opacity="1" fill-rule="nonzero"/><path fill="#aa233b" d="M 12.339844 135.789062 C 12.339844 135.910156 12.316406 136.023438 12.269531 136.128906 L 12.695312 136.128906 C 12.726562 136.019531 12.742188 135.90625 12.742188 135.789062 C 12.742188 135.71875 12.734375 135.644531 12.722656 135.574219 L 12.3125 135.574219 C 12.328125 135.644531 12.339844 135.71875 12.339844 135.789062 Z M 12.339844 135.789062 " fill-opacity="1" fill-rule="nonzero"/><path fill="#aa233b" d="M 60.859375 24.011719 L 71.234375 41.984375 L 60.339844 60.855469 L 38.546875 60.855469 L 27.652344 41.984375 L 38.546875 23.113281 L 59.210938 23.113281 C 59.191406 23.019531 59.175781 22.925781 59.175781 22.828125 C 59.175781 22.738281 59.1875 22.648438 59.207031 22.5625 L 38.230469 22.5625 L 27.015625 41.984375 L 38.230469 61.40625 L 60.65625 61.40625 L 71.871094 41.984375 L 61.324219 23.714844 C 61.195312 23.847656 61.035156 23.945312 60.859375 24.011719 Z M 60.859375 24.011719 " fill-opacity="1" fill-rule="nonzero"/><path fill="#aa233b" d="M 94.863281 38.511719 L 74.125 38.511719 L 63.773438 20.585938 C 63.636719 20.707031 63.472656 20.796875 63.289062 20.847656 L 73.808594 39.0625 L 94.890625 39.0625 C 94.863281 38.957031 94.84375 38.847656 94.84375 38.734375 C 94.84375 38.65625 94.851562 38.582031 94.863281 38.511719 Z M 94.863281 38.511719 " fill-opacity="1" fill-rule="nonzero"/><path fill="#aa233b" d="M 96.480469 37.53125 C 96.660156 37.589844 96.820312 37.6875 96.957031 37.8125 L 106.722656 20.890625 C 106.527344 20.878906 106.34375 20.820312 106.183594 20.726562 Z M 96.480469 37.53125 " fill-opacity="1" fill-rule="nonzero"/><g clip-path="url(#43811d38b7)"><path fill="#aa233b" d="M 74.125 0.765625 L 95.914062 0.765625 L 106.183594 18.550781 C 106.34375 18.457031 106.527344 18.402344 106.722656 18.386719 L 96.234375 0.214844 L 73.804688 0.214844 L 63.289062 18.429688 C 63.46875 18.480469 63.636719 18.574219 63.773438 18.695312 Z M 74.125 0.765625 " fill-opacity="1" fill-rule="nonzero"/></g><path fill="#aa233b" d="M 60.433594 21.976562 C 60.90625 21.976562 61.289062 22.359375 61.289062 22.828125 C 61.289062 23.023438 61.222656 23.203125 61.113281 23.347656 L 61.324219 23.714844 C 61.550781 23.488281 61.691406 23.175781 61.691406 22.828125 C 61.691406 22.136719 61.125 21.574219 60.433594 21.574219 C 59.832031 21.574219 59.332031 21.996094 59.207031 22.5625 L 59.625 22.5625 C 59.738281 22.222656 60.058594 21.976562 60.433594 21.976562 Z M 60.433594 21.976562 " fill-opacity="1" fill-rule="nonzero"/><path fill="#aa233b" d="M 60.433594 23.683594 C 60.0625 23.683594 59.746094 23.445312 59.628906 23.113281 L 59.210938 23.113281 C 59.339844 23.667969 59.839844 24.085938 60.433594 24.085938 C 60.585938 24.085938 60.726562 24.058594 60.859375 24.011719 L 60.652344 23.652344 C 60.582031 23.671875 60.511719 23.683594 60.433594 23.683594 Z M 60.433594 23.683594 " fill-opacity="1" fill-rule="nonzero"/><path fill="#aa233b" d="M 59.210938 23.113281 L 59.628906 23.113281 C 59.597656 23.023438 59.582031 22.929688 59.582031 22.828125 C 59.582031 22.734375 59.597656 22.644531 59.625 22.5625 L 59.207031 22.5625 C 59.1875 22.648438 59.175781 22.738281 59.175781 22.828125 C 59.179688 22.925781 59.191406 23.019531 59.210938 23.113281 Z M 59.210938 23.113281 " fill-opacity="1" fill-rule="nonzero"/><path fill="#aa233b" d="M 60.652344 23.652344 L 60.859375 24.011719 C 61.035156 23.945312 61.195312 23.84375 61.324219 23.714844 L 61.113281 23.347656 C 61 23.496094 60.839844 23.605469 60.652344 23.652344 Z M 60.652344 23.652344 " fill-opacity="1" fill-rule="nonzero"/><path fill="#aa233b" d="M 62.949219 20.492188 C 62.476562 20.492188 62.09375 20.109375 62.09375 19.640625 C 62.09375 19.167969 62.476562 18.785156 62.949219 18.785156 C 62.992188 18.785156 63.035156 18.789062 63.078125 18.796875 L 63.289062 18.429688 C 63.179688 18.398438 63.066406 18.382812 62.949219 18.382812 C 62.253906 18.382812 61.691406 18.945312 61.691406 19.640625 C 61.691406 20.332031 62.253906 20.894531 62.949219 20.894531 C 63.066406 20.894531 63.179688 20.878906 63.289062 20.847656 L 63.078125 20.480469 C 63.035156 20.488281 62.992188 20.492188 62.949219 20.492188 Z M 62.949219 20.492188 " fill-opacity="1" fill-rule="nonzero"/><path fill="#aa233b" d="M 64.203125 19.640625 C 64.203125 19.261719 64.039062 18.925781 63.773438 18.695312 L 63.566406 19.054688 C 63.710938 19.207031 63.800781 19.414062 63.800781 19.640625 C 63.800781 19.867188 63.710938 20.074219 63.566406 20.226562 L 63.773438 20.585938 C 64.039062 20.351562 64.203125 20.015625 64.203125 19.640625 Z M 64.203125 19.640625 " fill-opacity="1" fill-rule="nonzero"/><path fill="#aa233b" d="M 63.566406 20.226562 C 63.4375 20.359375 63.269531 20.453125 63.078125 20.480469 L 63.289062 20.847656 C 63.46875 20.796875 63.636719 20.703125 63.773438 20.582031 Z M 63.566406 20.226562 " fill-opacity="1" fill-rule="nonzero"/><path fill="#aa233b" d="M 63.566406 19.050781 L 63.773438 18.691406 C 63.636719 18.570312 63.472656 18.480469 63.289062 18.429688 L 63.078125 18.796875 C 63.269531 18.824219 63.4375 18.917969 63.566406 19.050781 Z M 63.566406 19.050781 " fill-opacity="1" fill-rule="nonzero"/><path fill="#aa233b" d="M 94.863281 38.511719 L 95.277344 38.511719 C 95.375 38.148438 95.707031 37.878906 96.101562 37.878906 C 96.160156 37.878906 96.214844 37.882812 96.273438 37.894531 L 96.480469 37.53125 C 96.359375 37.492188 96.234375 37.472656 96.101562 37.472656 C 95.484375 37.472656 94.96875 37.921875 94.863281 38.511719 Z M 94.863281 38.511719 " fill-opacity="1" fill-rule="nonzero"/><path fill="#aa233b" d="M 96.953125 38.730469 C 96.953125 39.203125 96.570312 39.585938 96.101562 39.585938 C 95.746094 39.585938 95.445312 39.367188 95.316406 39.0625 L 94.890625 39.0625 C 95.035156 39.59375 95.523438 39.988281 96.101562 39.988281 C 96.796875 39.988281 97.359375 39.421875 97.359375 38.730469 C 97.359375 38.367188 97.203125 38.042969 96.957031 37.8125 L 96.746094 38.171875 C 96.875 38.324219 96.953125 38.519531 96.953125 38.730469 Z M 96.953125 38.730469 " fill-opacity="1" fill-rule="nonzero"/><path fill="#aa233b" d="M 96.273438 37.894531 C 96.460938 37.933594 96.625 38.035156 96.746094 38.175781 L 96.957031 37.8125 C 96.820312 37.6875 96.660156 37.589844 96.480469 37.53125 Z M 96.273438 37.894531 " fill-opacity="1" fill-rule="nonzero"/><path fill="#aa233b" d="M 95.246094 38.730469 C 95.246094 38.65625 95.257812 38.582031 95.277344 38.511719 L 94.863281 38.511719 C 94.851562 38.582031 94.84375 38.65625 94.84375 38.730469 C 94.84375 38.847656 94.859375 38.957031 94.890625 39.0625 L 95.3125 39.0625 C 95.273438 38.960938 95.246094 38.847656 95.246094 38.730469 Z M 95.246094 38.730469 " fill-opacity="1" fill-rule="nonzero"/><path fill="#aa233b" d="M 106.8125 18.382812 C 106.78125 18.382812 106.753906 18.382812 106.722656 18.386719 L 106.960938 18.800781 C 107.359375 18.871094 107.664062 19.21875 107.664062 19.640625 C 107.664062 20.058594 107.359375 20.40625 106.960938 20.476562 L 106.722656 20.890625 C 106.753906 20.894531 106.78125 20.894531 106.8125 20.894531 C 107.503906 20.894531 108.066406 20.332031 108.066406 19.640625 C 108.066406 18.945312 107.503906 18.382812 106.8125 18.382812 Z M 106.8125 18.382812 " fill-opacity="1" fill-rule="nonzero"/><path fill="#aa233b" d="M 105.957031 19.640625 C 105.957031 19.324219 106.128906 19.046875 106.386719 18.902344 L 106.183594 18.550781 C 105.808594 18.769531 105.554688 19.175781 105.554688 19.640625 C 105.554688 20.101562 105.808594 20.507812 106.183594 20.726562 L 106.386719 20.375 C 106.128906 20.230469 105.957031 19.953125 105.957031 19.640625 Z M 105.957031 19.640625 " fill-opacity="1" fill-rule="nonzero"/><path fill="#aa233b" d="M 106.386719 18.902344 C 106.511719 18.828125 106.65625 18.785156 106.8125 18.785156 C 106.863281 18.785156 106.914062 18.789062 106.964844 18.800781 L 106.726562 18.386719 C 106.53125 18.402344 106.34375 18.457031 106.183594 18.550781 Z M 106.386719 18.902344 " fill-opacity="1" fill-rule="nonzero"/><path fill="#aa233b" d="M 106.8125 20.492188 C 106.65625 20.492188 106.511719 20.449219 106.386719 20.375 L 106.183594 20.726562 C 106.34375 20.820312 106.527344 20.878906 106.722656 20.890625 L 106.960938 20.476562 C 106.914062 20.488281 106.863281 20.492188 106.8125 20.492188 Z M 106.8125 20.492188 " fill-opacity="1" fill-rule="nonzero"/><path fill="#aa233b" d="M 82.484375 43.058594 L 102.382812 77.519531 L 82.484375 111.976562 L 42.695312 111.976562 L 22.800781 77.519531 L 42.695312 43.058594 L 82.484375 43.058594 M 83.105469 41.984375 L 42.074219 41.984375 L 21.558594 77.519531 L 42.074219 113.054688 L 83.109375 113.054688 L 103.625 77.519531 Z M 83.105469 41.984375 " fill-opacity="1" fill-rule="nonzero"/><g clip-path="url(#f6a979611f)"><path fill="#aa233b" d="M 150.25 160.183594 L 170.148438 194.640625 L 150.25 229.101562 L 110.460938 229.101562 L 90.566406 194.640625 L 110.460938 160.183594 L 150.25 160.183594 M 150.871094 159.105469 L 109.839844 159.105469 L 89.324219 194.640625 L 109.839844 230.175781 L 150.871094 230.175781 L 171.390625 194.640625 Z M 150.871094 159.105469 " fill-opacity="1" fill-rule="nonzero"/></g><path fill="#aa233b" d="M 104.949219 77.519531 C 104.949219 77.902344 104.875 78.273438 104.726562 78.628906 C 104.582031 78.984375 104.371094 79.296875 104.101562 79.566406 C 103.828125 79.839844 103.515625 80.050781 103.160156 80.195312 C 102.804688 80.34375 102.433594 80.417969 102.050781 80.417969 C 101.667969 80.417969 101.296875 80.34375 100.941406 80.195312 C 100.585938 80.050781 100.273438 79.839844 100 79.566406 C 99.730469 79.296875 99.519531 78.984375 99.371094 78.628906 C 99.226562 78.273438 99.152344 77.902344 99.152344 77.519531 C 99.152344 77.132812 99.226562 76.765625 99.371094 76.410156 C 99.519531 76.054688 99.730469 75.742188 100 75.46875 C 100.273438 75.195312 100.585938 74.988281 100.941406 74.839844 C 101.296875 74.695312 101.667969 74.621094 102.050781 74.621094 C 102.433594 74.621094 102.804688 74.695312 103.160156 74.839844 C 103.515625 74.988281 103.828125 75.195312 104.101562 75.46875 C 104.371094 75.742188 104.582031 76.054688 104.726562 76.410156 C 104.875 76.765625 104.949219 77.132812 104.949219 77.519531 Z M 104.949219 77.519531 " fill-opacity="1" fill-rule="nonzero"/><path fill="#aa233b" d="M 85.460938 42.429688 C 85.460938 42.816406 85.390625 43.183594 85.242188 43.539062 C 85.09375 43.894531 84.886719 44.207031 84.613281 44.480469 C 84.339844 44.75 84.027344 44.960938 83.671875 45.109375 C 83.316406 45.253906 82.949219 45.328125 82.5625 45.328125 C 82.179688 45.328125 81.808594 45.253906 81.453125 45.109375 C 81.097656 44.960938 80.785156 44.75 80.515625 44.480469 C 80.242188 44.207031 80.03125 43.894531 79.886719 43.539062 C 79.738281 43.183594 79.664062 42.816406 79.664062 42.429688 C 79.664062 42.046875 79.738281 41.675781 79.886719 41.320312 C 80.03125 40.964844 80.242188 40.652344 80.515625 40.382812 C 80.785156 40.109375 81.097656 39.898438 81.453125 39.753906 C 81.808594 39.605469 82.179688 39.53125 82.5625 39.53125 C 82.949219 39.53125 83.316406 39.605469 83.671875 39.753906 C 84.027344 39.898438 84.339844 40.109375 84.613281 40.382812 C 84.886719 40.652344 85.09375 40.964844 85.242188 41.320312 C 85.390625 41.675781 85.460938 42.046875 85.460938 42.429688 Z M 85.460938 42.429688 " fill-opacity="1" fill-rule="nonzero"/><path fill="#aa233b" d="M 82.484375 120.019531 L 102.382812 154.476562 L 82.484375 188.9375 L 42.695312 188.9375 L 22.800781 154.476562 L 42.695312 120.019531 L 82.484375 120.019531 M 83.105469 118.945312 L 42.074219 118.945312 L 21.558594 154.476562 L 42.074219 190.011719 L 83.109375 190.011719 L 103.625 154.476562 Z M 83.105469 118.945312 " fill-opacity="1" fill-rule="nonzero"/><path fill="#aa233b" d="M 85.339844 119.890625 C 85.339844 120.277344 85.265625 120.644531 85.117188 121 C 84.972656 121.355469 84.761719 121.667969 84.492188 121.941406 C 84.21875 122.210938 83.90625 122.421875 83.550781 122.570312 C 83.195312 122.714844 82.824219 122.789062 82.441406 122.789062 C 82.054688 122.789062 81.6875 122.714844 81.332031 122.570312 C 80.976562 122.421875 80.664062 122.210938 80.390625 121.941406 C 80.121094 121.667969 79.910156 121.355469 79.761719 121 C 79.617188 120.644531 79.542969 120.277344 79.542969 119.890625 C 79.542969 119.507812 79.617188 119.136719 79.761719 118.78125 C 79.910156 118.425781 80.121094 118.113281 80.390625 117.839844 C 80.664062 117.570312 80.976562 117.359375 81.332031 117.214844 C 81.6875 117.066406 82.054688 116.992188 82.441406 116.992188 C 82.824219 116.992188 83.195312 117.066406 83.550781 117.214844 C 83.90625 117.359375 84.21875 117.570312 84.492188 117.839844 C 84.761719 118.113281 84.972656 118.425781 85.117188 118.78125 C 85.265625 119.136719 85.339844 119.507812 85.339844 119.890625 Z M 85.339844 119.890625 " fill-opacity="1" fill-rule="nonzero"/><path fill="#aa233b" d="M 105.175781 154.476562 C 105.175781 154.863281 105.101562 155.230469 104.953125 155.585938 C 104.808594 155.941406 104.597656 156.257812 104.324219 156.527344 C 104.054688 156.800781 103.742188 157.007812 103.386719 157.15625 C 103.03125 157.304688 102.660156 157.375 102.277344 157.375 C 101.890625 157.375 101.523438 157.304688 101.167969 157.15625 C 100.8125 157.007812 100.5 156.800781 100.226562 156.527344 C 99.953125 156.257812 99.746094 155.941406 99.597656 155.585938 C 99.449219 155.230469 99.378906 154.863281 99.378906 154.476562 C 99.378906 154.09375 99.449219 153.722656 99.597656 153.367188 C 99.746094 153.015625 99.953125 152.699219 100.226562 152.429688 C 100.5 152.15625 100.8125 151.949219 101.167969 151.800781 C 101.523438 151.652344 101.890625 151.578125 102.277344 151.578125 C 102.660156 151.578125 103.03125 151.652344 103.386719 151.800781 C 103.742188 151.949219 104.054688 152.15625 104.324219 152.429688 C 104.597656 152.699219 104.808594 153.015625 104.953125 153.371094 C 105.101562 153.722656 105.175781 154.09375 105.175781 154.476562 Z M 105.175781 154.476562 " fill-opacity="1" fill-rule="nonzero"/><path fill="#aa233b" d="M 112.894531 159.609375 C 112.894531 159.992188 112.820312 160.363281 112.671875 160.71875 C 112.527344 161.070312 112.316406 161.386719 112.046875 161.65625 C 111.773438 161.929688 111.460938 162.136719 111.105469 162.285156 C 110.75 162.433594 110.378906 162.507812 109.996094 162.507812 C 109.613281 162.507812 109.242188 162.433594 108.886719 162.285156 C 108.53125 162.136719 108.21875 161.929688 107.945312 161.65625 C 107.675781 161.386719 107.464844 161.070312 107.316406 160.71875 C 107.171875 160.363281 107.097656 159.992188 107.097656 159.609375 C 107.097656 159.222656 107.171875 158.855469 107.316406 158.5 C 107.464844 158.144531 107.675781 157.832031 107.945312 157.558594 C 108.21875 157.285156 108.53125 157.078125 108.886719 156.929688 C 109.242188 156.78125 109.613281 156.710938 109.996094 156.710938 C 110.378906 156.710938 110.75 156.78125 111.105469 156.929688 C 111.460938 157.078125 111.773438 157.285156 112.046875 157.558594 C 112.316406 157.832031 112.527344 158.144531 112.671875 158.5 C 112.820312 158.855469 112.894531 159.222656 112.894531 159.609375 Z M 112.894531 159.609375 " fill-opacity="1" fill-rule="nonzero"/><path fill="#aa233b" d="M 153.28125 159.675781 C 153.28125 160.058594 153.207031 160.429688 153.058594 160.785156 C 152.914062 161.140625 152.703125 161.453125 152.429688 161.722656 C 152.160156 161.996094 151.847656 162.207031 151.492188 162.351562 C 151.136719 162.5 150.765625 162.574219 150.382812 162.574219 C 149.996094 162.574219 149.628906 162.5 149.273438 162.351562 C 148.917969 162.207031 148.605469 161.996094 148.332031 161.722656 C 148.058594 161.453125 147.851562 161.140625 147.703125 160.785156 C 147.558594 160.429688 147.484375 160.058594 147.484375 159.675781 C 147.484375 159.289062 147.558594 158.921875 147.703125 158.566406 C 147.851562 158.210938 148.058594 157.898438 148.332031 157.625 C 148.605469 157.351562 148.917969 157.144531 149.273438 156.996094 C 149.628906 156.851562 149.996094 156.777344 150.382812 156.777344 C 150.765625 156.777344 151.136719 156.851562 151.492188 156.996094 C 151.847656 157.144531 152.160156 157.351562 152.429688 157.625 C 152.703125 157.898438 152.914062 158.210938 153.058594 158.566406 C 153.207031 158.921875 153.28125 159.289062 153.28125 159.675781 Z M 153.28125 159.675781 " fill-opacity="1" fill-rule="nonzero"/><path fill="#aa233b" d="M 121.175781 131.40625 L 121.3125 131.40625 C 121.308594 131.382812 121.308594 131.363281 121.308594 131.339844 C 121.308594 131.3125 121.308594 131.28125 121.3125 131.253906 L 121.175781 131.253906 C 121.175781 131.28125 121.171875 131.3125 121.171875 131.339844 C 121.171875 131.363281 121.175781 131.382812 121.175781 131.40625 Z M 121.175781 131.40625 " fill-opacity="1" fill-rule="nonzero"/><path fill="#aa233b" d="M 119.410156 155.523438 L 108.511719 155.523438 L 103.640625 147.085938 C 103.5625 147.132812 103.476562 147.171875 103.386719 147.195312 L 108.351562 155.800781 L 119.566406 155.800781 L 124.554688 147.15625 C 124.46875 147.121094 124.390625 147.078125 124.316406 147.023438 Z M 119.410156 155.523438 " fill-opacity="1" fill-rule="nonzero"/><path fill="#aa233b" d="M 108.511719 136.652344 L 113.003906 136.652344 L 113.164062 136.375 L 108.351562 136.375 L 103.386719 144.976562 C 103.476562 145.003906 103.5625 145.042969 103.640625 145.085938 Z M 108.511719 136.652344 " fill-opacity="1" fill-rule="nonzero"/><path fill="#aa233b" d="M 124.316406 145.152344 C 124.390625 145.097656 124.46875 145.050781 124.558594 145.015625 L 122.597656 141.625 L 122.441406 141.902344 Z M 124.316406 145.152344 " fill-opacity="1" fill-rule="nonzero"/><path fill="#aa233b" d="M 122.351562 141.75 L 122.511719 141.472656 L 119.566406 136.375 L 113.34375 136.375 L 113.183594 136.652344 L 119.410156 136.652344 Z M 122.351562 141.75 " fill-opacity="1" fill-rule="nonzero"/><path fill="#aa233b" d="M 116.210938 131.40625 L 121.175781 131.40625 C 121.175781 131.382812 121.171875 131.363281 121.171875 131.339844 C 121.171875 131.3125 121.175781 131.28125 121.175781 131.253906 L 116.121094 131.253906 L 113.164062 136.375 L 113.34375 136.375 Z M 116.210938 131.40625 " fill-opacity="1" fill-rule="nonzero"/><path fill="#aa233b" d="M 122.355469 142.050781 L 122.441406 141.902344 L 122.351562 141.75 L 122.265625 141.894531 L 116.210938 141.894531 L 113.183594 136.652344 L 113.007812 136.652344 L 116.121094 142.050781 Z M 122.355469 142.050781 " fill-opacity="1" fill-rule="nonzero"/><path fill="#aa233b" d="M 125.296875 136.652344 L 122.511719 141.472656 L 122.597656 141.625 L 125.472656 136.652344 L 122.9375 132.261719 C 122.894531 132.289062 122.851562 132.316406 122.804688 132.339844 Z M 125.296875 136.652344 " fill-opacity="1" fill-rule="nonzero"/><path fill="#aa233b" d="M 122.351562 141.75 L 122.441406 141.902344 L 122.597656 141.625 L 122.511719 141.472656 Z M 122.351562 141.75 " fill-opacity="1" fill-rule="nonzero"/><path fill="#aa233b" d="M 113.183594 136.652344 L 113.34375 136.375 L 113.164062 136.375 L 113.007812 136.652344 Z M 113.183594 136.652344 " fill-opacity="1" fill-rule="nonzero"/><path fill="#aa233b" d="M 122.296875 132.460938 C 122.480469 132.460938 122.652344 132.417969 122.804688 132.339844 L 122.738281 132.222656 C 122.605469 132.289062 122.453125 132.328125 122.296875 132.328125 C 121.773438 132.328125 121.347656 131.921875 121.3125 131.40625 L 121.175781 131.40625 C 121.210938 131.996094 121.699219 132.460938 122.296875 132.460938 Z M 122.296875 132.460938 " fill-opacity="1" fill-rule="nonzero"/><path fill="#aa233b" d="M 122.296875 130.351562 C 122.839844 130.351562 123.285156 130.792969 123.285156 131.339844 C 123.285156 131.671875 123.117188 131.964844 122.867188 132.140625 L 122.9375 132.257812 C 123.226562 132.058594 123.417969 131.71875 123.417969 131.339844 C 123.417969 130.71875 122.914062 130.21875 122.296875 130.21875 C 121.707031 130.21875 121.222656 130.675781 121.179688 131.253906 L 121.3125 131.253906 C 121.355469 130.75 121.78125 130.351562 122.296875 130.351562 Z M 122.296875 130.351562 " fill-opacity="1" fill-rule="nonzero"/><path fill="#aa233b" d="M 122.738281 132.222656 L 122.804688 132.339844 C 122.847656 132.316406 122.894531 132.289062 122.9375 132.257812 L 122.867188 132.140625 C 122.828125 132.171875 122.785156 132.199219 122.738281 132.222656 Z M 122.738281 132.222656 " fill-opacity="1" fill-rule="nonzero"/><path fill="#aa233b" d="M 124.039062 146.085938 C 124.039062 145.777344 124.1875 145.5 124.417969 145.328125 L 124.316406 145.152344 C 124.027344 145.363281 123.835938 145.703125 123.835938 146.089844 C 123.835938 146.472656 124.027344 146.816406 124.316406 147.023438 L 124.417969 146.851562 C 124.1875 146.671875 124.039062 146.398438 124.039062 146.085938 Z M 124.039062 146.085938 " fill-opacity="1" fill-rule="nonzero"/><path fill="#aa233b" d="M 124.992188 144.933594 C 124.835938 144.933594 124.691406 144.960938 124.558594 145.015625 L 124.660156 145.195312 C 124.761719 145.15625 124.875 145.132812 124.992188 145.132812 C 125.515625 145.132812 125.945312 145.5625 125.945312 146.089844 C 125.945312 146.613281 125.515625 147.042969 124.992188 147.042969 C 124.875 147.042969 124.761719 147.019531 124.660156 146.980469 L 124.558594 147.160156 C 124.691406 147.214844 124.835938 147.246094 124.992188 147.246094 C 125.628906 147.246094 126.148438 146.726562 126.148438 146.089844 C 126.148438 145.449219 125.628906 144.933594 124.992188 144.933594 Z M 124.992188 144.933594 " fill-opacity="1" fill-rule="nonzero"/><path fill="#aa233b" d="M 124.417969 145.328125 C 124.488281 145.269531 124.570312 145.226562 124.660156 145.195312 L 124.558594 145.015625 C 124.472656 145.050781 124.390625 145.097656 124.316406 145.148438 Z M 124.417969 145.328125 " fill-opacity="1" fill-rule="nonzero"/><path fill="#aa233b" d="M 124.417969 146.847656 L 124.316406 147.023438 C 124.390625 147.078125 124.472656 147.121094 124.558594 147.15625 L 124.660156 146.980469 C 124.570312 146.949219 124.492188 146.902344 124.417969 146.847656 Z M 124.417969 146.847656 " fill-opacity="1" fill-rule="nonzero"/><path fill="#aa233b" d="M 104.222656 146.085938 C 104.222656 145.660156 103.988281 145.285156 103.640625 145.085938 L 103.542969 145.261719 C 103.828125 145.425781 104.019531 145.734375 104.019531 146.085938 C 104.019531 146.441406 103.824219 146.746094 103.542969 146.914062 L 103.640625 147.085938 C 103.988281 146.886719 104.222656 146.515625 104.222656 146.085938 Z M 104.222656 146.085938 " fill-opacity="1" fill-rule="nonzero"/><path fill="#aa233b" d="M 103.066406 147.042969 C 102.539062 147.042969 102.109375 146.613281 102.109375 146.085938 C 102.109375 145.5625 102.539062 145.132812 103.066406 145.132812 C 103.140625 145.132812 103.214844 145.140625 103.28125 145.15625 L 103.386719 144.976562 C 103.285156 144.949219 103.175781 144.929688 103.066406 144.929688 C 102.425781 144.929688 101.910156 145.449219 101.910156 146.085938 C 101.910156 146.726562 102.425781 147.242188 103.066406 147.242188 C 103.175781 147.242188 103.285156 147.226562 103.386719 147.199219 L 103.28125 147.015625 C 103.214844 147.03125 103.140625 147.042969 103.066406 147.042969 Z M 103.066406 147.042969 " fill-opacity="1" fill-rule="nonzero"/><path fill="#aa233b" d="M 103.542969 145.261719 L 103.640625 145.085938 C 103.5625 145.042969 103.476562 145.003906 103.386719 144.976562 L 103.28125 145.160156 C 103.375 145.179688 103.460938 145.214844 103.542969 145.261719 Z M 103.542969 145.261719 " fill-opacity="1" fill-rule="nonzero"/><path fill="#aa233b" d="M 103.542969 146.914062 C 103.460938 146.960938 103.375 146.992188 103.28125 147.015625 L 103.386719 147.195312 C 103.476562 147.167969 103.5625 147.132812 103.640625 147.085938 Z M 103.542969 146.914062 " fill-opacity="1" fill-rule="nonzero"/><path fill="#aa233b" d="M 81.496094 218.355469 L 70.601562 218.355469 L 65.730469 209.917969 C 65.648438 209.964844 65.5625 210 65.472656 210.027344 L 70.441406 218.632812 L 81.65625 218.632812 L 86.644531 209.988281 C 86.558594 209.953125 86.476562 209.910156 86.402344 209.855469 Z M 81.496094 218.355469 " fill-opacity="1" fill-rule="nonzero"/><path fill="#aa233b" d="M 70.601562 199.484375 L 75.09375 199.484375 L 75.253906 199.207031 L 70.441406 199.207031 L 65.472656 207.808594 C 65.566406 207.835938 65.648438 207.871094 65.730469 207.917969 Z M 70.601562 199.484375 " fill-opacity="1" fill-rule="nonzero"/><path fill="#aa233b" d="M 86.402344 207.980469 C 86.476562 207.929688 86.558594 207.882812 86.644531 207.847656 L 84.6875 204.457031 L 84.527344 204.734375 Z M 86.402344 207.980469 " fill-opacity="1" fill-rule="nonzero"/><path fill="#aa233b" d="M 84.4375 204.578125 L 84.597656 204.304688 L 81.65625 199.207031 L 75.429688 199.207031 L 75.269531 199.484375 L 81.496094 199.484375 Z M 84.4375 204.578125 " fill-opacity="1" fill-rule="nonzero"/><path fill="#aa233b" d="M 78.296875 194.238281 L 83.261719 194.238281 C 83.261719 194.214844 83.261719 194.195312 83.261719 194.171875 C 83.261719 194.144531 83.261719 194.113281 83.265625 194.085938 L 78.210938 194.085938 L 75.253906 199.207031 L 75.429688 199.207031 Z M 78.296875 194.238281 " fill-opacity="1" fill-rule="nonzero"/><path fill="#aa233b" d="M 84.441406 204.882812 L 84.527344 204.734375 L 84.4375 204.578125 L 84.355469 204.726562 L 78.296875 204.726562 L 75.269531 199.484375 L 75.09375 199.484375 L 78.210938 204.882812 Z M 84.441406 204.882812 " fill-opacity="1" fill-rule="nonzero"/><path fill="#aa233b" d="M 87.382812 199.484375 L 84.597656 204.304688 L 84.6875 204.457031 L 87.558594 199.484375 L 85.023438 195.089844 C 84.980469 195.121094 84.9375 195.148438 84.890625 195.171875 Z M 87.382812 199.484375 " fill-opacity="1" fill-rule="nonzero"/><path fill="#aa233b" d="M 84.4375 204.578125 L 84.527344 204.734375 L 84.6875 204.457031 L 84.597656 204.304688 Z M 84.4375 204.578125 " fill-opacity="1" fill-rule="nonzero"/><path fill="#aa233b" d="M 75.269531 199.484375 L 75.429688 199.207031 L 75.253906 199.207031 L 75.09375 199.484375 Z M 75.269531 199.484375 " fill-opacity="1" fill-rule="nonzero"/><path fill="#aa233b" d="M 84.382812 195.292969 C 84.566406 195.292969 84.738281 195.25 84.890625 195.171875 L 84.824219 195.054688 C 84.691406 195.121094 84.542969 195.160156 84.382812 195.160156 C 83.863281 195.160156 83.433594 194.75 83.398438 194.238281 L 83.265625 194.238281 C 83.296875 194.824219 83.785156 195.292969 84.382812 195.292969 Z M 84.382812 195.292969 " fill-opacity="1" fill-rule="nonzero"/><path fill="#aa233b" d="M 84.382812 193.183594 C 84.929688 193.183594 85.371094 193.625 85.371094 194.171875 C 85.371094 194.503906 85.207031 194.796875 84.957031 194.972656 L 85.023438 195.089844 C 85.316406 194.890625 85.503906 194.550781 85.503906 194.171875 C 85.503906 193.550781 85 193.050781 84.382812 193.050781 C 83.792969 193.050781 83.308594 193.507812 83.265625 194.085938 L 83.402344 194.085938 C 83.441406 193.582031 83.867188 193.183594 84.382812 193.183594 Z M 84.382812 193.183594 " fill-opacity="1" fill-rule="nonzero"/><path fill="#aa233b" d="M 84.824219 195.054688 L 84.890625 195.171875 C 84.9375 195.148438 84.980469 195.121094 85.023438 195.089844 L 84.957031 194.972656 C 84.914062 195.003906 84.871094 195.03125 84.824219 195.054688 Z M 84.824219 195.054688 " fill-opacity="1" fill-rule="nonzero"/><path fill="#aa233b" d="M 86.125 208.917969 C 86.125 208.609375 86.273438 208.332031 86.503906 208.160156 L 86.402344 207.984375 C 86.113281 208.195312 85.921875 208.535156 85.921875 208.921875 C 85.921875 209.304688 86.113281 209.648438 86.402344 209.855469 L 86.503906 209.683594 C 86.273438 209.503906 86.125 209.230469 86.125 208.917969 Z M 86.125 208.917969 " fill-opacity="1" fill-rule="nonzero"/><path fill="#aa233b" d="M 87.078125 207.761719 C 86.925781 207.761719 86.777344 207.792969 86.644531 207.847656 L 86.746094 208.027344 C 86.851562 207.988281 86.960938 207.964844 87.078125 207.964844 C 87.605469 207.964844 88.03125 208.394531 88.03125 208.917969 C 88.03125 209.445312 87.605469 209.875 87.078125 209.875 C 86.960938 209.875 86.851562 209.851562 86.746094 209.8125 L 86.644531 209.988281 C 86.777344 210.046875 86.925781 210.074219 87.078125 210.074219 C 87.714844 210.074219 88.234375 209.558594 88.234375 208.917969 C 88.234375 208.28125 87.714844 207.761719 87.078125 207.761719 Z M 87.078125 207.761719 " fill-opacity="1" fill-rule="nonzero"/><path fill="#aa233b" d="M 86.503906 208.160156 C 86.578125 208.101562 86.660156 208.058594 86.746094 208.027344 L 86.644531 207.847656 C 86.558594 207.882812 86.476562 207.929688 86.402344 207.980469 Z M 86.503906 208.160156 " fill-opacity="1" fill-rule="nonzero"/><path fill="#aa233b" d="M 86.503906 209.679688 L 86.402344 209.855469 C 86.476562 209.910156 86.558594 209.953125 86.644531 209.988281 L 86.746094 209.8125 C 86.660156 209.78125 86.578125 209.734375 86.503906 209.679688 Z M 86.503906 209.679688 " fill-opacity="1" fill-rule="nonzero"/><path fill="#aa233b" d="M 66.308594 208.917969 C 66.308594 208.492188 66.074219 208.117188 65.730469 207.917969 L 65.628906 208.09375 C 65.914062 208.257812 66.105469 208.566406 66.105469 208.917969 C 66.105469 209.273438 65.914062 209.578125 65.628906 209.746094 L 65.730469 209.917969 C 66.074219 209.71875 66.308594 209.347656 66.308594 208.917969 Z M 66.308594 208.917969 " fill-opacity="1" fill-rule="nonzero"/><path fill="#aa233b" d="M 65.152344 209.875 C 64.625 209.875 64.199219 209.445312 64.199219 208.917969 C 64.199219 208.394531 64.625 207.964844 65.152344 207.964844 C 65.226562 207.964844 65.300781 207.972656 65.371094 207.988281 L 65.472656 207.808594 C 65.371094 207.78125 65.265625 207.761719 65.152344 207.761719 C 64.515625 207.761719 63.996094 208.28125 63.996094 208.917969 C 63.996094 209.558594 64.515625 210.074219 65.152344 210.074219 C 65.265625 210.074219 65.371094 210.058594 65.472656 210.03125 L 65.371094 209.847656 C 65.300781 209.863281 65.226562 209.875 65.152344 209.875 Z M 65.152344 209.875 " fill-opacity="1" fill-rule="nonzero"/><path fill="#aa233b" d="M 65.628906 208.09375 L 65.730469 207.917969 C 65.648438 207.875 65.5625 207.835938 65.472656 207.808594 L 65.371094 207.992188 C 65.460938 208.011719 65.550781 208.046875 65.628906 208.09375 Z M 65.628906 208.09375 " fill-opacity="1" fill-rule="nonzero"/><path fill="#aa233b" d="M 65.628906 209.746094 C 65.550781 209.792969 65.460938 209.824219 65.371094 209.847656 L 65.472656 210.027344 C 65.566406 210 65.648438 209.964844 65.730469 209.917969 Z M 65.628906 209.746094 " fill-opacity="1" fill-rule="nonzero"/><path fill="#aa233b" d="M 106.945312 113.90625 C 106.75 113.90625 106.566406 113.839844 106.421875 113.726562 L 106.21875 114.078125 C 106.371094 114.183594 106.546875 114.257812 106.734375 114.292969 L 106.957031 113.90625 C 106.953125 113.90625 106.949219 113.90625 106.945312 113.90625 Z M 106.945312 113.90625 " fill-opacity="1" fill-rule="nonzero"/><path fill="#aa233b" d="M 106.421875 112.378906 C 106.566406 112.269531 106.75 112.199219 106.945312 112.199219 C 106.949219 112.199219 106.953125 112.199219 106.957031 112.199219 L 106.734375 111.816406 C 106.542969 111.847656 106.371094 111.921875 106.21875 112.03125 Z M 106.421875 112.378906 " fill-opacity="1" fill-rule="nonzero"/><path fill="#aa233b" d="M 75.292969 94.179688 L 95.914062 94.179688 L 106.21875 112.03125 C 106.371094 111.921875 106.542969 111.847656 106.734375 111.816406 L 96.234375 93.628906 L 75.320312 93.628906 C 75.332031 93.699219 75.339844 93.773438 75.339844 93.847656 C 75.339844 93.960938 75.320312 94.074219 75.292969 94.179688 Z M 75.292969 94.179688 " fill-opacity="1" fill-rule="nonzero"/><path fill="#aa233b" d="M 95.914062 131.925781 L 74.125 131.925781 L 63.226562 113.054688 L 73.640625 95.019531 C 73.464844 94.953125 73.308594 94.851562 73.179688 94.71875 L 62.589844 113.054688 L 73.804688 132.476562 L 96.234375 132.476562 L 106.730469 114.292969 C 106.542969 114.261719 106.371094 114.1875 106.21875 114.078125 Z M 95.914062 131.925781 " fill-opacity="1" fill-rule="nonzero"/><path fill="#aa233b" d="M 106.09375 113.054688 C 106.09375 112.78125 106.222656 112.535156 106.421875 112.378906 L 106.21875 112.027344 C 105.898438 112.257812 105.6875 112.628906 105.6875 113.054688 C 105.6875 113.476562 105.898438 113.847656 106.21875 114.078125 L 106.421875 113.726562 C 106.222656 113.570312 106.09375 113.328125 106.09375 113.054688 Z M 106.09375 113.054688 " fill-opacity="1" fill-rule="nonzero"/><path fill="#aa233b" d="M 106.945312 111.796875 C 106.875 111.796875 106.804688 111.804688 106.734375 111.816406 L 106.957031 112.199219 C 107.421875 112.207031 107.800781 112.585938 107.800781 113.054688 C 107.800781 113.523438 107.421875 113.902344 106.957031 113.90625 L 106.734375 114.292969 C 106.800781 114.304688 106.875 114.3125 106.945312 114.3125 C 107.640625 114.3125 108.203125 113.746094 108.203125 113.054688 C 108.203125 112.359375 107.640625 111.796875 106.945312 111.796875 Z M 106.945312 111.796875 " fill-opacity="1" fill-rule="nonzero"/><path fill="#aa233b" d="M 75.292969 94.179688 L 74.867188 94.179688 C 74.734375 94.484375 74.433594 94.699219 74.082031 94.699219 C 74 94.699219 73.921875 94.6875 73.84375 94.664062 L 73.640625 95.019531 C 73.777344 95.070312 73.925781 95.101562 74.082031 95.101562 C 74.660156 95.101562 75.144531 94.710938 75.292969 94.179688 Z M 75.292969 94.179688 " fill-opacity="1" fill-rule="nonzero"/><path fill="#aa233b" d="M 73.230469 93.84375 C 73.230469 93.375 73.613281 92.992188 74.082031 92.992188 C 74.480469 92.992188 74.8125 93.261719 74.90625 93.628906 L 75.320312 93.628906 C 75.21875 93.039062 74.703125 92.589844 74.082031 92.589844 C 73.390625 92.589844 72.824219 93.152344 72.824219 93.84375 C 72.824219 94.183594 72.960938 94.492188 73.179688 94.71875 L 73.390625 94.347656 C 73.289062 94.207031 73.230469 94.03125 73.230469 93.84375 Z M 73.230469 93.84375 " fill-opacity="1" fill-rule="nonzero"/><path fill="#aa233b" d="M 73.640625 95.019531 L 73.84375 94.664062 C 73.660156 94.613281 73.503906 94.496094 73.390625 94.347656 L 73.179688 94.71875 C 73.308594 94.851562 73.464844 94.953125 73.640625 95.019531 Z M 73.640625 95.019531 " fill-opacity="1" fill-rule="nonzero"/><path fill="#aa233b" d="M 74.933594 93.84375 C 74.933594 93.964844 74.910156 94.078125 74.867188 94.179688 L 75.292969 94.179688 C 75.320312 94.074219 75.339844 93.960938 75.339844 93.84375 C 75.339844 93.769531 75.332031 93.699219 75.320312 93.628906 L 74.90625 93.628906 C 74.925781 93.699219 74.933594 93.769531 74.933594 93.84375 Z M 74.933594 93.84375 " fill-opacity="1" fill-rule="nonzero"/><path fill="#aa233b" d="M 44.351562 155.851562 C 44.152344 155.851562 43.972656 155.785156 43.828125 155.671875 L 43.625 156.023438 C 43.773438 156.128906 43.949219 156.203125 44.136719 156.238281 L 44.359375 155.851562 C 44.355469 155.851562 44.355469 155.851562 44.351562 155.851562 Z M 44.351562 155.851562 " fill-opacity="1" fill-rule="nonzero"/><path fill="#aa233b" d="M 43.828125 154.324219 C 43.972656 154.214844 44.152344 154.144531 44.351562 154.144531 C 44.351562 154.144531 44.355469 154.144531 44.359375 154.144531 L 44.136719 153.761719 C 43.949219 153.792969 43.773438 153.867188 43.625 153.972656 Z M 43.828125 154.324219 " fill-opacity="1" fill-rule="nonzero"/><path fill="#aa233b" d="M 12.695312 136.128906 L 33.320312 136.128906 L 43.625 153.976562 C 43.773438 153.867188 43.949219 153.792969 44.136719 153.761719 L 33.636719 135.574219 L 12.722656 135.574219 C 12.734375 135.644531 12.742188 135.71875 12.742188 135.792969 C 12.742188 135.90625 12.726562 136.019531 12.695312 136.128906 Z M 12.695312 136.128906 " fill-opacity="1" fill-rule="nonzero"/><path fill="#aa233b" d="M 33.320312 173.871094 L 11.527344 173.871094 L 0.632812 155 L 11.042969 136.96875 C 10.867188 136.898438 10.710938 136.796875 10.582031 136.664062 L -0.00390625 155 L 11.210938 174.425781 L 33.636719 174.425781 L 44.136719 156.238281 C 43.949219 156.207031 43.773438 156.132812 43.625 156.027344 Z M 33.320312 173.871094 " fill-opacity="1" fill-rule="nonzero"/><path fill="#aa233b" d="M 43.496094 155 C 43.496094 154.726562 43.625 154.480469 43.828125 154.324219 L 43.625 153.972656 C 43.304688 154.203125 43.09375 154.574219 43.09375 155 C 43.09375 155.421875 43.304688 155.796875 43.625 156.023438 L 43.828125 155.671875 C 43.625 155.515625 43.496094 155.273438 43.496094 155 Z M 43.496094 155 " fill-opacity="1" fill-rule="nonzero"/><path fill="#aa233b" d="M 44.351562 153.742188 C 44.277344 153.742188 44.207031 153.75 44.136719 153.761719 L 44.359375 154.148438 C 44.828125 154.152344 45.203125 154.53125 45.203125 155 C 45.203125 155.46875 44.824219 155.847656 44.359375 155.851562 L 44.136719 156.238281 C 44.207031 156.25 44.277344 156.257812 44.351562 156.257812 C 45.042969 156.257812 45.605469 155.695312 45.605469 155 C 45.605469 154.304688 45.042969 153.742188 44.351562 153.742188 Z M 44.351562 153.742188 " fill-opacity="1" fill-rule="nonzero"/><path fill="#aa233b" d="M 12.695312 136.128906 L 12.269531 136.128906 C 12.140625 136.429688 11.835938 136.644531 11.488281 136.644531 C 11.402344 136.644531 11.324219 136.632812 11.25 136.609375 L 11.042969 136.964844 C 11.179688 137.019531 11.328125 137.046875 11.484375 137.046875 C 12.0625 137.046875 12.550781 136.65625 12.695312 136.128906 Z M 12.695312 136.128906 " fill-opacity="1" fill-rule="nonzero"/><path fill="#aa233b" d="M 10.632812 135.789062 C 10.632812 135.320312 11.015625 134.9375 11.488281 134.9375 C 11.882812 134.9375 12.214844 135.210938 12.3125 135.574219 L 12.722656 135.574219 C 12.621094 134.984375 12.105469 134.535156 11.488281 134.535156 C 10.792969 134.535156 10.230469 135.097656 10.230469 135.789062 C 10.230469 136.128906 10.363281 136.4375 10.582031 136.664062 L 10.796875 136.292969 C 10.695312 136.152344 10.632812 135.976562 10.632812 135.789062 Z M 10.632812 135.789062 " fill-opacity="1" fill-rule="nonzero"/><path fill="#aa233b" d="M 11.042969 136.964844 L 11.25 136.609375 C 11.066406 136.558594 10.90625 136.441406 10.796875 136.292969 L 10.582031 136.664062 C 10.710938 136.796875 10.867188 136.898438 11.042969 136.964844 Z M 11.042969 136.964844 " fill-opacity="1" fill-rule="nonzero"/><path fill="#aa233b" d="M 12.339844 135.789062 C 12.339844 135.910156 12.316406 136.023438 12.269531 136.128906 L 12.695312 136.128906 C 12.726562 136.019531 12.742188 135.90625 12.742188 135.789062 C 12.742188 135.71875 12.734375 135.644531 12.722656 135.574219 L 12.3125 135.574219 C 12.328125 135.644531 12.339844 135.71875 12.339844 135.789062 Z M 12.339844 135.789062 " fill-opacity="1" fill-rule="nonzero"/><path fill="#aa233b" d="M 60.859375 24.011719 L 71.234375 41.984375 L 60.339844 60.855469 L 38.546875 60.855469 L 27.652344 41.984375 L 38.546875 23.113281 L 59.210938 23.113281 C 59.191406 23.019531 59.175781 22.925781 59.175781 22.828125 C 59.175781 22.738281 59.1875 22.648438 59.207031 22.5625 L 38.230469 22.5625 L 27.015625 41.984375 L 38.230469 61.40625 L 60.65625 61.40625 L 71.871094 41.984375 L 61.324219 23.714844 C 61.195312 23.847656 61.035156 23.945312 60.859375 24.011719 Z M 60.859375 24.011719 " fill-opacity="1" fill-rule="nonzero"/><path fill="#aa233b" d="M 94.863281 38.511719 L 74.125 38.511719 L 63.773438 20.585938 C 63.636719 20.707031 63.472656 20.796875 63.289062 20.847656 L 73.808594 39.0625 L 94.890625 39.0625 C 94.863281 38.957031 94.84375 38.847656 94.84375 38.734375 C 94.84375 38.65625 94.851562 38.582031 94.863281 38.511719 Z M 94.863281 38.511719 " fill-opacity="1" fill-rule="nonzero"/><path fill="#aa233b" d="M 96.480469 37.53125 C 96.660156 37.589844 96.820312 37.6875 96.957031 37.8125 L 106.722656 20.890625 C 106.527344 20.878906 106.34375 20.820312 106.183594 20.726562 Z M 96.480469 37.53125 " fill-opacity="1" fill-rule="nonzero"/><g clip-path="url(#3706e326c5)"><path fill="#aa233b" d="M 74.125 0.765625 L 95.914062 0.765625 L 106.183594 18.550781 C 106.34375 18.457031 106.527344 18.402344 106.722656 18.386719 L 96.234375 0.214844 L 73.804688 0.214844 L 63.289062 18.429688 C 63.46875 18.480469 63.636719 18.574219 63.773438 18.695312 Z M 74.125 0.765625 " fill-opacity="1" fill-rule="nonzero"/></g><path fill="#aa233b" d="M 60.433594 21.976562 C 60.90625 21.976562 61.289062 22.359375 61.289062 22.828125 C 61.289062 23.023438 61.222656 23.203125 61.113281 23.347656 L 61.324219 23.714844 C 61.550781 23.488281 61.691406 23.175781 61.691406 22.828125 C 61.691406 22.136719 61.125 21.574219 60.433594 21.574219 C 59.832031 21.574219 59.332031 21.996094 59.207031 22.5625 L 59.625 22.5625 C 59.738281 22.222656 60.058594 21.976562 60.433594 21.976562 Z M 60.433594 21.976562 " fill-opacity="1" fill-rule="nonzero"/><path fill="#aa233b" d="M 60.433594 23.683594 C 60.0625 23.683594 59.746094 23.445312 59.628906 23.113281 L 59.210938 23.113281 C 59.339844 23.667969 59.839844 24.085938 60.433594 24.085938 C 60.585938 24.085938 60.726562 24.058594 60.859375 24.011719 L 60.652344 23.652344 C 60.582031 23.671875 60.511719 23.683594 60.433594 23.683594 Z M 60.433594 23.683594 " fill-opacity="1" fill-rule="nonzero"/><path fill="#aa233b" d="M 59.210938 23.113281 L 59.628906 23.113281 C 59.597656 23.023438 59.582031 22.929688 59.582031 22.828125 C 59.582031 22.734375 59.597656 22.644531 59.625 22.5625 L 59.207031 22.5625 C 59.1875 22.648438 59.175781 22.738281 59.175781 22.828125 C 59.179688 22.925781 59.191406 23.019531 59.210938 23.113281 Z M 59.210938 23.113281 " fill-opacity="1" fill-rule="nonzero"/><path fill="#aa233b" d="M 60.652344 23.652344 L 60.859375 24.011719 C 61.035156 23.945312 61.195312 23.84375 61.324219 23.714844 L 61.113281 23.347656 C 61 23.496094 60.839844 23.605469 60.652344 23.652344 Z M 60.652344 23.652344 " fill-opacity="1" fill-rule="nonzero"/><path fill="#aa233b" d="M 62.949219 20.492188 C 62.476562 20.492188 62.09375 20.109375 62.09375 19.640625 C 62.09375 19.167969 62.476562 18.785156 62.949219 18.785156 C 62.992188 18.785156 63.035156 18.789062 63.078125 18.796875 L 63.289062 18.429688 C 63.179688 18.398438 63.066406 18.382812 62.949219 18.382812 C 62.253906 18.382812 61.691406 18.945312 61.691406 19.640625 C 61.691406 20.332031 62.253906 20.894531 62.949219 20.894531 C 63.066406 20.894531 63.179688 20.878906 63.289062 20.847656 L 63.078125 20.480469 C 63.035156 20.488281 62.992188 20.492188 62.949219 20.492188 Z M 62.949219 20.492188 " fill-opacity="1" fill-rule="nonzero"/><path fill="#aa233b" d="M 64.203125 19.640625 C 64.203125 19.261719 64.039062 18.925781 63.773438 18.695312 L 63.566406 19.054688 C 63.710938 19.207031 63.800781 19.414062 63.800781 19.640625 C 63.800781 19.867188 63.710938 20.074219 63.566406 20.226562 L 63.773438 20.585938 C 64.039062 20.351562 64.203125 20.015625 64.203125 19.640625 Z M 64.203125 19.640625 " fill-opacity="1" fill-rule="nonzero"/><path fill="#aa233b" d="M 63.566406 20.226562 C 63.4375 20.359375 63.269531 20.453125 63.078125 20.480469 L 63.289062 20.847656 C 63.46875 20.796875 63.636719 20.703125 63.773438 20.582031 Z M 63.566406 20.226562 " fill-opacity="1" fill-rule="nonzero"/><path fill="#aa233b" d="M 63.566406 19.050781 L 63.773438 18.691406 C 63.636719 18.570312 63.472656 18.480469 63.289062 18.429688 L 63.078125 18.796875 C 63.269531 18.824219 63.4375 18.917969 63.566406 19.050781 Z M 63.566406 19.050781 " fill-opacity="1" fill-rule="nonzero"/><path fill="#aa233b" d="M 94.863281 38.511719 L 95.277344 38.511719 C 95.375 38.148438 95.707031 37.878906 96.101562 37.878906 C 96.160156 37.878906 96.214844 37.882812 96.273438 37.894531 L 96.480469 37.53125 C 96.359375 37.492188 96.234375 37.472656 96.101562 37.472656 C 95.484375 37.472656 94.96875 37.921875 94.863281 38.511719 Z M 94.863281 38.511719 " fill-opacity="1" fill-rule="nonzero"/><path fill="#aa233b" d="M 96.953125 38.730469 C 96.953125 39.203125 96.570312 39.585938 96.101562 39.585938 C 95.746094 39.585938 95.445312 39.367188 95.316406 39.0625 L 94.890625 39.0625 C 95.035156 39.59375 95.523438 39.988281 96.101562 39.988281 C 96.796875 39.988281 97.359375 39.421875 97.359375 38.730469 C 97.359375 38.367188 97.203125 38.042969 96.957031 37.8125 L 96.746094 38.171875 C 96.875 38.324219 96.953125 38.519531 96.953125 38.730469 Z M 96.953125 38.730469 " fill-opacity="1" fill-rule="nonzero"/><path fill="#aa233b" d="M 96.273438 37.894531 C 96.460938 37.933594 96.625 38.035156 96.746094 38.175781 L 96.957031 37.8125 C 96.820312 37.6875 96.660156 37.589844 96.480469 37.53125 Z M 96.273438 37.894531 " fill-opacity="1" fill-rule="nonzero"/><path fill="#aa233b" d="M 95.246094 38.730469 C 95.246094 38.65625 95.257812 38.582031 95.277344 38.511719 L 94.863281 38.511719 C 94.851562 38.582031 94.84375 38.65625 94.84375 38.730469 C 94.84375 38.847656 94.859375 38.957031 94.890625 39.0625 L 95.3125 39.0625 C 95.273438 38.960938 95.246094 38.847656 95.246094 38.730469 Z M 95.246094 38.730469 " fill-opacity="1" fill-rule="nonzero"/><path fill="#aa233b" d="M 106.8125 18.382812 C 106.78125 18.382812 106.753906 18.382812 106.722656 18.386719 L 106.960938 18.800781 C 107.359375 18.871094 107.664062 19.21875 107.664062 19.640625 C 107.664062 20.058594 107.359375 20.40625 106.960938 20.476562 L 106.722656 20.890625 C 106.753906 20.894531 106.78125 20.894531 106.8125 20.894531 C 107.503906 20.894531 108.066406 20.332031 108.066406 19.640625 C 108.066406 18.945312 107.503906 18.382812 106.8125 18.382812 Z M 106.8125 18.382812 " fill-opacity="1" fill-rule="nonzero"/><path fill="#aa233b" d="M 105.957031 19.640625 C 105.957031 19.324219 106.128906 19.046875 106.386719 18.902344 L 106.183594 18.550781 C 105.808594 18.769531 105.554688 19.175781 105.554688 19.640625 C 105.554688 20.101562 105.808594 20.507812 106.183594 20.726562 L 106.386719 20.375 C 106.128906 20.230469 105.957031 19.953125 105.957031 19.640625 Z M 105.957031 19.640625 " fill-opacity="1" fill-rule="nonzero"/><path fill="#aa233b" d="M 106.386719 18.902344 C 106.511719 18.828125 106.65625 18.785156 106.8125 18.785156 C 106.863281 18.785156 106.914062 18.789062 106.964844 18.800781 L 106.726562 18.386719 C 106.53125 18.402344 106.34375 18.457031 106.183594 18.550781 Z M 106.386719 18.902344 " fill-opacity="1" fill-rule="nonzero"/><path fill="#aa233b" d="M 106.8125 20.492188 C 106.65625 20.492188 106.511719 20.449219 106.386719 20.375 L 106.183594 20.726562 C 106.34375 20.820312 106.527344 20.878906 106.722656 20.890625 L 106.960938 20.476562 C 106.914062 20.488281 106.863281 20.492188 106.8125 20.492188 Z M 106.8125 20.492188 " fill-opacity="1" fill-rule="nonzero"/></svg>