<svg xmlns="http://www.w3.org/2000/svg" xmlns:xlink="http://www.w3.org/1999/xlink" width="308" zoomAndPan="magnify" viewBox="0 0 230.87999 213" height="284" preserveAspectRatio="xMidYMid meet" version="1.0"><defs><filter x="0%" y="0%" width="100%" height="100%" id="be895e3e91"><feColorMatrix values="0 0 0 0 1 0 0 0 0 1 0 0 0 0 1 0 0 0 1 0" color-interpolation-filters="sRGB"/></filter><clipPath id="84f2e5d58c"><path d="M 0 0.0546875 L 230.128906 0.0546875 L 230.128906 212.195312 L 0 212.195312 Z M 0 0.0546875 " clip-rule="nonzero"/></clipPath><mask id="b3537b8ac3"><g filter="url(#be895e3e91)"><rect x="-23.087999" width="277.055988" fill="#000000" y="-21.3" height="255.6" fill-opacity="0.31"/></g></mask><clipPath id="5f1abaa10c"><path d="M 125 0.0546875 L 153 0.0546875 L 153 20 L 125 20 Z M 125 0.0546875 " clip-rule="nonzero"/></clipPath><clipPath id="fb3a12b352"><path d="M 126 51 L 230.128906 51 L 230.128906 212.105469 L 126 212.105469 Z M 126 51 " clip-rule="nonzero"/></clipPath><clipPath id="e93db54671"><path d="M 0 0.0546875 L 188 0.0546875 L 188 113 L 0 113 Z M 0 0.0546875 " clip-rule="nonzero"/></clipPath><clipPath id="4b186ae6c3"><rect x="0" width="231" y="0" height="213"/></clipPath><clipPath id="5e1321d851"><path d="M 0 0.0546875 L 230.128906 0.0546875 L 230.128906 212.195312 L 0 212.195312 Z M 0 0.0546875 " clip-rule="nonzero"/></clipPath><mask id="fc2c89adfa"><g filter="url(#be895e3e91)"><rect x="-23.087999" width="277.055988" fill="#000000" y="-21.3" height="255.6" fill-opacity="0.31"/></g></mask><clipPath id="e5bbb59dc7"><path d="M 125 0.0546875 L 153 0.0546875 L 153 20 L 125 20 Z M 125 0.0546875 " clip-rule="nonzero"/></clipPath><clipPath id="6318132b24"><path d="M 126 51 L 230.128906 51 L 230.128906 212.105469 L 126 212.105469 Z M 126 51 " clip-rule="nonzero"/></clipPath><clipPath id="3d5a237057"><path d="M 0 0.0546875 L 188 0.0546875 L 188 113 L 0 113 Z M 0 0.0546875 " clip-rule="nonzero"/></clipPath><clipPath id="9a2dd80a1d"><rect x="0" width="231" y="0" height="213"/></clipPath></defs><g clip-path="url(#84f2e5d58c)"><g mask="url(#b3537b8ac3)"><g transform="matrix(1, 0, 0, 1, 0, 0.000000000000033147)"><g clip-path="url(#4b186ae6c3)"><path fill="#aa233b" d="M 124.703125 156.742188 L 98.304688 149.667969 L 78.976562 168.996094 L 86.050781 195.394531 L 112.449219 202.46875 L 131.777344 183.140625 Z M 112.128906 201.273438 L 86.929688 194.519531 L 80.175781 169.316406 L 98.625 150.867188 L 123.828125 157.621094 L 130.578125 182.820312 Z M 112.128906 201.273438 " fill-opacity="1" fill-rule="nonzero"/><g clip-path="url(#5f1abaa10c)"><path fill="#aa233b" d="M 150.316406 0.148438 L 149.203125 0.148438 L 151.621094 9.167969 L 142.5 18.292969 L 130.027344 14.964844 L 126.6875 2.511719 L 129.039062 0.148438 L 127.519531 0.148438 L 125.496094 2.171875 L 129.148438 15.832031 L 142.808594 19.480469 L 152.8125 9.480469 Z M 150.316406 0.148438 " fill-opacity="1" fill-rule="nonzero"/></g><g clip-path="url(#fb3a12b352)"><path fill="#aa233b" d="M 212 131.464844 L 200.148438 98.621094 L 209.699219 89.078125 L 206.199219 76.015625 L 217.117188 65.097656 L 224.464844 67.0625 L 230.28125 61.246094 L 228.152344 53.300781 L 220.207031 51.171875 L 214.390625 56.988281 L 216.355469 64.335938 L 205.4375 75.253906 L 192.371094 71.757812 L 182.367188 81.75 L 185.867188 94.816406 L 171.433594 109.246094 L 145.636719 102.332031 L 126.308594 121.660156 L 133.382812 148.058594 L 159.78125 155.132812 L 179.109375 135.804688 L 172.199219 110.003906 L 186.628906 95.574219 L 199.117188 98.929688 L 210.972656 131.777344 L 201.429688 141.316406 L 204.929688 154.378906 L 175.820312 183.488281 L 162.757812 179.988281 L 152.757812 189.984375 L 156.40625 203.644531 L 170.070312 207.304688 L 179.644531 197.734375 L 201.207031 202.632812 L 203.171875 209.964844 L 211.117188 212.09375 L 216.933594 206.277344 L 214.804688 198.332031 L 206.859375 196.203125 L 201.472656 201.589844 L 179.90625 196.695312 L 176.570312 184.238281 L 205.679688 155.128906 L 218.742188 158.628906 L 228.742188 148.628906 L 225.09375 134.964844 Z M 215.582031 57.308594 L 220.519531 52.371094 L 227.269531 54.179688 L 229.078125 60.925781 L 224.136719 65.863281 L 217.390625 64.058594 Z M 177.917969 135.492188 L 159.46875 153.941406 L 134.265625 147.1875 L 127.511719 121.984375 L 145.960938 103.535156 L 171.164062 110.289062 Z M 186.910156 94.542969 L 183.570312 82.085938 L 192.6875 72.945312 L 205.144531 76.285156 L 208.484375 88.753906 L 199.359375 97.875 Z M 207.195312 197.40625 L 213.945312 199.210938 L 215.753906 205.960938 L 210.8125 210.898438 L 204.058594 209.09375 L 202.25 202.347656 Z M 178.890625 196.988281 L 169.753906 206.113281 L 157.300781 202.773438 L 153.960938 190.316406 L 163.078125 181.179688 L 175.53125 184.519531 Z M 218.4375 157.4375 L 205.984375 154.097656 L 202.640625 141.644531 L 211.765625 132.519531 L 224.222656 135.859375 L 227.5625 148.3125 Z M 218.4375 157.4375 " fill-opacity="1" fill-rule="nonzero"/></g><g clip-path="url(#e93db54671)"><path fill="#aa233b" d="M 185.203125 51 L 177.257812 48.871094 L 171.867188 54.265625 L 156.566406 51.042969 L 153.074219 38 L 139.414062 34.347656 L 129.859375 43.902344 L 107.996094 37.027344 L 101.078125 11.195312 L 75.234375 4.273438 L 73.550781 0.148438 L 72.386719 0.148438 L 74.210938 4.597656 L 55.355469 23.449219 L 62.269531 49.25 L 45.125 66.390625 L 19.328125 59.476562 L 0 78.804688 L 7.085938 105.207031 L 33.484375 112.28125 L 52.8125 92.953125 L 45.882812 67.148438 L 63.027344 50.007812 L 88.285156 56.777344 L 99.652344 81.347656 L 94.316406 86.679688 L 96.449219 94.625 L 104.394531 96.753906 L 110.210938 90.9375 L 108.082031 82.992188 L 100.679688 81.007812 L 89.3125 56.4375 L 107.695312 38.046875 L 129.558594 44.917969 L 133.0625 57.996094 L 146.722656 61.648438 L 156.300781 52.070312 L 171.597656 55.292969 L 173.5625 62.621094 L 181.507812 64.75 L 187.320312 58.933594 Z M 51.601562 92.628906 L 33.148438 111.078125 L 7.949219 104.324219 L 1.195312 79.125 L 19.648438 60.675781 L 44.851562 67.429688 Z M 107.203125 83.867188 L 109.011719 90.617188 L 104.070312 95.554688 L 97.324219 93.746094 L 95.515625 87 L 100.457031 82.0625 Z M 88.503906 55.734375 L 63.304688 48.980469 L 56.550781 23.769531 L 75 5.320312 L 100.203125 12.074219 L 106.953125 37.277344 Z M 146.414062 60.472656 L 133.957031 57.132812 L 130.617188 44.667969 L 139.742188 35.542969 L 152.195312 38.882812 L 155.535156 51.339844 Z M 181.203125 63.574219 L 174.453125 61.765625 L 172.644531 55.019531 L 177.585938 50.082031 L 184.335938 51.890625 L 186.140625 58.640625 Z M 33.054688 19.085938 L 43.054688 9.085938 L 40.664062 0.148438 L 39.550781 0.148438 L 41.859375 8.765625 L 32.734375 17.890625 L 20.28125 14.550781 L 16.929688 2.082031 L 18.863281 0.148438 L 17.34375 0.148438 L 15.730469 1.761719 L 19.378906 15.425781 Z M 33.054688 19.085938 " fill-opacity="1" fill-rule="nonzero"/></g></g></g></g></g><path fill="#aa233b" d="M 58.285156 52.117188 L 44.625 48.457031 L 34.625 58.457031 L 38.273438 72.117188 L 51.9375 75.769531 L 61.953125 65.769531 Z M 51.628906 74.582031 L 39.171875 71.242188 L 35.835938 58.785156 L 44.960938 49.664062 L 57.414062 53 L 60.753906 65.457031 Z M 51.628906 74.582031 " fill-opacity="1" fill-rule="nonzero"/><path fill="#aa233b" d="M 164.757812 158.121094 L 154.753906 168.125 L 158.40625 181.785156 L 172.066406 185.4375 L 182.066406 175.4375 L 178.417969 161.773438 Z M 171.757812 184.25 L 159.300781 180.90625 L 155.960938 168.453125 L 165.085938 159.328125 L 177.542969 162.667969 L 180.882812 175.121094 Z M 171.757812 184.25 " fill-opacity="1" fill-rule="nonzero"/><path fill="#aa233b" d="M 174.363281 129.65625 L 172.234375 121.710938 L 164.289062 119.582031 L 158.472656 125.398438 L 160.601562 133.34375 L 168.546875 135.472656 Z M 161.480469 132.464844 L 159.664062 125.71875 L 164.601562 120.78125 L 171.347656 122.585938 L 173.15625 129.335938 L 168.21875 134.273438 Z M 161.480469 132.464844 " fill-opacity="1" fill-rule="nonzero"/><path fill="#aa233b" d="M 53.730469 26.472656 L 59.546875 20.65625 L 57.417969 12.710938 L 49.472656 10.582031 L 43.65625 16.398438 L 45.785156 24.34375 Z M 49.792969 11.777344 L 56.539062 13.585938 L 58.347656 20.335938 L 53.410156 25.273438 L 46.660156 23.464844 L 44.855469 16.71875 Z M 49.792969 11.777344 " fill-opacity="1" fill-rule="nonzero"/><path fill="#aa233b" d="M 207.550781 27.03125 L 213.367188 21.214844 L 211.238281 13.269531 L 203.292969 11.140625 L 197.480469 16.957031 L 199.609375 24.902344 Z M 203.613281 12.335938 L 210.363281 14.144531 L 212.171875 20.894531 L 207.230469 25.835938 L 200.480469 24.027344 L 198.671875 17.277344 Z M 203.613281 12.335938 " fill-opacity="1" fill-rule="nonzero"/><path fill="#aa233b" d="M 201.371094 173.234375 L 195.558594 179.046875 L 197.6875 186.992188 L 205.632812 189.125 L 211.449219 183.308594 L 209.316406 175.359375 Z M 205.3125 187.925781 L 198.5625 186.117188 L 196.753906 179.371094 L 201.691406 174.429688 L 208.441406 176.238281 L 210.25 182.988281 Z M 205.3125 187.925781 " fill-opacity="1" fill-rule="nonzero"/><path fill="#aa233b" d="M 203.296875 119.582031 L 197.480469 125.398438 L 199.609375 133.34375 L 207.554688 135.472656 L 213.371094 129.65625 L 211.242188 121.710938 Z M 207.234375 134.273438 L 200.484375 132.464844 L 198.675781 125.71875 L 203.617188 120.78125 L 210.363281 122.585938 L 212.171875 129.335938 Z M 207.234375 134.273438 " fill-opacity="1" fill-rule="nonzero"/><path fill="#aa233b" d="M 173.261719 53.25 L 181.480469 45.03125 L 178.472656 33.804688 L 167.246094 30.800781 L 159.019531 39.015625 L 162.023438 50.242188 Z M 167.566406 31.988281 L 177.59375 34.675781 L 180.277344 44.710938 L 172.9375 52.050781 L 162.910156 49.363281 L 160.222656 39.335938 Z M 167.566406 31.988281 " fill-opacity="1" fill-rule="nonzero"/><path fill="#aa233b" d="M 198.164062 88.3125 L 204.738281 90.074219 L 209.550781 85.261719 L 207.792969 78.683594 L 201.214844 76.921875 L 196.828125 81.320312 L 184.496094 78.722656 L 181.65625 68.117188 L 170.429688 65.109375 L 162.667969 72.867188 L 144.992188 67.308594 L 139.367188 46.304688 L 118.335938 40.671875 L 111.914062 24.996094 L 119.65625 17.25 L 116.652344 6.023438 L 105.425781 3.019531 L 97.207031 11.234375 L 100.054688 21.863281 L 88.582031 33.316406 L 77.957031 30.46875 L 69.738281 38.683594 L 72.746094 49.910156 L 83.96875 52.917969 L 92.1875 44.703125 L 89.34375 34.078125 L 100.808594 22.613281 L 110.878906 25.316406 L 117.300781 40.992188 L 101.96875 56.320312 L 107.59375 77.308594 L 93.734375 91.175781 L 72.746094 85.550781 L 56.945312 101.355469 L 62.730469 122.941406 L 84.316406 128.726562 L 100.117188 112.921875 L 94.496094 91.933594 L 108.355469 78.074219 L 128.800781 83.550781 L 137.992188 103.441406 L 133.664062 107.769531 L 135.425781 114.34375 L 142.003906 116.105469 L 146.816406 111.292969 L 145.058594 104.707031 L 139.027344 103.089844 L 129.832031 83.210938 L 144.699219 68.34375 L 162.375 73.902344 L 165.21875 84.542969 L 176.445312 87.550781 L 184.238281 79.757812 L 196.570312 82.355469 Z M 201.535156 78.121094 L 206.90625 79.5625 L 208.34375 84.929688 L 204.40625 88.867188 L 199.039062 87.425781 L 197.597656 82.046875 Z M 90.992188 44.386719 L 83.644531 51.71875 L 73.617188 49.03125 L 70.9375 39.015625 L 78.273438 31.664062 L 88.300781 34.351562 Z M 101.085938 21.582031 L 98.402344 11.554688 L 105.742188 4.210938 L 115.769531 6.898438 L 118.453125 16.921875 L 111.109375 24.261719 Z M 98.917969 112.609375 L 83.992188 127.53125 L 63.601562 122.070312 L 58.140625 101.667969 L 73.066406 86.746094 L 93.453125 92.207031 Z M 144.175781 105.589844 L 145.617188 110.957031 L 141.679688 114.894531 L 136.3125 113.453125 L 134.871094 108.085938 L 138.808594 104.148438 Z M 129.019531 82.503906 L 108.628906 77.027344 L 103.167969 56.625 L 118.09375 41.703125 L 138.484375 47.179688 L 143.945312 67.578125 Z M 176.121094 86.355469 L 166.105469 83.664062 L 163.417969 73.636719 L 170.75 66.289062 L 180.777344 68.976562 L 183.464844 79.003906 Z M 176.121094 86.355469 " fill-opacity="1" fill-rule="nonzero"/><g clip-path="url(#5e1321d851)"><g mask="url(#fc2c89adfa)"><g transform="matrix(1, 0, 0, 1, 0, 0.000000000000033147)"><g clip-path="url(#9a2dd80a1d)"><path fill="#aa233b" d="M 124.703125 156.742188 L 98.304688 149.667969 L 78.976562 168.996094 L 86.050781 195.394531 L 112.449219 202.46875 L 131.777344 183.140625 Z M 112.128906 201.273438 L 86.929688 194.519531 L 80.175781 169.316406 L 98.625 150.867188 L 123.828125 157.621094 L 130.578125 182.820312 Z M 112.128906 201.273438 " fill-opacity="1" fill-rule="nonzero"/><g clip-path="url(#e5bbb59dc7)"><path fill="#aa233b" d="M 150.316406 0.148438 L 149.203125 0.148438 L 151.621094 9.167969 L 142.5 18.292969 L 130.027344 14.964844 L 126.6875 2.511719 L 129.039062 0.148438 L 127.519531 0.148438 L 125.496094 2.171875 L 129.148438 15.832031 L 142.808594 19.480469 L 152.8125 9.480469 Z M 150.316406 0.148438 " fill-opacity="1" fill-rule="nonzero"/></g><g clip-path="url(#6318132b24)"><path fill="#aa233b" d="M 212 131.464844 L 200.148438 98.621094 L 209.699219 89.078125 L 206.199219 76.015625 L 217.117188 65.097656 L 224.464844 67.0625 L 230.28125 61.246094 L 228.152344 53.300781 L 220.207031 51.171875 L 214.390625 56.988281 L 216.355469 64.335938 L 205.4375 75.253906 L 192.371094 71.757812 L 182.367188 81.75 L 185.867188 94.816406 L 171.433594 109.246094 L 145.636719 102.332031 L 126.308594 121.660156 L 133.382812 148.058594 L 159.78125 155.132812 L 179.109375 135.804688 L 172.199219 110.003906 L 186.628906 95.574219 L 199.117188 98.929688 L 210.972656 131.777344 L 201.429688 141.316406 L 204.929688 154.378906 L 175.820312 183.488281 L 162.757812 179.988281 L 152.757812 189.984375 L 156.40625 203.644531 L 170.070312 207.304688 L 179.644531 197.734375 L 201.207031 202.632812 L 203.171875 209.964844 L 211.117188 212.09375 L 216.933594 206.277344 L 214.804688 198.332031 L 206.859375 196.203125 L 201.472656 201.589844 L 179.90625 196.695312 L 176.570312 184.238281 L 205.679688 155.128906 L 218.742188 158.628906 L 228.742188 148.628906 L 225.09375 134.964844 Z M 215.582031 57.308594 L 220.519531 52.371094 L 227.269531 54.179688 L 229.078125 60.925781 L 224.136719 65.863281 L 217.390625 64.058594 Z M 177.917969 135.492188 L 159.46875 153.941406 L 134.265625 147.1875 L 127.511719 121.984375 L 145.960938 103.535156 L 171.164062 110.289062 Z M 186.910156 94.542969 L 183.570312 82.085938 L 192.6875 72.945312 L 205.144531 76.285156 L 208.484375 88.753906 L 199.359375 97.875 Z M 207.195312 197.40625 L 213.945312 199.210938 L 215.753906 205.960938 L 210.8125 210.898438 L 204.058594 209.09375 L 202.25 202.347656 Z M 178.890625 196.988281 L 169.753906 206.113281 L 157.300781 202.773438 L 153.960938 190.316406 L 163.078125 181.179688 L 175.53125 184.519531 Z M 218.4375 157.4375 L 205.984375 154.097656 L 202.640625 141.644531 L 211.765625 132.519531 L 224.222656 135.859375 L 227.5625 148.3125 Z M 218.4375 157.4375 " fill-opacity="1" fill-rule="nonzero"/></g><g clip-path="url(#3d5a237057)"><path fill="#aa233b" d="M 185.203125 51 L 177.257812 48.871094 L 171.867188 54.265625 L 156.566406 51.042969 L 153.074219 38 L 139.414062 34.347656 L 129.859375 43.902344 L 107.996094 37.027344 L 101.078125 11.195312 L 75.234375 4.273438 L 73.550781 0.148438 L 72.386719 0.148438 L 74.210938 4.597656 L 55.355469 23.449219 L 62.269531 49.25 L 45.125 66.390625 L 19.328125 59.476562 L 0 78.804688 L 7.085938 105.207031 L 33.484375 112.28125 L 52.8125 92.953125 L 45.882812 67.148438 L 63.027344 50.007812 L 88.285156 56.777344 L 99.652344 81.347656 L 94.316406 86.679688 L 96.449219 94.625 L 104.394531 96.753906 L 110.210938 90.9375 L 108.082031 82.992188 L 100.679688 81.007812 L 89.3125 56.4375 L 107.695312 38.046875 L 129.558594 44.917969 L 133.0625 57.996094 L 146.722656 61.648438 L 156.300781 52.070312 L 171.597656 55.292969 L 173.5625 62.621094 L 181.507812 64.75 L 187.320312 58.933594 Z M 51.601562 92.628906 L 33.148438 111.078125 L 7.949219 104.324219 L 1.195312 79.125 L 19.648438 60.675781 L 44.851562 67.429688 Z M 107.203125 83.867188 L 109.011719 90.617188 L 104.070312 95.554688 L 97.324219 93.746094 L 95.515625 87 L 100.457031 82.0625 Z M 88.503906 55.734375 L 63.304688 48.980469 L 56.550781 23.769531 L 75 5.320312 L 100.203125 12.074219 L 106.953125 37.277344 Z M 146.414062 60.472656 L 133.957031 57.132812 L 130.617188 44.667969 L 139.742188 35.542969 L 152.195312 38.882812 L 155.535156 51.339844 Z M 181.203125 63.574219 L 174.453125 61.765625 L 172.644531 55.019531 L 177.585938 50.082031 L 184.335938 51.890625 L 186.140625 58.640625 Z M 33.054688 19.085938 L 43.054688 9.085938 L 40.664062 0.148438 L 39.550781 0.148438 L 41.859375 8.765625 L 32.734375 17.890625 L 20.28125 14.550781 L 16.929688 2.082031 L 18.863281 0.148438 L 17.34375 0.148438 L 15.730469 1.761719 L 19.378906 15.425781 Z M 33.054688 19.085938 " fill-opacity="1" fill-rule="nonzero"/></g></g></g></g></g><path fill="#aa233b" d="M 58.285156 52.117188 L 44.625 48.457031 L 34.625 58.457031 L 38.273438 72.117188 L 51.9375 75.769531 L 61.953125 65.769531 Z M 51.628906 74.582031 L 39.171875 71.242188 L 35.835938 58.785156 L 44.960938 49.664062 L 57.414062 53 L 60.753906 65.457031 Z M 51.628906 74.582031 " fill-opacity="1" fill-rule="nonzero"/><path fill="#aa233b" d="M 164.757812 158.121094 L 154.753906 168.125 L 158.40625 181.785156 L 172.066406 185.4375 L 182.066406 175.4375 L 178.417969 161.773438 Z M 171.757812 184.25 L 159.300781 180.90625 L 155.960938 168.453125 L 165.085938 159.328125 L 177.542969 162.667969 L 180.882812 175.121094 Z M 171.757812 184.25 " fill-opacity="1" fill-rule="nonzero"/><path fill="#aa233b" d="M 174.363281 129.65625 L 172.234375 121.710938 L 164.289062 119.582031 L 158.472656 125.398438 L 160.601562 133.34375 L 168.546875 135.472656 Z M 161.480469 132.464844 L 159.664062 125.71875 L 164.601562 120.78125 L 171.347656 122.585938 L 173.15625 129.335938 L 168.21875 134.273438 Z M 161.480469 132.464844 " fill-opacity="1" fill-rule="nonzero"/><path fill="#aa233b" d="M 53.730469 26.472656 L 59.546875 20.65625 L 57.417969 12.710938 L 49.472656 10.582031 L 43.65625 16.398438 L 45.785156 24.34375 Z M 49.792969 11.777344 L 56.539062 13.585938 L 58.347656 20.335938 L 53.410156 25.273438 L 46.660156 23.464844 L 44.855469 16.71875 Z M 49.792969 11.777344 " fill-opacity="1" fill-rule="nonzero"/><path fill="#aa233b" d="M 207.550781 27.03125 L 213.367188 21.214844 L 211.238281 13.269531 L 203.292969 11.140625 L 197.480469 16.957031 L 199.609375 24.902344 Z M 203.613281 12.335938 L 210.363281 14.144531 L 212.171875 20.894531 L 207.230469 25.835938 L 200.480469 24.027344 L 198.671875 17.277344 Z M 203.613281 12.335938 " fill-opacity="1" fill-rule="nonzero"/><path fill="#aa233b" d="M 201.371094 173.234375 L 195.558594 179.046875 L 197.6875 186.992188 L 205.632812 189.125 L 211.449219 183.308594 L 209.316406 175.359375 Z M 205.3125 187.925781 L 198.5625 186.117188 L 196.753906 179.371094 L 201.691406 174.429688 L 208.441406 176.238281 L 210.25 182.988281 Z M 205.3125 187.925781 " fill-opacity="1" fill-rule="nonzero"/><path fill="#aa233b" d="M 203.296875 119.582031 L 197.480469 125.398438 L 199.609375 133.34375 L 207.554688 135.472656 L 213.371094 129.65625 L 211.242188 121.710938 Z M 207.234375 134.273438 L 200.484375 132.464844 L 198.675781 125.71875 L 203.617188 120.78125 L 210.363281 122.585938 L 212.171875 129.335938 Z M 207.234375 134.273438 " fill-opacity="1" fill-rule="nonzero"/><path fill="#aa233b" d="M 173.261719 53.25 L 181.480469 45.03125 L 178.472656 33.804688 L 167.246094 30.800781 L 159.019531 39.015625 L 162.023438 50.242188 Z M 167.566406 31.988281 L 177.59375 34.675781 L 180.277344 44.710938 L 172.9375 52.050781 L 162.910156 49.363281 L 160.222656 39.335938 Z M 167.566406 31.988281 " fill-opacity="1" fill-rule="nonzero"/><path fill="#aa233b" d="M 198.164062 88.3125 L 204.738281 90.074219 L 209.550781 85.261719 L 207.792969 78.683594 L 201.214844 76.921875 L 196.828125 81.320312 L 184.496094 78.722656 L 181.65625 68.117188 L 170.429688 65.109375 L 162.667969 72.867188 L 144.992188 67.308594 L 139.367188 46.304688 L 118.335938 40.671875 L 111.914062 24.996094 L 119.65625 17.25 L 116.652344 6.023438 L 105.425781 3.019531 L 97.207031 11.234375 L 100.054688 21.863281 L 88.582031 33.316406 L 77.957031 30.46875 L 69.738281 38.683594 L 72.746094 49.910156 L 83.96875 52.917969 L 92.1875 44.703125 L 89.34375 34.078125 L 100.808594 22.613281 L 110.878906 25.316406 L 117.300781 40.992188 L 101.96875 56.320312 L 107.59375 77.308594 L 93.734375 91.175781 L 72.746094 85.550781 L 56.945312 101.355469 L 62.730469 122.941406 L 84.316406 128.726562 L 100.117188 112.921875 L 94.496094 91.933594 L 108.355469 78.074219 L 128.800781 83.550781 L 137.992188 103.441406 L 133.664062 107.769531 L 135.425781 114.34375 L 142.003906 116.105469 L 146.816406 111.292969 L 145.058594 104.707031 L 139.027344 103.089844 L 129.832031 83.210938 L 144.699219 68.34375 L 162.375 73.902344 L 165.21875 84.542969 L 176.445312 87.550781 L 184.238281 79.757812 L 196.570312 82.355469 Z M 201.535156 78.121094 L 206.90625 79.5625 L 208.34375 84.929688 L 204.40625 88.867188 L 199.039062 87.425781 L 197.597656 82.046875 Z M 90.992188 44.386719 L 83.644531 51.71875 L 73.617188 49.03125 L 70.9375 39.015625 L 78.273438 31.664062 L 88.300781 34.351562 Z M 101.085938 21.582031 L 98.402344 11.554688 L 105.742188 4.210938 L 115.769531 6.898438 L 118.453125 16.921875 L 111.109375 24.261719 Z M 98.917969 112.609375 L 83.992188 127.53125 L 63.601562 122.070312 L 58.140625 101.667969 L 73.066406 86.746094 L 93.453125 92.207031 Z M 144.175781 105.589844 L 145.617188 110.957031 L 141.679688 114.894531 L 136.3125 113.453125 L 134.871094 108.085938 L 138.808594 104.148438 Z M 129.019531 82.503906 L 108.628906 77.027344 L 103.167969 56.625 L 118.09375 41.703125 L 138.484375 47.179688 L 143.945312 67.578125 Z M 176.121094 86.355469 L 166.105469 83.664062 L 163.417969 73.636719 L 170.75 66.289062 L 180.777344 68.976562 L 183.464844 79.003906 Z M 176.121094 86.355469 " fill-opacity="1" fill-rule="nonzero"/></svg>