<svg xmlns="http://www.w3.org/2000/svg" xmlns:xlink="http://www.w3.org/1999/xlink" width="763" zoomAndPan="magnify" viewBox="0 0 572.25 546.000001" height="728" preserveAspectRatio="xMidYMid meet" version="1.0"><defs><clipPath id="a78c86127f"><path d="M 145 522 L 167 522 L 167 544.253906 L 145 544.253906 Z M 145 522 " clip-rule="nonzero"/></clipPath><clipPath id="2012ae4d64"><path d="M 309 183 L 571.351562 183 L 571.351562 411 L 309 411 Z M 309 183 " clip-rule="nonzero"/></clipPath><clipPath id="bd62a7b960"><path d="M 0.148438 239 L 134 239 L 134 355 L 0.148438 355 Z M 0.148438 239 " clip-rule="nonzero"/></clipPath><clipPath id="5fa75628c3"><path d="M 145 522 L 167 522 L 167 544.253906 L 145 544.253906 Z M 145 522 " clip-rule="nonzero"/></clipPath><clipPath id="c328ae205f"><path d="M 309 183 L 571.351562 183 L 571.351562 411 L 309 411 Z M 309 183 " clip-rule="nonzero"/></clipPath><clipPath id="8ae55fa14a"><path d="M 0.148438 239 L 134 239 L 134 355 L 0.148438 355 Z M 0.148438 239 " clip-rule="nonzero"/></clipPath></defs><path fill="#aa233b" d="M 156.003906 308.222656 C 155.605469 308.222656 155.238281 308.320312 154.894531 308.519531 C 154.554688 308.714844 154.285156 308.984375 154.085938 309.328125 L 89.792969 420.691406 C 89.59375 421.03125 89.496094 421.398438 89.496094 421.796875 C 89.496094 422.191406 89.59375 422.558594 89.792969 422.902344 L 154.085938 534.261719 C 154.285156 534.605469 154.554688 534.875 154.898438 535.074219 C 155.238281 535.269531 155.605469 535.367188 156.003906 535.367188 L 284.59375 535.367188 C 284.988281 535.367188 285.355469 535.269531 285.699219 535.070312 C 286.039062 534.875 286.308594 534.605469 286.507812 534.261719 L 350.804688 422.902344 C 351 422.558594 351.097656 422.191406 351.097656 421.796875 C 351.097656 421.402344 351 421.03125 350.804688 420.691406 L 286.507812 309.328125 C 286.308594 308.984375 286.039062 308.714844 285.699219 308.519531 C 285.355469 308.320312 284.988281 308.222656 284.59375 308.222656 Z M 157.277344 312.644531 L 283.316406 312.644531 L 346.335938 421.796875 L 283.316406 530.949219 L 157.277344 530.949219 L 94.257812 421.796875 Z M 157.277344 312.644531 " fill-opacity="1" fill-rule="nonzero"/><path fill="#aa233b" d="M 295.441406 310.433594 C 295.441406 311.144531 295.375 311.851562 295.234375 312.550781 C 295.097656 313.25 294.890625 313.925781 294.617188 314.585938 C 294.34375 315.242188 294.011719 315.871094 293.613281 316.460938 C 293.21875 317.054688 292.769531 317.601562 292.265625 318.105469 C 291.761719 318.609375 291.214844 319.058594 290.621094 319.457031 C 290.027344 319.851562 289.402344 320.183594 288.746094 320.457031 C 288.085938 320.730469 287.410156 320.9375 286.710938 321.074219 C 286.011719 321.214844 285.304688 321.285156 284.59375 321.285156 C 283.878906 321.285156 283.175781 321.214844 282.476562 321.074219 C 281.777344 320.9375 281.097656 320.730469 280.441406 320.457031 C 279.78125 320.183594 279.15625 319.851562 278.566406 319.457031 C 277.972656 319.058594 277.425781 318.609375 276.921875 318.105469 C 276.417969 317.601562 275.96875 317.054688 275.570312 316.460938 C 275.175781 315.871094 274.839844 315.242188 274.570312 314.585938 C 274.296875 313.925781 274.089844 313.25 273.953125 312.550781 C 273.8125 311.851562 273.742188 311.144531 273.742188 310.433594 C 273.742188 309.722656 273.8125 309.015625 273.953125 308.316406 C 274.089844 307.617188 274.296875 306.941406 274.570312 306.28125 C 274.839844 305.625 275.175781 304.996094 275.570312 304.40625 C 275.96875 303.8125 276.417969 303.265625 276.921875 302.761719 C 277.425781 302.257812 277.972656 301.808594 278.5625 301.414062 C 279.15625 301.015625 279.78125 300.683594 280.441406 300.410156 C 281.097656 300.136719 281.777344 299.929688 282.476562 299.792969 C 283.175781 299.652344 283.878906 299.582031 284.59375 299.582031 C 285.304688 299.582031 286.011719 299.652344 286.710938 299.792969 C 287.410156 299.929688 288.085938 300.136719 288.746094 300.410156 C 289.402344 300.683594 290.027344 301.015625 290.621094 301.414062 C 291.214844 301.808594 291.761719 302.257812 292.265625 302.761719 C 292.769531 303.265625 293.21875 303.8125 293.613281 304.40625 C 294.011719 305 294.34375 305.625 294.617188 306.28125 C 294.890625 306.941406 295.097656 307.617188 295.234375 308.316406 C 295.375 309.015625 295.445312 309.722656 295.441406 310.433594 Z M 295.441406 310.433594 " fill-opacity="1" fill-rule="nonzero"/><g clip-path="url(#a78c86127f)"><path fill="#aa233b" d="M 166.851562 533.160156 C 166.851562 533.871094 166.78125 534.578125 166.644531 535.277344 C 166.503906 535.972656 166.300781 536.652344 166.027344 537.3125 C 165.753906 537.96875 165.417969 538.59375 165.023438 539.1875 C 164.628906 539.78125 164.179688 540.328125 163.675781 540.832031 C 163.171875 541.335938 162.621094 541.785156 162.03125 542.179688 C 161.4375 542.578125 160.8125 542.910156 160.152344 543.183594 C 159.496094 543.457031 158.816406 543.660156 158.117188 543.800781 C 157.421875 543.941406 156.714844 544.007812 156.003906 544.007812 C 155.289062 544.007812 154.585938 543.941406 153.886719 543.800781 C 153.1875 543.660156 152.507812 543.457031 151.851562 543.183594 C 151.191406 542.910156 150.566406 542.578125 149.972656 542.179688 C 149.382812 541.785156 148.832031 541.335938 148.332031 540.832031 C 147.824219 540.328125 147.375 539.777344 146.980469 539.1875 C 146.585938 538.59375 146.25 537.96875 145.976562 537.3125 C 145.707031 536.652344 145.5 535.972656 145.359375 535.277344 C 145.222656 534.578125 145.152344 533.871094 145.152344 533.160156 C 145.152344 532.445312 145.222656 531.742188 145.359375 531.042969 C 145.5 530.34375 145.707031 529.664062 145.976562 529.007812 C 146.25 528.347656 146.585938 527.722656 146.980469 527.132812 C 147.375 526.539062 147.824219 525.992188 148.332031 525.488281 C 148.832031 524.984375 149.382812 524.535156 149.972656 524.136719 C 150.566406 523.742188 151.191406 523.40625 151.851562 523.136719 C 152.507812 522.863281 153.1875 522.65625 153.886719 522.519531 C 154.585938 522.378906 155.289062 522.308594 156.003906 522.308594 C 156.714844 522.308594 157.421875 522.378906 158.117188 522.515625 C 158.816406 522.65625 159.496094 522.863281 160.152344 523.136719 C 160.8125 523.40625 161.4375 523.742188 162.03125 524.136719 C 162.621094 524.53125 163.171875 524.984375 163.675781 525.488281 C 164.179688 525.992188 164.628906 526.539062 165.023438 527.132812 C 165.417969 527.722656 165.753906 528.347656 166.027344 529.007812 C 166.300781 529.664062 166.503906 530.34375 166.644531 531.042969 C 166.78125 531.742188 166.851562 532.445312 166.851562 533.160156 Z M 166.851562 533.160156 " fill-opacity="1" fill-rule="nonzero"/></g><path fill="#aa233b" d="M 156.003906 56.183594 C 155.605469 56.183594 155.238281 56.285156 154.894531 56.480469 C 154.554688 56.679688 154.285156 56.949219 154.085938 57.289062 L 89.792969 168.652344 C 89.59375 168.996094 89.496094 169.363281 89.496094 169.757812 C 89.496094 170.152344 89.59375 170.519531 89.792969 170.863281 L 154.085938 282.226562 C 154.285156 282.566406 154.554688 282.835938 154.898438 283.035156 C 155.238281 283.234375 155.605469 283.332031 156.003906 283.332031 L 284.59375 283.332031 C 284.988281 283.332031 285.355469 283.230469 285.699219 283.035156 C 286.039062 282.835938 286.308594 282.566406 286.507812 282.226562 L 350.804688 170.863281 C 351 170.519531 351.097656 170.152344 351.097656 169.757812 C 351.097656 169.363281 351 168.996094 350.804688 168.652344 L 286.507812 57.289062 C 286.308594 56.949219 286.039062 56.679688 285.699219 56.480469 C 285.355469 56.285156 284.988281 56.183594 284.59375 56.183594 Z M 157.277344 60.605469 L 283.316406 60.605469 L 346.335938 169.757812 L 283.316406 278.910156 L 157.277344 278.910156 L 94.257812 169.757812 Z M 157.277344 60.605469 " fill-opacity="1" fill-rule="nonzero"/><path fill="#aa233b" d="M 357.800781 169.761719 C 357.800781 170.472656 357.734375 171.179688 357.59375 171.875 C 357.453125 172.574219 357.246094 173.253906 356.976562 173.910156 C 356.703125 174.570312 356.367188 175.195312 355.972656 175.789062 C 355.578125 176.378906 355.128906 176.929688 354.625 177.433594 C 354.121094 177.9375 353.574219 178.386719 352.980469 178.78125 C 352.386719 179.175781 351.761719 179.511719 351.105469 179.785156 C 350.445312 180.054688 349.769531 180.261719 349.070312 180.402344 C 348.371094 180.539062 347.664062 180.609375 346.953125 180.609375 C 346.238281 180.609375 345.53125 180.539062 344.835938 180.402344 C 344.136719 180.261719 343.457031 180.054688 342.800781 179.785156 C 342.140625 179.511719 341.515625 179.175781 340.921875 178.78125 C 340.332031 178.386719 339.78125 177.933594 339.277344 177.429688 C 338.777344 176.929688 338.324219 176.378906 337.929688 175.789062 C 337.535156 175.195312 337.199219 174.570312 336.925781 173.910156 C 336.65625 173.253906 336.449219 172.574219 336.308594 171.875 C 336.171875 171.179688 336.101562 170.472656 336.101562 169.761719 C 336.101562 169.046875 336.171875 168.339844 336.308594 167.644531 C 336.449219 166.945312 336.65625 166.265625 336.925781 165.609375 C 337.199219 164.949219 337.535156 164.324219 337.929688 163.730469 C 338.324219 163.140625 338.777344 162.589844 339.277344 162.085938 C 339.78125 161.582031 340.332031 161.132812 340.921875 160.738281 C 341.515625 160.34375 342.140625 160.007812 342.800781 159.734375 C 343.457031 159.464844 344.136719 159.257812 344.832031 159.117188 C 345.53125 158.980469 346.238281 158.910156 346.953125 158.910156 C 347.664062 158.910156 348.367188 158.980469 349.066406 159.117188 C 349.765625 159.257812 350.445312 159.460938 351.101562 159.734375 C 351.761719 160.007812 352.386719 160.34375 352.980469 160.738281 C 353.570312 161.132812 354.121094 161.582031 354.621094 162.085938 C 355.125 162.589844 355.574219 163.140625 355.972656 163.730469 C 356.367188 164.324219 356.703125 164.949219 356.976562 165.605469 C 357.246094 166.265625 357.453125 166.945312 357.59375 167.644531 C 357.730469 168.339844 357.800781 169.046875 357.800781 169.761719 Z M 357.800781 169.761719 " fill-opacity="1" fill-rule="nonzero"/><path fill="#aa233b" d="M 166.851562 281.121094 C 166.851562 281.835938 166.78125 282.539062 166.644531 283.238281 C 166.503906 283.9375 166.300781 284.617188 166.027344 285.273438 C 165.753906 285.933594 165.417969 286.558594 165.023438 287.152344 C 164.628906 287.742188 164.179688 288.289062 163.675781 288.792969 C 163.171875 289.296875 162.621094 289.75 162.03125 290.144531 C 161.4375 290.539062 160.8125 290.875 160.152344 291.148438 C 159.496094 291.417969 158.816406 291.625 158.117188 291.765625 C 157.421875 291.902344 156.714844 291.972656 156.003906 291.972656 C 155.289062 291.972656 154.585938 291.902344 153.886719 291.765625 C 153.1875 291.625 152.507812 291.417969 151.851562 291.148438 C 151.191406 290.875 150.566406 290.539062 149.972656 290.144531 C 149.382812 289.75 148.832031 289.296875 148.332031 288.792969 C 147.824219 288.289062 147.375 287.742188 146.980469 287.152344 C 146.585938 286.558594 146.25 285.933594 145.976562 285.273438 C 145.707031 284.617188 145.5 283.9375 145.359375 283.238281 C 145.222656 282.539062 145.152344 281.835938 145.152344 281.121094 C 145.152344 280.410156 145.222656 279.703125 145.363281 279.007812 C 145.5 278.308594 145.707031 277.628906 145.976562 276.96875 C 146.25 276.3125 146.585938 275.6875 146.980469 275.09375 C 147.378906 274.503906 147.828125 273.953125 148.332031 273.449219 C 148.835938 272.945312 149.382812 272.496094 149.972656 272.101562 C 150.566406 271.707031 151.191406 271.371094 151.847656 271.097656 C 152.507812 270.824219 153.1875 270.621094 153.886719 270.480469 C 154.585938 270.34375 155.289062 270.273438 156.003906 270.273438 C 156.714844 270.273438 157.421875 270.34375 158.121094 270.480469 C 158.820312 270.621094 159.496094 270.824219 160.15625 271.097656 C 160.8125 271.371094 161.4375 271.707031 162.03125 272.101562 C 162.625 272.496094 163.171875 272.945312 163.675781 273.449219 C 164.179688 273.953125 164.628906 274.503906 165.023438 275.09375 C 165.421875 275.6875 165.753906 276.3125 166.027344 276.96875 C 166.300781 277.628906 166.503906 278.308594 166.644531 279.007812 C 166.78125 279.703125 166.851562 280.410156 166.851562 281.121094 Z M 166.851562 281.121094 " fill-opacity="1" fill-rule="nonzero"/><g clip-path="url(#2012ae4d64)"><path fill="#aa233b" d="M 375.953125 183.4375 C 375.558594 183.4375 375.191406 183.535156 374.847656 183.730469 C 374.507812 183.929688 374.238281 184.199219 374.039062 184.542969 L 309.746094 295.902344 C 309.546875 296.246094 309.449219 296.613281 309.449219 297.007812 C 309.449219 297.402344 309.546875 297.773438 309.746094 298.113281 L 374.039062 409.476562 C 374.238281 409.820312 374.507812 410.089844 374.847656 410.285156 C 375.191406 410.484375 375.558594 410.582031 375.953125 410.582031 L 504.546875 410.582031 C 504.941406 410.582031 505.308594 410.484375 505.648438 410.285156 C 505.992188 410.089844 506.261719 409.820312 506.457031 409.476562 L 570.753906 298.113281 C 570.953125 297.773438 571.050781 297.402344 571.050781 297.007812 C 571.050781 296.613281 570.953125 296.246094 570.753906 295.902344 L 506.457031 184.542969 C 506.261719 184.199219 505.992188 183.929688 505.652344 183.734375 C 505.308594 183.535156 504.941406 183.4375 504.546875 183.4375 Z M 377.230469 187.855469 L 503.269531 187.855469 L 566.289062 297.007812 L 503.269531 406.160156 L 377.230469 406.160156 L 314.210938 297.007812 Z M 377.230469 187.855469 " fill-opacity="1" fill-rule="nonzero"/></g><path fill="#aa233b" d="M 515.394531 185.648438 C 515.394531 186.359375 515.328125 187.066406 515.1875 187.765625 C 515.046875 188.460938 514.84375 189.140625 514.570312 189.800781 C 514.296875 190.457031 513.960938 191.082031 513.566406 191.675781 C 513.171875 192.269531 512.722656 192.816406 512.21875 193.320312 C 511.714844 193.824219 511.164062 194.273438 510.574219 194.667969 C 509.980469 195.066406 509.355469 195.398438 508.699219 195.671875 C 508.039062 195.945312 507.359375 196.148438 506.664062 196.289062 C 505.964844 196.429688 505.257812 196.496094 504.546875 196.496094 C 503.832031 196.496094 503.128906 196.429688 502.429688 196.289062 C 501.730469 196.148438 501.050781 195.945312 500.394531 195.671875 C 499.734375 195.398438 499.109375 195.066406 498.515625 194.667969 C 497.925781 194.273438 497.378906 193.824219 496.875 193.320312 C 496.371094 192.816406 495.921875 192.269531 495.523438 191.675781 C 495.128906 191.082031 494.792969 190.457031 494.519531 189.800781 C 494.25 189.140625 494.042969 188.460938 493.902344 187.765625 C 493.765625 187.066406 493.695312 186.359375 493.695312 185.648438 C 493.695312 184.933594 493.765625 184.230469 493.90625 183.53125 C 494.042969 182.832031 494.25 182.152344 494.523438 181.496094 C 494.792969 180.835938 495.128906 180.210938 495.523438 179.621094 C 495.921875 179.027344 496.371094 178.480469 496.875 177.976562 C 497.378906 177.472656 497.925781 177.023438 498.519531 176.625 C 499.109375 176.230469 499.734375 175.894531 500.394531 175.625 C 501.050781 175.351562 501.730469 175.144531 502.429688 175.007812 C 503.128906 174.867188 503.832031 174.796875 504.546875 174.796875 C 505.257812 174.796875 505.964844 174.867188 506.664062 175.003906 C 507.363281 175.144531 508.039062 175.351562 508.699219 175.625 C 509.355469 175.894531 509.980469 176.230469 510.574219 176.625 C 511.167969 177.023438 511.714844 177.472656 512.21875 177.976562 C 512.722656 178.480469 513.171875 179.027344 513.566406 179.621094 C 513.964844 180.210938 514.296875 180.835938 514.570312 181.496094 C 514.84375 182.152344 515.050781 182.832031 515.1875 183.53125 C 515.328125 184.230469 515.394531 184.933594 515.394531 185.648438 Z M 515.394531 185.648438 " fill-opacity="1" fill-rule="nonzero"/><path fill="#aa233b" d="M 515.394531 408.375 C 515.394531 409.085938 515.328125 409.792969 515.1875 410.488281 C 515.046875 411.1875 514.84375 411.867188 514.570312 412.523438 C 514.296875 413.183594 513.960938 413.808594 513.566406 414.402344 C 513.171875 414.992188 512.722656 415.542969 512.21875 416.046875 C 511.714844 416.550781 511.164062 417 510.574219 417.394531 C 509.980469 417.789062 509.355469 418.125 508.699219 418.398438 C 508.039062 418.667969 507.359375 418.875 506.664062 419.015625 C 505.964844 419.152344 505.257812 419.222656 504.546875 419.222656 C 503.832031 419.222656 503.128906 419.152344 502.429688 419.015625 C 501.730469 418.875 501.050781 418.667969 500.394531 418.398438 C 499.734375 418.125 499.109375 417.789062 498.515625 417.394531 C 497.925781 417 497.378906 416.550781 496.875 416.046875 C 496.371094 415.542969 495.921875 414.992188 495.523438 414.402344 C 495.128906 413.808594 494.792969 413.183594 494.519531 412.523438 C 494.25 411.867188 494.042969 411.1875 493.902344 410.488281 C 493.765625 409.792969 493.695312 409.085938 493.695312 408.375 C 493.695312 407.660156 493.765625 406.953125 493.90625 406.257812 C 494.042969 405.558594 494.25 404.878906 494.523438 404.222656 C 494.792969 403.5625 495.128906 402.9375 495.523438 402.34375 C 495.921875 401.753906 496.371094 401.203125 496.875 400.699219 C 497.378906 400.195312 497.925781 399.746094 498.519531 399.351562 C 499.109375 398.957031 499.734375 398.621094 500.394531 398.347656 C 501.050781 398.074219 501.730469 397.871094 502.429688 397.730469 C 503.128906 397.59375 503.832031 397.523438 504.546875 397.523438 C 505.257812 397.523438 505.964844 397.59375 506.664062 397.730469 C 507.359375 397.871094 508.039062 398.074219 508.699219 398.347656 C 509.355469 398.621094 509.980469 398.957031 510.574219 399.351562 C 511.164062 399.746094 511.714844 400.195312 512.21875 400.699219 C 512.722656 401.203125 513.171875 401.753906 513.566406 402.34375 C 513.960938 402.9375 514.296875 403.5625 514.570312 404.21875 C 514.84375 404.878906 515.046875 405.558594 515.1875 406.257812 C 515.328125 406.953125 515.394531 407.660156 515.394531 408.375 Z M 515.394531 408.375 " fill-opacity="1" fill-rule="nonzero"/><path fill="#aa233b" d="M 323.925781 350.617188 C 323.496094 350.617188 323.171875 350.804688 322.953125 351.179688 L 290.261719 407.800781 C 290.046875 408.175781 290.046875 408.550781 290.261719 408.925781 L 322.953125 465.550781 C 323.171875 465.921875 323.496094 466.109375 323.925781 466.109375 L 389.308594 466.109375 C 389.742188 466.109375 390.066406 465.921875 390.28125 465.550781 L 422.972656 408.925781 C 423.191406 408.550781 423.191406 408.175781 422.972656 407.800781 L 390.28125 351.179688 C 390.066406 350.804688 389.742188 350.617188 389.308594 350.617188 Z M 324.574219 352.867188 L 388.660156 352.867188 L 420.703125 408.363281 L 388.660156 463.863281 L 324.574219 463.863281 L 292.535156 408.363281 Z M 324.574219 352.867188 " fill-opacity="1" fill-rule="nonzero"/><path fill="#aa233b" d="M 369.898438 49.917969 C 369.464844 49.917969 369.140625 50.105469 368.921875 50.476562 L 336.234375 107.101562 C 336.015625 107.476562 336.015625 107.851562 336.234375 108.226562 L 368.921875 164.847656 C 369.140625 165.222656 369.464844 165.410156 369.898438 165.410156 L 435.28125 165.410156 C 435.710938 165.410156 436.035156 165.222656 436.253906 164.847656 L 468.945312 108.226562 C 469.160156 107.851562 469.160156 107.476562 468.945312 107.101562 L 436.253906 50.476562 C 436.035156 50.105469 435.710938 49.917969 435.28125 49.917969 Z M 370.546875 52.164062 L 434.628906 52.164062 L 466.671875 107.664062 L 434.632812 163.160156 L 370.546875 163.160156 L 338.503906 107.664062 Z M 370.546875 52.164062 " fill-opacity="1" fill-rule="nonzero"/><g clip-path="url(#bd62a7b960)"><path fill="#aa233b" d="M 33.964844 239.257812 C 33.535156 239.257812 33.210938 239.445312 32.992188 239.816406 L 0.300781 296.441406 C 0.0859375 296.816406 0.0859375 297.191406 0.300781 297.566406 L 32.992188 354.1875 C 33.210938 354.5625 33.535156 354.75 33.964844 354.75 L 99.347656 354.75 C 99.78125 354.75 100.105469 354.5625 100.320312 354.1875 L 133.011719 297.566406 C 133.230469 297.191406 133.230469 296.816406 133.011719 296.441406 L 100.320312 239.816406 C 100.105469 239.445312 99.78125 239.257812 99.347656 239.257812 Z M 34.617188 241.503906 L 98.699219 241.503906 L 130.742188 297.003906 L 98.699219 352.5 L 34.617188 352.5 L 2.574219 297.003906 Z M 34.617188 241.503906 " fill-opacity="1" fill-rule="nonzero"/></g><path fill="#aa233b" d="M 19 214.011719 C 18.800781 214.011719 18.652344 214.097656 18.554688 214.265625 L 3.636719 240.109375 C 3.539062 240.277344 3.539062 240.449219 3.636719 240.621094 L 18.554688 266.460938 C 18.652344 266.632812 18.800781 266.71875 19 266.71875 L 48.835938 266.71875 C 49.035156 266.71875 49.183594 266.632812 49.28125 266.460938 L 64.199219 240.621094 C 64.300781 240.449219 64.300781 240.277344 64.199219 240.109375 L 49.28125 214.265625 C 49.183594 214.097656 49.035156 214.011719 48.835938 214.011719 Z M 19.296875 215.035156 L 48.539062 215.035156 L 63.164062 240.363281 L 48.542969 265.691406 L 19.296875 265.691406 L 4.671875 240.363281 Z M 19.296875 215.035156 " fill-opacity="1" fill-rule="nonzero"/><path fill="#aa233b" d="M 122.207031 0.644531 C 121.773438 0.644531 121.449219 0.832031 121.234375 1.207031 L 88.542969 57.828125 C 88.324219 58.203125 88.324219 58.578125 88.542969 58.953125 L 121.234375 115.574219 C 121.449219 115.949219 121.773438 116.136719 122.207031 116.136719 L 187.589844 116.136719 C 188.019531 116.136719 188.34375 115.949219 188.5625 115.574219 L 221.253906 58.953125 C 221.46875 58.578125 221.46875 58.203125 221.253906 57.828125 L 188.5625 1.207031 C 188.34375 0.832031 188.019531 0.644531 187.589844 0.644531 Z M 122.855469 2.890625 L 186.9375 2.890625 L 218.980469 58.390625 L 186.941406 113.886719 L 122.855469 113.886719 L 90.8125 58.390625 Z M 122.855469 2.890625 " fill-opacity="1" fill-rule="nonzero"/><path fill="#aa233b" d="M 244.792969 433.214844 C 244.597656 433.214844 244.449219 433.300781 244.351562 433.472656 L 229.429688 459.3125 C 229.332031 459.484375 229.332031 459.65625 229.429688 459.828125 L 244.351562 485.667969 C 244.449219 485.839844 244.597656 485.921875 244.792969 485.921875 L 274.632812 485.921875 C 274.832031 485.921875 274.976562 485.835938 275.078125 485.667969 L 289.996094 459.828125 C 290.09375 459.65625 290.09375 459.484375 289.996094 459.3125 L 275.078125 433.472656 C 274.976562 433.300781 274.832031 433.214844 274.632812 433.214844 Z M 245.089844 434.242188 L 274.335938 434.242188 L 288.960938 459.570312 L 274.335938 484.898438 L 245.089844 484.898438 L 230.46875 459.570312 Z M 245.089844 434.242188 " fill-opacity="1" fill-rule="nonzero"/><path fill="#aa233b" d="M 455.617188 333.796875 C 455.421875 333.796875 455.273438 333.882812 455.175781 334.054688 L 440.253906 359.894531 C 440.15625 360.066406 440.15625 360.238281 440.253906 360.40625 L 455.175781 386.25 C 455.273438 386.417969 455.421875 386.503906 455.617188 386.503906 L 485.457031 386.503906 C 485.652344 386.503906 485.800781 386.417969 485.902344 386.25 L 500.820312 360.40625 C 500.917969 360.238281 500.917969 360.066406 500.820312 359.894531 L 485.902344 334.054688 C 485.800781 333.882812 485.652344 333.796875 485.457031 333.796875 Z M 455.914062 334.824219 L 485.160156 334.824219 L 499.78125 360.152344 L 485.160156 385.480469 L 455.914062 385.480469 L 441.292969 360.152344 Z M 455.914062 334.824219 " fill-opacity="1" fill-rule="nonzero"/><path fill="#aa233b" d="M 156.003906 308.222656 C 155.605469 308.222656 155.238281 308.320312 154.894531 308.519531 C 154.554688 308.714844 154.285156 308.984375 154.085938 309.328125 L 89.792969 420.691406 C 89.59375 421.03125 89.496094 421.398438 89.496094 421.796875 C 89.496094 422.191406 89.59375 422.558594 89.792969 422.902344 L 154.085938 534.261719 C 154.285156 534.605469 154.554688 534.875 154.898438 535.074219 C 155.238281 535.269531 155.605469 535.367188 156.003906 535.367188 L 284.59375 535.367188 C 284.988281 535.367188 285.355469 535.269531 285.699219 535.070312 C 286.039062 534.875 286.308594 534.605469 286.507812 534.261719 L 350.804688 422.902344 C 351 422.558594 351.097656 422.191406 351.097656 421.796875 C 351.097656 421.402344 351 421.03125 350.804688 420.691406 L 286.507812 309.328125 C 286.308594 308.984375 286.039062 308.714844 285.699219 308.519531 C 285.355469 308.320312 284.988281 308.222656 284.59375 308.222656 Z M 157.277344 312.644531 L 283.316406 312.644531 L 346.335938 421.796875 L 283.316406 530.949219 L 157.277344 530.949219 L 94.257812 421.796875 Z M 157.277344 312.644531 " fill-opacity="1" fill-rule="nonzero"/><path fill="#aa233b" d="M 295.441406 310.433594 C 295.441406 311.144531 295.375 311.851562 295.234375 312.550781 C 295.097656 313.25 294.890625 313.925781 294.617188 314.585938 C 294.34375 315.242188 294.011719 315.871094 293.613281 316.460938 C 293.21875 317.054688 292.769531 317.601562 292.265625 318.105469 C 291.761719 318.609375 291.214844 319.058594 290.621094 319.457031 C 290.027344 319.851562 289.402344 320.183594 288.746094 320.457031 C 288.085938 320.730469 287.410156 320.9375 286.710938 321.074219 C 286.011719 321.214844 285.304688 321.285156 284.59375 321.285156 C 283.878906 321.285156 283.175781 321.214844 282.476562 321.074219 C 281.777344 320.9375 281.097656 320.730469 280.441406 320.457031 C 279.78125 320.183594 279.15625 319.851562 278.566406 319.457031 C 277.972656 319.058594 277.425781 318.609375 276.921875 318.105469 C 276.417969 317.601562 275.96875 317.054688 275.570312 316.460938 C 275.175781 315.871094 274.839844 315.242188 274.570312 314.585938 C 274.296875 313.925781 274.089844 313.25 273.953125 312.550781 C 273.8125 311.851562 273.742188 311.144531 273.742188 310.433594 C 273.742188 309.722656 273.8125 309.015625 273.953125 308.316406 C 274.089844 307.617188 274.296875 306.941406 274.570312 306.28125 C 274.839844 305.625 275.175781 304.996094 275.570312 304.40625 C 275.96875 303.8125 276.417969 303.265625 276.921875 302.761719 C 277.425781 302.257812 277.972656 301.808594 278.5625 301.414062 C 279.15625 301.015625 279.78125 300.683594 280.441406 300.410156 C 281.097656 300.136719 281.777344 299.929688 282.476562 299.792969 C 283.175781 299.652344 283.878906 299.582031 284.59375 299.582031 C 285.304688 299.582031 286.011719 299.652344 286.710938 299.792969 C 287.410156 299.929688 288.085938 300.136719 288.746094 300.410156 C 289.402344 300.683594 290.027344 301.015625 290.621094 301.414062 C 291.214844 301.808594 291.761719 302.257812 292.265625 302.761719 C 292.769531 303.265625 293.21875 303.8125 293.613281 304.40625 C 294.011719 305 294.34375 305.625 294.617188 306.28125 C 294.890625 306.941406 295.097656 307.617188 295.234375 308.316406 C 295.375 309.015625 295.445312 309.722656 295.441406 310.433594 Z M 295.441406 310.433594 " fill-opacity="1" fill-rule="nonzero"/><g clip-path="url(#5fa75628c3)"><path fill="#aa233b" d="M 166.851562 533.160156 C 166.851562 533.871094 166.78125 534.578125 166.644531 535.277344 C 166.503906 535.972656 166.300781 536.652344 166.027344 537.3125 C 165.753906 537.96875 165.417969 538.59375 165.023438 539.1875 C 164.628906 539.78125 164.179688 540.328125 163.675781 540.832031 C 163.171875 541.335938 162.621094 541.785156 162.03125 542.179688 C 161.4375 542.578125 160.8125 542.910156 160.152344 543.183594 C 159.496094 543.457031 158.816406 543.660156 158.117188 543.800781 C 157.421875 543.941406 156.714844 544.007812 156.003906 544.007812 C 155.289062 544.007812 154.585938 543.941406 153.886719 543.800781 C 153.1875 543.660156 152.507812 543.457031 151.851562 543.183594 C 151.191406 542.910156 150.566406 542.578125 149.972656 542.179688 C 149.382812 541.785156 148.832031 541.335938 148.332031 540.832031 C 147.824219 540.328125 147.375 539.777344 146.980469 539.1875 C 146.585938 538.59375 146.25 537.96875 145.976562 537.3125 C 145.707031 536.652344 145.5 535.972656 145.359375 535.277344 C 145.222656 534.578125 145.152344 533.871094 145.152344 533.160156 C 145.152344 532.445312 145.222656 531.742188 145.359375 531.042969 C 145.5 530.34375 145.707031 529.664062 145.976562 529.007812 C 146.25 528.347656 146.585938 527.722656 146.980469 527.132812 C 147.375 526.539062 147.824219 525.992188 148.332031 525.488281 C 148.832031 524.984375 149.382812 524.535156 149.972656 524.136719 C 150.566406 523.742188 151.191406 523.40625 151.851562 523.136719 C 152.507812 522.863281 153.1875 522.65625 153.886719 522.519531 C 154.585938 522.378906 155.289062 522.308594 156.003906 522.308594 C 156.714844 522.308594 157.421875 522.378906 158.117188 522.515625 C 158.816406 522.65625 159.496094 522.863281 160.152344 523.136719 C 160.8125 523.40625 161.4375 523.742188 162.03125 524.136719 C 162.621094 524.53125 163.171875 524.984375 163.675781 525.488281 C 164.179688 525.992188 164.628906 526.539062 165.023438 527.132812 C 165.417969 527.722656 165.753906 528.347656 166.027344 529.007812 C 166.300781 529.664062 166.503906 530.34375 166.644531 531.042969 C 166.78125 531.742188 166.851562 532.445312 166.851562 533.160156 Z M 166.851562 533.160156 " fill-opacity="1" fill-rule="nonzero"/></g><path fill="#aa233b" d="M 156.003906 56.183594 C 155.605469 56.183594 155.238281 56.285156 154.894531 56.480469 C 154.554688 56.679688 154.285156 56.949219 154.085938 57.289062 L 89.792969 168.652344 C 89.59375 168.996094 89.496094 169.363281 89.496094 169.757812 C 89.496094 170.152344 89.59375 170.519531 89.792969 170.863281 L 154.085938 282.226562 C 154.285156 282.566406 154.554688 282.835938 154.898438 283.035156 C 155.238281 283.234375 155.605469 283.332031 156.003906 283.332031 L 284.59375 283.332031 C 284.988281 283.332031 285.355469 283.230469 285.699219 283.035156 C 286.039062 282.835938 286.308594 282.566406 286.507812 282.226562 L 350.804688 170.863281 C 351 170.519531 351.097656 170.152344 351.097656 169.757812 C 351.097656 169.363281 351 168.996094 350.804688 168.652344 L 286.507812 57.289062 C 286.308594 56.949219 286.039062 56.679688 285.699219 56.480469 C 285.355469 56.285156 284.988281 56.183594 284.59375 56.183594 Z M 157.277344 60.605469 L 283.316406 60.605469 L 346.335938 169.757812 L 283.316406 278.910156 L 157.277344 278.910156 L 94.257812 169.757812 Z M 157.277344 60.605469 " fill-opacity="1" fill-rule="nonzero"/><path fill="#aa233b" d="M 357.800781 169.761719 C 357.800781 170.472656 357.734375 171.179688 357.59375 171.875 C 357.453125 172.574219 357.246094 173.253906 356.976562 173.910156 C 356.703125 174.570312 356.367188 175.195312 355.972656 175.789062 C 355.578125 176.378906 355.128906 176.929688 354.625 177.433594 C 354.121094 177.9375 353.574219 178.386719 352.980469 178.78125 C 352.386719 179.175781 351.761719 179.511719 351.105469 179.785156 C 350.445312 180.054688 349.769531 180.261719 349.070312 180.402344 C 348.371094 180.539062 347.664062 180.609375 346.953125 180.609375 C 346.238281 180.609375 345.53125 180.539062 344.835938 180.402344 C 344.136719 180.261719 343.457031 180.054688 342.800781 179.785156 C 342.140625 179.511719 341.515625 179.175781 340.921875 178.78125 C 340.332031 178.386719 339.78125 177.933594 339.277344 177.429688 C 338.777344 176.929688 338.324219 176.378906 337.929688 175.789062 C 337.535156 175.195312 337.199219 174.570312 336.925781 173.910156 C 336.65625 173.253906 336.449219 172.574219 336.308594 171.875 C 336.171875 171.179688 336.101562 170.472656 336.101562 169.761719 C 336.101562 169.046875 336.171875 168.339844 336.308594 167.644531 C 336.449219 166.945312 336.65625 166.265625 336.925781 165.609375 C 337.199219 164.949219 337.535156 164.324219 337.929688 163.730469 C 338.324219 163.140625 338.777344 162.589844 339.277344 162.085938 C 339.78125 161.582031 340.332031 161.132812 340.921875 160.738281 C 341.515625 160.34375 342.140625 160.007812 342.800781 159.734375 C 343.457031 159.464844 344.136719 159.257812 344.832031 159.117188 C 345.53125 158.980469 346.238281 158.910156 346.953125 158.910156 C 347.664062 158.910156 348.367188 158.980469 349.066406 159.117188 C 349.765625 159.257812 350.445312 159.460938 351.101562 159.734375 C 351.761719 160.007812 352.386719 160.34375 352.980469 160.738281 C 353.570312 161.132812 354.121094 161.582031 354.621094 162.085938 C 355.125 162.589844 355.574219 163.140625 355.972656 163.730469 C 356.367188 164.324219 356.703125 164.949219 356.976562 165.605469 C 357.246094 166.265625 357.453125 166.945312 357.59375 167.644531 C 357.730469 168.339844 357.800781 169.046875 357.800781 169.761719 Z M 357.800781 169.761719 " fill-opacity="1" fill-rule="nonzero"/><path fill="#aa233b" d="M 166.851562 281.121094 C 166.851562 281.835938 166.78125 282.539062 166.644531 283.238281 C 166.503906 283.9375 166.300781 284.617188 166.027344 285.273438 C 165.753906 285.933594 165.417969 286.558594 165.023438 287.152344 C 164.628906 287.742188 164.179688 288.289062 163.675781 288.792969 C 163.171875 289.296875 162.621094 289.75 162.03125 290.144531 C 161.4375 290.539062 160.8125 290.875 160.152344 291.148438 C 159.496094 291.417969 158.816406 291.625 158.117188 291.765625 C 157.421875 291.902344 156.714844 291.972656 156.003906 291.972656 C 155.289062 291.972656 154.585938 291.902344 153.886719 291.765625 C 153.1875 291.625 152.507812 291.417969 151.851562 291.148438 C 151.191406 290.875 150.566406 290.539062 149.972656 290.144531 C 149.382812 289.75 148.832031 289.296875 148.332031 288.792969 C 147.824219 288.289062 147.375 287.742188 146.980469 287.152344 C 146.585938 286.558594 146.25 285.933594 145.976562 285.273438 C 145.707031 284.617188 145.5 283.9375 145.359375 283.238281 C 145.222656 282.539062 145.152344 281.835938 145.152344 281.121094 C 145.152344 280.410156 145.222656 279.703125 145.363281 279.007812 C 145.5 278.308594 145.707031 277.628906 145.976562 276.96875 C 146.25 276.3125 146.585938 275.6875 146.980469 275.09375 C 147.378906 274.503906 147.828125 273.953125 148.332031 273.449219 C 148.835938 272.945312 149.382812 272.496094 149.972656 272.101562 C 150.566406 271.707031 151.191406 271.371094 151.847656 271.097656 C 152.507812 270.824219 153.1875 270.621094 153.886719 270.480469 C 154.585938 270.34375 155.289062 270.273438 156.003906 270.273438 C 156.714844 270.273438 157.421875 270.34375 158.121094 270.480469 C 158.820312 270.621094 159.496094 270.824219 160.15625 271.097656 C 160.8125 271.371094 161.4375 271.707031 162.03125 272.101562 C 162.625 272.496094 163.171875 272.945312 163.675781 273.449219 C 164.179688 273.953125 164.628906 274.503906 165.023438 275.09375 C 165.421875 275.6875 165.753906 276.3125 166.027344 276.96875 C 166.300781 277.628906 166.503906 278.308594 166.644531 279.007812 C 166.78125 279.703125 166.851562 280.410156 166.851562 281.121094 Z M 166.851562 281.121094 " fill-opacity="1" fill-rule="nonzero"/><g clip-path="url(#c328ae205f)"><path fill="#aa233b" d="M 375.953125 183.4375 C 375.558594 183.4375 375.191406 183.535156 374.847656 183.730469 C 374.507812 183.929688 374.238281 184.199219 374.039062 184.542969 L 309.746094 295.902344 C 309.546875 296.246094 309.449219 296.613281 309.449219 297.007812 C 309.449219 297.402344 309.546875 297.773438 309.746094 298.113281 L 374.039062 409.476562 C 374.238281 409.820312 374.507812 410.089844 374.847656 410.285156 C 375.191406 410.484375 375.558594 410.582031 375.953125 410.582031 L 504.546875 410.582031 C 504.941406 410.582031 505.308594 410.484375 505.648438 410.285156 C 505.992188 410.089844 506.261719 409.820312 506.457031 409.476562 L 570.753906 298.113281 C 570.953125 297.773438 571.050781 297.402344 571.050781 297.007812 C 571.050781 296.613281 570.953125 296.246094 570.753906 295.902344 L 506.457031 184.542969 C 506.261719 184.199219 505.992188 183.929688 505.652344 183.734375 C 505.308594 183.535156 504.941406 183.4375 504.546875 183.4375 Z M 377.230469 187.855469 L 503.269531 187.855469 L 566.289062 297.007812 L 503.269531 406.160156 L 377.230469 406.160156 L 314.210938 297.007812 Z M 377.230469 187.855469 " fill-opacity="1" fill-rule="nonzero"/></g><path fill="#aa233b" d="M 515.394531 185.648438 C 515.394531 186.359375 515.328125 187.066406 515.1875 187.765625 C 515.046875 188.460938 514.84375 189.140625 514.570312 189.800781 C 514.296875 190.457031 513.960938 191.082031 513.566406 191.675781 C 513.171875 192.269531 512.722656 192.816406 512.21875 193.320312 C 511.714844 193.824219 511.164062 194.273438 510.574219 194.667969 C 509.980469 195.066406 509.355469 195.398438 508.699219 195.671875 C 508.039062 195.945312 507.359375 196.148438 506.664062 196.289062 C 505.964844 196.429688 505.257812 196.496094 504.546875 196.496094 C 503.832031 196.496094 503.128906 196.429688 502.429688 196.289062 C 501.730469 196.148438 501.050781 195.945312 500.394531 195.671875 C 499.734375 195.398438 499.109375 195.066406 498.515625 194.667969 C 497.925781 194.273438 497.378906 193.824219 496.875 193.320312 C 496.371094 192.816406 495.921875 192.269531 495.523438 191.675781 C 495.128906 191.082031 494.792969 190.457031 494.519531 189.800781 C 494.25 189.140625 494.042969 188.460938 493.902344 187.765625 C 493.765625 187.066406 493.695312 186.359375 493.695312 185.648438 C 493.695312 184.933594 493.765625 184.230469 493.90625 183.53125 C 494.042969 182.832031 494.25 182.152344 494.523438 181.496094 C 494.792969 180.835938 495.128906 180.210938 495.523438 179.621094 C 495.921875 179.027344 496.371094 178.480469 496.875 177.976562 C 497.378906 177.472656 497.925781 177.023438 498.519531 176.625 C 499.109375 176.230469 499.734375 175.894531 500.394531 175.625 C 501.050781 175.351562 501.730469 175.144531 502.429688 175.007812 C 503.128906 174.867188 503.832031 174.796875 504.546875 174.796875 C 505.257812 174.796875 505.964844 174.867188 506.664062 175.003906 C 507.363281 175.144531 508.039062 175.351562 508.699219 175.625 C 509.355469 175.894531 509.980469 176.230469 510.574219 176.625 C 511.167969 177.023438 511.714844 177.472656 512.21875 177.976562 C 512.722656 178.480469 513.171875 179.027344 513.566406 179.621094 C 513.964844 180.210938 514.296875 180.835938 514.570312 181.496094 C 514.84375 182.152344 515.050781 182.832031 515.1875 183.53125 C 515.328125 184.230469 515.394531 184.933594 515.394531 185.648438 Z M 515.394531 185.648438 " fill-opacity="1" fill-rule="nonzero"/><path fill="#aa233b" d="M 515.394531 408.375 C 515.394531 409.085938 515.328125 409.792969 515.1875 410.488281 C 515.046875 411.1875 514.84375 411.867188 514.570312 412.523438 C 514.296875 413.183594 513.960938 413.808594 513.566406 414.402344 C 513.171875 414.992188 512.722656 415.542969 512.21875 416.046875 C 511.714844 416.550781 511.164062 417 510.574219 417.394531 C 509.980469 417.789062 509.355469 418.125 508.699219 418.398438 C 508.039062 418.667969 507.359375 418.875 506.664062 419.015625 C 505.964844 419.152344 505.257812 419.222656 504.546875 419.222656 C 503.832031 419.222656 503.128906 419.152344 502.429688 419.015625 C 501.730469 418.875 501.050781 418.667969 500.394531 418.398438 C 499.734375 418.125 499.109375 417.789062 498.515625 417.394531 C 497.925781 417 497.378906 416.550781 496.875 416.046875 C 496.371094 415.542969 495.921875 414.992188 495.523438 414.402344 C 495.128906 413.808594 494.792969 413.183594 494.519531 412.523438 C 494.25 411.867188 494.042969 411.1875 493.902344 410.488281 C 493.765625 409.792969 493.695312 409.085938 493.695312 408.375 C 493.695312 407.660156 493.765625 406.953125 493.90625 406.257812 C 494.042969 405.558594 494.25 404.878906 494.523438 404.222656 C 494.792969 403.5625 495.128906 402.9375 495.523438 402.34375 C 495.921875 401.753906 496.371094 401.203125 496.875 400.699219 C 497.378906 400.195312 497.925781 399.746094 498.519531 399.351562 C 499.109375 398.957031 499.734375 398.621094 500.394531 398.347656 C 501.050781 398.074219 501.730469 397.871094 502.429688 397.730469 C 503.128906 397.59375 503.832031 397.523438 504.546875 397.523438 C 505.257812 397.523438 505.964844 397.59375 506.664062 397.730469 C 507.359375 397.871094 508.039062 398.074219 508.699219 398.347656 C 509.355469 398.621094 509.980469 398.957031 510.574219 399.351562 C 511.164062 399.746094 511.714844 400.195312 512.21875 400.699219 C 512.722656 401.203125 513.171875 401.753906 513.566406 402.34375 C 513.960938 402.9375 514.296875 403.5625 514.570312 404.21875 C 514.84375 404.878906 515.046875 405.558594 515.1875 406.257812 C 515.328125 406.953125 515.394531 407.660156 515.394531 408.375 Z M 515.394531 408.375 " fill-opacity="1" fill-rule="nonzero"/><path fill="#aa233b" d="M 323.925781 350.617188 C 323.496094 350.617188 323.171875 350.804688 322.953125 351.179688 L 290.261719 407.800781 C 290.046875 408.175781 290.046875 408.550781 290.261719 408.925781 L 322.953125 465.550781 C 323.171875 465.921875 323.496094 466.109375 323.925781 466.109375 L 389.308594 466.109375 C 389.742188 466.109375 390.066406 465.921875 390.28125 465.550781 L 422.972656 408.925781 C 423.191406 408.550781 423.191406 408.175781 422.972656 407.800781 L 390.28125 351.179688 C 390.066406 350.804688 389.742188 350.617188 389.308594 350.617188 Z M 324.574219 352.867188 L 388.660156 352.867188 L 420.703125 408.363281 L 388.660156 463.863281 L 324.574219 463.863281 L 292.535156 408.363281 Z M 324.574219 352.867188 " fill-opacity="1" fill-rule="nonzero"/><path fill="#aa233b" d="M 369.898438 49.917969 C 369.464844 49.917969 369.140625 50.105469 368.921875 50.476562 L 336.234375 107.101562 C 336.015625 107.476562 336.015625 107.851562 336.234375 108.226562 L 368.921875 164.847656 C 369.140625 165.222656 369.464844 165.410156 369.898438 165.410156 L 435.28125 165.410156 C 435.710938 165.410156 436.035156 165.222656 436.253906 164.847656 L 468.945312 108.226562 C 469.160156 107.851562 469.160156 107.476562 468.945312 107.101562 L 436.253906 50.476562 C 436.035156 50.105469 435.710938 49.917969 435.28125 49.917969 Z M 370.546875 52.164062 L 434.628906 52.164062 L 466.671875 107.664062 L 434.632812 163.160156 L 370.546875 163.160156 L 338.503906 107.664062 Z M 370.546875 52.164062 " fill-opacity="1" fill-rule="nonzero"/><g clip-path="url(#8ae55fa14a)"><path fill="#aa233b" d="M 33.964844 239.257812 C 33.535156 239.257812 33.210938 239.445312 32.992188 239.816406 L 0.300781 296.441406 C 0.0859375 296.816406 0.0859375 297.191406 0.300781 297.566406 L 32.992188 354.1875 C 33.210938 354.5625 33.535156 354.75 33.964844 354.75 L 99.347656 354.75 C 99.78125 354.75 100.105469 354.5625 100.320312 354.1875 L 133.011719 297.566406 C 133.230469 297.191406 133.230469 296.816406 133.011719 296.441406 L 100.320312 239.816406 C 100.105469 239.445312 99.78125 239.257812 99.347656 239.257812 Z M 34.617188 241.503906 L 98.699219 241.503906 L 130.742188 297.003906 L 98.699219 352.5 L 34.617188 352.5 L 2.574219 297.003906 Z M 34.617188 241.503906 " fill-opacity="1" fill-rule="nonzero"/></g><path fill="#aa233b" d="M 19 214.011719 C 18.800781 214.011719 18.652344 214.097656 18.554688 214.265625 L 3.636719 240.109375 C 3.539062 240.277344 3.539062 240.449219 3.636719 240.621094 L 18.554688 266.460938 C 18.652344 266.632812 18.800781 266.71875 19 266.71875 L 48.835938 266.71875 C 49.035156 266.71875 49.183594 266.632812 49.28125 266.460938 L 64.199219 240.621094 C 64.300781 240.449219 64.300781 240.277344 64.199219 240.109375 L 49.28125 214.265625 C 49.183594 214.097656 49.035156 214.011719 48.835938 214.011719 Z M 19.296875 215.035156 L 48.539062 215.035156 L 63.164062 240.363281 L 48.542969 265.691406 L 19.296875 265.691406 L 4.671875 240.363281 Z M 19.296875 215.035156 " fill-opacity="1" fill-rule="nonzero"/><path fill="#aa233b" d="M 122.207031 0.644531 C 121.773438 0.644531 121.449219 0.832031 121.234375 1.207031 L 88.542969 57.828125 C 88.324219 58.203125 88.324219 58.578125 88.542969 58.953125 L 121.234375 115.574219 C 121.449219 115.949219 121.773438 116.136719 122.207031 116.136719 L 187.589844 116.136719 C 188.019531 116.136719 188.34375 115.949219 188.5625 115.574219 L 221.253906 58.953125 C 221.46875 58.578125 221.46875 58.203125 221.253906 57.828125 L 188.5625 1.207031 C 188.34375 0.832031 188.019531 0.644531 187.589844 0.644531 Z M 122.855469 2.890625 L 186.9375 2.890625 L 218.980469 58.390625 L 186.941406 113.886719 L 122.855469 113.886719 L 90.8125 58.390625 Z M 122.855469 2.890625 " fill-opacity="1" fill-rule="nonzero"/><path fill="#aa233b" d="M 244.792969 433.214844 C 244.597656 433.214844 244.449219 433.300781 244.351562 433.472656 L 229.429688 459.3125 C 229.332031 459.484375 229.332031 459.65625 229.429688 459.828125 L 244.351562 485.667969 C 244.449219 485.839844 244.597656 485.921875 244.792969 485.921875 L 274.632812 485.921875 C 274.832031 485.921875 274.976562 485.835938 275.078125 485.667969 L 289.996094 459.828125 C 290.09375 459.65625 290.09375 459.484375 289.996094 459.3125 L 275.078125 433.472656 C 274.976562 433.300781 274.832031 433.214844 274.632812 433.214844 Z M 245.089844 434.242188 L 274.335938 434.242188 L 288.960938 459.570312 L 274.335938 484.898438 L 245.089844 484.898438 L 230.46875 459.570312 Z M 245.089844 434.242188 " fill-opacity="1" fill-rule="nonzero"/><path fill="#aa233b" d="M 455.617188 333.796875 C 455.421875 333.796875 455.273438 333.882812 455.175781 334.054688 L 440.253906 359.894531 C 440.15625 360.066406 440.15625 360.238281 440.253906 360.40625 L 455.175781 386.25 C 455.273438 386.417969 455.421875 386.503906 455.617188 386.503906 L 485.457031 386.503906 C 485.652344 386.503906 485.800781 386.417969 485.902344 386.25 L 500.820312 360.40625 C 500.917969 360.238281 500.917969 360.066406 500.820312 359.894531 L 485.902344 334.054688 C 485.800781 333.882812 485.652344 333.796875 485.457031 333.796875 Z M 455.914062 334.824219 L 485.160156 334.824219 L 499.78125 360.152344 L 485.160156 385.480469 L 455.914062 385.480469 L 441.292969 360.152344 Z M 455.914062 334.824219 " fill-opacity="1" fill-rule="nonzero"/></svg>