<svg xmlns="http://www.w3.org/2000/svg" xmlns:xlink="http://www.w3.org/1999/xlink" width="100" zoomAndPan="magnify" viewBox="0 0 75 26.999998" height="36" preserveAspectRatio="xMidYMid meet" version="1.0"><defs><clipPath id="634047826d"><path d="M 0 0 L 75 0 L 75 26.25 L 0 26.25 Z M 0 0 " clip-rule="nonzero"/></clipPath></defs><g clip-path="url(#634047826d)"><path fill="#b91f36" d="M 8.519531 8.164062 L 15.613281 8.164062 L 18.097656 12.105469 L 45.367188 12.105469 L 47.234375 9.140625 L 33 9.140625 L 30.515625 5.199219 L 23.945312 5.199219 C 23.742188 5.691406 23.257812 6.035156 22.691406 6.035156 C 21.941406 6.035156 21.335938 5.429688 21.335938 4.679688 C 21.335938 3.929688 21.941406 3.324219 22.691406 3.324219 C 23.277344 3.324219 23.777344 3.691406 23.964844 4.210938 L 31.0625 4.210938 L 33.546875 8.152344 L 47.855469 8.152344 L 49.964844 4.808594 L 56.804688 4.808594 C 57.007812 4.308594 57.496094 3.957031 58.066406 3.957031 C 58.816406 3.957031 59.421875 4.566406 59.421875 5.316406 C 59.421875 6.066406 58.816406 6.671875 58.066406 6.671875 C 57.484375 6.671875 56.992188 6.308594 56.796875 5.796875 L 50.507812 5.796875 L 50.292969 6.140625 L 49.023438 8.152344 L 60.8125 8.152344 L 65.414062 0.855469 L 72.253906 0.855469 C 72.453125 0.355469 72.941406 0.00390625 73.515625 0.00390625 C 74.261719 0.00390625 74.871094 0.613281 74.871094 1.359375 C 74.871094 2.109375 74.261719 2.71875 73.515625 2.71875 C 72.933594 2.71875 72.4375 2.355469 72.246094 1.84375 L 65.957031 1.84375 L 65.738281 2.1875 L 61.359375 9.140625 L 48.402344 9.140625 L 45.910156 13.09375 L 17.554688 13.09375 L 15.070312 9.152344 L 8.5 9.152344 C 8.296875 9.644531 7.8125 9.992188 7.246094 9.992188 C 6.496094 9.992188 5.886719 9.382812 5.886719 8.632812 C 5.886719 7.882812 6.496094 7.277344 7.246094 7.277344 C 7.828125 7.277344 8.328125 7.644531 8.519531 8.164062 Z M 2.632812 22.050781 L 9.726562 22.050781 L 12.210938 18.109375 L 30.464844 18.109375 L 29.59375 19.488281 L 23.023438 19.488281 C 22.820312 18.996094 22.335938 18.648438 21.769531 18.648438 C 21.019531 18.648438 20.414062 19.257812 20.414062 20.007812 C 20.414062 20.757812 21.019531 21.363281 21.769531 21.363281 C 22.355469 21.363281 22.851562 20.996094 23.042969 20.476562 L 30.140625 20.476562 L 31.632812 18.109375 L 39.480469 18.109375 L 44.078125 25.40625 L 50.917969 25.40625 C 51.121094 25.90625 51.609375 26.257812 52.179688 26.257812 C 52.929688 26.257812 53.535156 25.648438 53.535156 24.898438 C 53.535156 24.152344 52.929688 23.542969 52.179688 23.542969 C 51.597656 23.542969 51.105469 23.90625 50.910156 24.417969 L 44.621094 24.417969 L 44.40625 24.074219 L 40.023438 17.121094 L 32.253906 17.121094 L 32.625 16.535156 L 59.890625 16.535156 L 64.488281 23.832031 L 71.332031 23.832031 C 71.53125 24.332031 72.019531 24.683594 72.589844 24.683594 C 73.339844 24.683594 73.949219 24.074219 73.949219 23.328125 C 73.949219 22.578125 73.339844 21.96875 72.589844 21.96875 C 72.011719 21.96875 71.515625 22.332031 71.320312 22.84375 L 65.035156 22.84375 L 64.816406 22.5 L 60.433594 15.546875 L 32.078125 15.546875 L 31.085938 17.121094 L 11.667969 17.121094 L 9.183594 21.0625 L 2.613281 21.0625 C 2.410156 20.570312 1.921875 20.222656 1.359375 20.222656 C 0.609375 20.222656 0 20.832031 0 21.582031 C 0 22.332031 0.609375 22.9375 1.359375 22.9375 C 1.941406 22.9375 2.441406 22.570312 2.632812 22.050781 Z M 2.632812 22.050781 " fill-opacity="1" fill-rule="evenodd"/><path fill="#b91f36" d="M 8.519531 8.164062 L 15.613281 8.164062 L 18.097656 12.105469 L 45.367188 12.105469 L 47.234375 9.140625 L 33 9.140625 L 30.515625 5.199219 L 23.945312 5.199219 C 23.742188 5.691406 23.257812 6.035156 22.691406 6.035156 C 21.941406 6.035156 21.335938 5.429688 21.335938 4.679688 C 21.335938 3.929688 21.941406 3.324219 22.691406 3.324219 C 23.277344 3.324219 23.777344 3.691406 23.964844 4.210938 L 31.0625 4.210938 L 33.546875 8.152344 L 47.855469 8.152344 L 49.964844 4.808594 L 56.804688 4.808594 C 57.007812 4.308594 57.496094 3.957031 58.066406 3.957031 C 58.816406 3.957031 59.421875 4.566406 59.421875 5.316406 C 59.421875 6.066406 58.816406 6.671875 58.066406 6.671875 C 57.484375 6.671875 56.992188 6.308594 56.796875 5.796875 L 50.507812 5.796875 L 50.292969 6.140625 L 49.023438 8.152344 L 60.8125 8.152344 L 65.414062 0.855469 L 72.253906 0.855469 C 72.453125 0.355469 72.941406 0.00390625 73.515625 0.00390625 C 74.261719 0.00390625 74.871094 0.613281 74.871094 1.359375 C 74.871094 2.109375 74.261719 2.71875 73.515625 2.71875 C 72.933594 2.71875 72.4375 2.355469 72.246094 1.84375 L 65.957031 1.84375 L 65.738281 2.1875 L 61.359375 9.140625 L 48.402344 9.140625 L 45.910156 13.09375 L 17.554688 13.09375 L 15.070312 9.152344 L 8.5 9.152344 C 8.296875 9.644531 7.8125 9.992188 7.246094 9.992188 C 6.496094 9.992188 5.886719 9.382812 5.886719 8.632812 C 5.886719 7.882812 6.496094 7.277344 7.246094 7.277344 C 7.828125 7.277344 8.328125 7.644531 8.519531 8.164062 Z M 2.632812 22.050781 L 9.726562 22.050781 L 12.210938 18.109375 L 30.464844 18.109375 L 29.59375 19.488281 L 23.023438 19.488281 C 22.820312 18.996094 22.335938 18.648438 21.769531 18.648438 C 21.019531 18.648438 20.414062 19.257812 20.414062 20.007812 C 20.414062 20.757812 21.019531 21.363281 21.769531 21.363281 C 22.355469 21.363281 22.851562 20.996094 23.042969 20.476562 L 30.140625 20.476562 L 31.632812 18.109375 L 39.480469 18.109375 L 44.078125 25.40625 L 50.917969 25.40625 C 51.121094 25.90625 51.609375 26.257812 52.179688 26.257812 C 52.929688 26.257812 53.535156 25.648438 53.535156 24.898438 C 53.535156 24.152344 52.929688 23.542969 52.179688 23.542969 C 51.597656 23.542969 51.105469 23.90625 50.910156 24.417969 L 44.621094 24.417969 L 44.40625 24.074219 L 40.023438 17.121094 L 32.253906 17.121094 L 32.625 16.535156 L 59.890625 16.535156 L 64.488281 23.832031 L 71.332031 23.832031 C 71.53125 24.332031 72.019531 24.683594 72.589844 24.683594 C 73.339844 24.683594 73.949219 24.074219 73.949219 23.328125 C 73.949219 22.578125 73.339844 21.96875 72.589844 21.96875 C 72.011719 21.96875 71.515625 22.332031 71.320312 22.84375 L 65.035156 22.84375 L 64.816406 22.5 L 60.433594 15.546875 L 32.078125 15.546875 L 31.085938 17.121094 L 11.667969 17.121094 L 9.183594 21.0625 L 2.613281 21.0625 C 2.410156 20.570312 1.921875 20.222656 1.359375 20.222656 C 0.609375 20.222656 0 20.832031 0 21.582031 C 0 22.332031 0.609375 22.9375 1.359375 22.9375 C 1.941406 22.9375 2.441406 22.570312 2.632812 22.050781 Z M 2.632812 22.050781 " fill-opacity="1" fill-rule="evenodd"/></g></svg>