<svg xmlns="http://www.w3.org/2000/svg" xmlns:xlink="http://www.w3.org/1999/xlink" width="241" zoomAndPan="magnify" viewBox="0 0 180.75 150.749998" height="201" preserveAspectRatio="xMidYMid meet" version="1.0"><defs><clipPath id="e27213e143"><path d="M 0.0234375 0 L 180.476562 0 L 180.476562 149.75 L 0.0234375 149.75 Z M 0.0234375 0 " clip-rule="nonzero"/></clipPath></defs><g clip-path="url(#e27213e143)"><path fill="#aa233b" d="M 50.269531 2.871094 C 49.824219 2.441406 49.152344 2.441406 48.707031 2.871094 C 48.273438 3.316406 48.273438 3.988281 48.707031 4.433594 C 49.082031 4.796875 49.625 4.855469 50.046875 4.601562 L 62.421875 16.972656 L 62.421875 24.597656 L 74.0625 36.234375 L 103.515625 36.234375 L 110.078125 29.671875 L 177.957031 29.671875 C 178.078125 30.148438 178.511719 30.503906 179.027344 30.503906 C 179.632812 30.503906 180.132812 30.007812 180.132812 29.398438 C 180.132812 28.792969 179.636719 28.292969 179.027344 28.292969 C 178.511719 28.292969 178.078125 28.648438 177.957031 29.125 L 109.855469 29.125 L 103.292969 35.6875 L 74.289062 35.6875 L 62.972656 24.367188 L 62.972656 16.746094 L 50.433594 4.210938 C 50.691406 3.789062 50.636719 3.246094 50.269531 2.871094 M 3.324219 15.488281 C 2.714844 15.488281 2.21875 15.984375 2.21875 16.59375 C 2.21875 17.203125 2.710938 17.703125 3.324219 17.703125 C 3.835938 17.703125 4.269531 17.347656 4.394531 16.871094 L 39.019531 16.871094 L 45.808594 23.65625 L 45.808594 38.65625 L 69.617188 62.464844 L 101.652344 62.464844 L 108.484375 69.300781 L 144.421875 69.300781 C 144.546875 69.773438 144.980469 70.128906 145.496094 70.128906 C 146.101562 70.128906 146.601562 69.636719 146.601562 69.023438 C 146.601562 68.417969 146.105469 67.917969 145.496094 67.917969 C 144.980469 67.917969 144.546875 68.273438 144.421875 68.75 L 108.710938 68.75 L 101.878906 61.917969 L 69.84375 61.917969 L 46.351562 38.425781 L 46.351562 23.429688 L 39.246094 16.320312 L 4.394531 16.320312 C 4.269531 15.839844 3.835938 15.488281 3.324219 15.488281 Z M 62.191406 32.085938 C 61.746094 31.652344 61.074219 31.652344 60.628906 32.085938 C 60.195312 32.53125 60.195312 33.203125 60.628906 33.648438 C 61.003906 34.011719 61.542969 34.070312 61.96875 33.8125 L 73.625 45.46875 L 106.8125 45.46875 L 114.003906 38.277344 L 137.851562 38.277344 C 137.972656 38.75 138.40625 39.109375 138.921875 39.109375 C 139.527344 39.109375 140.027344 38.613281 140.027344 38 C 140.027344 37.394531 139.53125 36.894531 138.921875 36.894531 C 138.40625 36.894531 137.972656 37.25 137.851562 37.726562 L 113.78125 37.726562 L 106.585938 44.917969 L 73.855469 44.917969 L 62.363281 33.425781 C 62.613281 33.003906 62.554688 32.464844 62.191406 32.085938 Z M 78.652344 27.457031 C 78.042969 27.457031 77.542969 27.953125 77.542969 28.5625 C 77.542969 29.171875 78.039062 29.667969 78.652344 29.667969 C 79.164062 29.667969 79.597656 29.3125 79.722656 28.835938 L 99.414062 28.835938 L 108.441406 19.8125 L 140.429688 19.8125 L 145.351562 14.890625 L 168.503906 14.890625 C 168.628906 15.367188 169.0625 15.722656 169.578125 15.722656 C 170.183594 15.722656 170.683594 15.226562 170.683594 14.617188 C 170.683594 14.007812 170.1875 13.511719 169.578125 13.511719 C 169.0625 13.511719 168.628906 13.867188 168.503906 14.339844 L 145.125 14.339844 L 140.199219 19.265625 L 108.210938 19.265625 L 99.1875 28.289062 L 79.722656 28.289062 C 79.597656 27.8125 79.164062 27.457031 78.652344 27.457031 Z M 66.527344 1.324219 C 65.234375 0.046875 63.171875 0.046875 61.875 1.324219 C 60.597656 2.621094 60.597656 4.683594 61.875 5.976562 C 62.972656 7.058594 64.605469 7.226562 65.871094 6.484375 L 78.140625 18.753906 L 92.488281 18.753906 L 100.472656 10.769531 L 114.28125 10.769531 C 114.648438 12.183594 115.941406 13.234375 117.464844 13.234375 C 119.273438 13.234375 120.75 11.757812 120.75 9.949219 C 120.75 8.140625 119.273438 6.660156 117.464844 6.660156 C 115.9375 6.660156 114.648438 7.714844 114.28125 9.128906 L 99.792969 9.128906 L 91.808594 17.113281 L 78.824219 17.113281 L 67.035156 5.320312 C 67.777344 4.058594 67.605469 2.421875 66.527344 1.324219 Z M 3.324219 18.648438 C 1.511719 18.648438 0.0351562 20.125 0.0351562 21.9375 C 0.0351562 23.746094 1.511719 25.222656 3.324219 25.222656 C 4.851562 25.222656 6.136719 24.171875 6.503906 22.753906 L 32.628906 22.753906 L 37 27.125 L 37 40.683594 L 66.21875 69.90625 L 66.21875 89.34375 L 80.546875 103.671875 C 79.804688 104.933594 79.96875 106.570312 81.050781 107.664062 C 82.347656 108.945312 84.40625 108.945312 85.703125 107.664062 C 86.984375 106.367188 86.984375 104.308594 85.703125 103.011719 C 84.609375 101.929688 82.972656 101.765625 81.710938 102.507812 L 67.863281 88.660156 L 67.863281 69.222656 L 38.640625 40 L 38.640625 26.441406 L 33.308594 21.109375 L 6.503906 21.109375 C 6.136719 19.699219 4.851562 18.648438 3.324219 18.648438 Z M 123.875 83.125 C 124.484375 83.125 124.980469 82.632812 124.980469 82.019531 C 124.980469 81.414062 124.488281 80.914062 123.875 80.914062 C 123.363281 80.914062 122.929688 81.269531 122.804688 81.746094 L 108.453125 81.746094 L 99.660156 72.953125 L 73.789062 72.953125 L 73.789062 84.683594 L 83.980469 94.875 L 96.175781 94.875 C 96.296875 95.347656 96.730469 95.703125 97.246094 95.703125 C 97.851562 95.703125 98.351562 95.210938 98.351562 94.597656 C 98.351562 93.992188 97.855469 93.492188 97.246094 93.492188 C 96.730469 93.492188 96.296875 93.847656 96.175781 94.324219 L 84.207031 94.324219 L 74.339844 84.457031 L 74.339844 73.503906 L 99.429688 73.503906 L 108.226562 82.296875 L 122.804688 82.296875 C 122.929688 82.769531 123.363281 83.125 123.875 83.125 Z M 3.324219 28.0625 C 2.714844 28.0625 2.21875 28.558594 2.21875 29.171875 C 2.21875 29.777344 2.710938 30.277344 3.324219 30.277344 C 3.835938 30.277344 4.269531 29.921875 4.394531 29.445312 L 26.773438 29.445312 L 29.488281 32.160156 L 29.488281 42.535156 L 17.449219 54.578125 L 17.449219 89.285156 L 31.8125 103.652344 L 31.8125 119.828125 C 31.335938 119.953125 30.980469 120.386719 30.980469 120.898438 C 30.980469 121.507812 31.476562 122.007812 32.085938 122.007812 C 32.695312 122.007812 33.195312 121.511719 33.195312 120.898438 C 33.195312 120.386719 32.835938 119.953125 32.363281 119.828125 L 32.363281 103.421875 L 17.996094 89.058594 L 17.996094 54.800781 L 30.039062 42.761719 L 30.039062 31.929688 L 27 28.890625 L 4.394531 28.890625 C 4.269531 28.421875 3.835938 28.0625 3.324219 28.0625 Z M 21.8125 41.519531 C 23.09375 40.226562 23.09375 38.164062 21.8125 36.867188 C 20.519531 35.589844 18.457031 35.589844 17.160156 36.867188 C 16.078125 37.964844 15.914062 39.597656 16.65625 40.863281 L 10.527344 46.992188 L 10.527344 94.933594 L 19.898438 104.308594 L 19.898438 128.976562 C 18.484375 129.34375 17.433594 130.636719 17.433594 132.160156 C 17.433594 133.96875 18.910156 135.445312 20.71875 135.445312 C 22.527344 135.445312 24.007812 133.96875 24.007812 132.160156 C 24.007812 130.632812 22.953125 129.34375 21.539062 128.976562 L 21.539062 103.628906 L 12.171875 94.257812 L 12.171875 47.675781 L 17.816406 42.03125 C 19.082031 42.773438 20.722656 42.601562 21.8125 41.519531 Z M 12.375 103.882812 C 12.375 103.277344 11.878906 102.777344 11.269531 102.777344 C 10.664062 102.777344 10.164062 103.273438 10.164062 103.882812 C 10.164062 104.398438 10.519531 104.832031 10.996094 104.953125 L 10.996094 123.578125 L 7.089844 127.484375 L 7.089844 147.691406 C 6.613281 147.816406 6.257812 148.25 6.257812 148.765625 C 6.257812 149.371094 6.753906 149.871094 7.363281 149.871094 C 7.972656 149.871094 8.46875 149.375 8.46875 148.765625 C 8.46875 148.25 8.113281 147.816406 7.636719 147.691406 L 7.636719 127.710938 L 11.542969 123.804688 L 11.542969 104.953125 C 12.023438 104.832031 12.375 104.398438 12.375 103.882812 Z M 35.398438 52.960938 C 34.953125 52.527344 34.28125 52.527344 33.835938 52.960938 C 33.402344 53.40625 33.402344 54.078125 33.835938 54.523438 C 34.210938 54.886719 34.75 54.945312 35.175781 54.691406 L 54.230469 73.746094 L 54.230469 92.648438 L 77.078125 115.496094 L 119.027344 115.496094 C 119.152344 115.96875 119.582031 116.324219 120.097656 116.324219 C 120.703125 116.324219 121.203125 115.832031 121.203125 115.21875 C 121.203125 114.613281 120.707031 114.113281 120.097656 114.113281 C 119.582031 114.113281 119.152344 114.46875 119.027344 114.945312 L 77.304688 114.945312 L 54.78125 92.421875 L 54.78125 73.515625 L 35.5625 54.300781 C 35.820312 53.878906 35.761719 53.339844 35.398438 52.960938 Z M 36.820312 48.207031 C 37.253906 47.761719 37.253906 47.089844 36.820312 46.644531 C 36.375 46.210938 35.703125 46.210938 35.257812 46.644531 C 34.894531 47.019531 34.835938 47.558594 35.09375 47.984375 L 24.664062 58.414062 L 24.664062 84.675781 L 40.027344 100.039062 L 40.027344 135.441406 C 39.550781 135.566406 39.195312 136 39.195312 136.515625 C 39.195312 137.121094 39.691406 137.621094 40.300781 137.621094 C 40.90625 137.621094 41.40625 137.125 41.40625 136.515625 C 41.40625 136 41.050781 135.566406 40.574219 135.441406 L 40.574219 99.816406 L 25.210938 84.453125 L 25.210938 58.640625 L 35.484375 48.371094 C 35.902344 48.628906 36.445312 48.574219 36.820312 48.207031 Z M 42.121094 67.636719 C 42.109375 65.207031 40.164062 63.265625 37.738281 63.25 C 35.308594 63.261719 33.367188 65.207031 33.351562 67.636719 C 33.363281 69.6875 34.746094 71.390625 36.640625 71.878906 L 36.640625 86.5 L 46.664062 96.527344 L 46.664062 110.242188 C 44.773438 110.734375 43.390625 112.4375 43.378906 114.484375 C 43.390625 116.914062 45.335938 118.855469 47.761719 118.871094 C 50.191406 118.859375 52.132812 116.914062 52.148438 114.484375 C 52.136719 112.4375 50.753906 110.730469 48.863281 110.242188 L 48.863281 95.621094 L 38.835938 85.59375 L 38.835938 71.878906 C 40.726562 71.390625 42.109375 69.6875 42.121094 67.636719 Z M 3.324219 8.75 C 2.714844 8.75 2.21875 9.246094 2.21875 9.855469 C 2.21875 10.464844 2.710938 10.960938 3.324219 10.960938 C 3.835938 10.960938 4.269531 10.605469 4.394531 10.128906 L 43.378906 10.128906 L 53.984375 20.738281 L 53.984375 36.601562 L 72.183594 54.800781 L 114.585938 54.800781 C 114.710938 55.277344 115.144531 55.632812 115.660156 55.632812 C 116.265625 55.632812 116.765625 55.140625 116.765625 54.527344 C 116.765625 53.921875 116.269531 53.421875 115.660156 53.421875 C 115.144531 53.421875 114.710938 53.777344 114.585938 54.253906 L 72.410156 54.253906 L 54.53125 36.375 L 54.53125 20.507812 L 43.601562 9.582031 L 4.394531 9.582031 C 4.269531 9.101562 3.835938 8.75 3.324219 8.75 Z M 3.324219 8.75 " fill-opacity="1" fill-rule="nonzero"/><path fill="#aa233b" d="M 50.269531 2.871094 C 49.824219 2.441406 49.152344 2.441406 48.707031 2.871094 C 48.273438 3.316406 48.273438 3.988281 48.707031 4.433594 C 49.082031 4.796875 49.625 4.855469 50.046875 4.601562 L 62.421875 16.972656 L 62.421875 24.597656 L 74.0625 36.234375 L 103.515625 36.234375 L 110.078125 29.671875 L 177.957031 29.671875 C 178.078125 30.148438 178.511719 30.503906 179.027344 30.503906 C 179.632812 30.503906 180.132812 30.007812 180.132812 29.398438 C 180.132812 28.792969 179.636719 28.292969 179.027344 28.292969 C 178.511719 28.292969 178.078125 28.648438 177.957031 29.125 L 109.855469 29.125 L 103.292969 35.6875 L 74.289062 35.6875 L 62.972656 24.367188 L 62.972656 16.746094 L 50.433594 4.210938 C 50.691406 3.789062 50.636719 3.246094 50.269531 2.871094 M 3.324219 15.488281 C 2.714844 15.488281 2.21875 15.984375 2.21875 16.59375 C 2.21875 17.203125 2.710938 17.703125 3.324219 17.703125 C 3.835938 17.703125 4.269531 17.347656 4.394531 16.871094 L 39.019531 16.871094 L 45.808594 23.65625 L 45.808594 38.65625 L 69.617188 62.464844 L 101.652344 62.464844 L 108.484375 69.300781 L 144.421875 69.300781 C 144.546875 69.773438 144.980469 70.128906 145.496094 70.128906 C 146.101562 70.128906 146.601562 69.636719 146.601562 69.023438 C 146.601562 68.417969 146.105469 67.917969 145.496094 67.917969 C 144.980469 67.917969 144.546875 68.273438 144.421875 68.75 L 108.710938 68.75 L 101.878906 61.917969 L 69.84375 61.917969 L 46.351562 38.425781 L 46.351562 23.429688 L 39.246094 16.320312 L 4.394531 16.320312 C 4.269531 15.839844 3.835938 15.488281 3.324219 15.488281 Z M 62.191406 32.085938 C 61.746094 31.652344 61.074219 31.652344 60.628906 32.085938 C 60.195312 32.53125 60.195312 33.203125 60.628906 33.648438 C 61.003906 34.011719 61.542969 34.070312 61.96875 33.8125 L 73.625 45.46875 L 106.8125 45.46875 L 114.003906 38.277344 L 137.851562 38.277344 C 137.972656 38.75 138.40625 39.109375 138.921875 39.109375 C 139.527344 39.109375 140.027344 38.613281 140.027344 38 C 140.027344 37.394531 139.53125 36.894531 138.921875 36.894531 C 138.40625 36.894531 137.972656 37.25 137.851562 37.726562 L 113.78125 37.726562 L 106.585938 44.917969 L 73.855469 44.917969 L 62.363281 33.425781 C 62.613281 33.003906 62.554688 32.464844 62.191406 32.085938 Z M 78.652344 27.457031 C 78.042969 27.457031 77.542969 27.953125 77.542969 28.5625 C 77.542969 29.171875 78.039062 29.667969 78.652344 29.667969 C 79.164062 29.667969 79.597656 29.3125 79.722656 28.835938 L 99.414062 28.835938 L 108.441406 19.8125 L 140.429688 19.8125 L 145.351562 14.890625 L 168.503906 14.890625 C 168.628906 15.367188 169.0625 15.722656 169.578125 15.722656 C 170.183594 15.722656 170.683594 15.226562 170.683594 14.617188 C 170.683594 14.007812 170.1875 13.511719 169.578125 13.511719 C 169.0625 13.511719 168.628906 13.867188 168.503906 14.339844 L 145.125 14.339844 L 140.199219 19.265625 L 108.210938 19.265625 L 99.1875 28.289062 L 79.722656 28.289062 C 79.597656 27.8125 79.164062 27.457031 78.652344 27.457031 Z M 66.527344 1.324219 C 65.234375 0.046875 63.171875 0.046875 61.875 1.324219 C 60.597656 2.621094 60.597656 4.683594 61.875 5.976562 C 62.972656 7.058594 64.605469 7.226562 65.871094 6.484375 L 78.140625 18.753906 L 92.488281 18.753906 L 100.472656 10.769531 L 114.28125 10.769531 C 114.648438 12.183594 115.941406 13.234375 117.464844 13.234375 C 119.273438 13.234375 120.75 11.757812 120.75 9.949219 C 120.75 8.140625 119.273438 6.660156 117.464844 6.660156 C 115.9375 6.660156 114.648438 7.714844 114.28125 9.128906 L 99.792969 9.128906 L 91.808594 17.113281 L 78.824219 17.113281 L 67.035156 5.320312 C 67.777344 4.058594 67.605469 2.421875 66.527344 1.324219 Z M 3.324219 18.648438 C 1.511719 18.648438 0.0351562 20.125 0.0351562 21.9375 C 0.0351562 23.746094 1.511719 25.222656 3.324219 25.222656 C 4.851562 25.222656 6.136719 24.171875 6.503906 22.753906 L 32.628906 22.753906 L 37 27.125 L 37 40.683594 L 66.21875 69.90625 L 66.21875 89.34375 L 80.546875 103.671875 C 79.804688 104.933594 79.96875 106.570312 81.050781 107.664062 C 82.347656 108.945312 84.40625 108.945312 85.703125 107.664062 C 86.984375 106.367188 86.984375 104.308594 85.703125 103.011719 C 84.609375 101.929688 82.972656 101.765625 81.710938 102.507812 L 67.863281 88.660156 L 67.863281 69.222656 L 38.640625 40 L 38.640625 26.441406 L 33.308594 21.109375 L 6.503906 21.109375 C 6.136719 19.699219 4.851562 18.648438 3.324219 18.648438 Z M 123.875 83.125 C 124.484375 83.125 124.980469 82.632812 124.980469 82.019531 C 124.980469 81.414062 124.488281 80.914062 123.875 80.914062 C 123.363281 80.914062 122.929688 81.269531 122.804688 81.746094 L 108.453125 81.746094 L 99.660156 72.953125 L 73.789062 72.953125 L 73.789062 84.683594 L 83.980469 94.875 L 96.175781 94.875 C 96.296875 95.347656 96.730469 95.703125 97.246094 95.703125 C 97.851562 95.703125 98.351562 95.210938 98.351562 94.597656 C 98.351562 93.992188 97.855469 93.492188 97.246094 93.492188 C 96.730469 93.492188 96.296875 93.847656 96.175781 94.324219 L 84.207031 94.324219 L 74.339844 84.457031 L 74.339844 73.503906 L 99.429688 73.503906 L 108.226562 82.296875 L 122.804688 82.296875 C 122.929688 82.769531 123.363281 83.125 123.875 83.125 Z M 3.324219 28.0625 C 2.714844 28.0625 2.21875 28.558594 2.21875 29.171875 C 2.21875 29.777344 2.710938 30.277344 3.324219 30.277344 C 3.835938 30.277344 4.269531 29.921875 4.394531 29.445312 L 26.773438 29.445312 L 29.488281 32.160156 L 29.488281 42.535156 L 17.449219 54.578125 L 17.449219 89.285156 L 31.8125 103.652344 L 31.8125 119.828125 C 31.335938 119.953125 30.980469 120.386719 30.980469 120.898438 C 30.980469 121.507812 31.476562 122.007812 32.085938 122.007812 C 32.695312 122.007812 33.195312 121.511719 33.195312 120.898438 C 33.195312 120.386719 32.835938 119.953125 32.363281 119.828125 L 32.363281 103.421875 L 17.996094 89.058594 L 17.996094 54.800781 L 30.039062 42.761719 L 30.039062 31.929688 L 27 28.890625 L 4.394531 28.890625 C 4.269531 28.421875 3.835938 28.0625 3.324219 28.0625 Z M 21.8125 41.519531 C 23.09375 40.226562 23.09375 38.164062 21.8125 36.867188 C 20.519531 35.589844 18.457031 35.589844 17.160156 36.867188 C 16.078125 37.964844 15.914062 39.597656 16.65625 40.863281 L 10.527344 46.992188 L 10.527344 94.933594 L 19.898438 104.308594 L 19.898438 128.976562 C 18.484375 129.34375 17.433594 130.636719 17.433594 132.160156 C 17.433594 133.96875 18.910156 135.445312 20.71875 135.445312 C 22.527344 135.445312 24.007812 133.96875 24.007812 132.160156 C 24.007812 130.632812 22.953125 129.34375 21.539062 128.976562 L 21.539062 103.628906 L 12.171875 94.257812 L 12.171875 47.675781 L 17.816406 42.03125 C 19.082031 42.773438 20.722656 42.601562 21.8125 41.519531 Z M 12.375 103.882812 C 12.375 103.277344 11.878906 102.777344 11.269531 102.777344 C 10.664062 102.777344 10.164062 103.273438 10.164062 103.882812 C 10.164062 104.398438 10.519531 104.832031 10.996094 104.953125 L 10.996094 123.578125 L 7.089844 127.484375 L 7.089844 147.691406 C 6.613281 147.816406 6.257812 148.25 6.257812 148.765625 C 6.257812 149.371094 6.753906 149.871094 7.363281 149.871094 C 7.972656 149.871094 8.46875 149.375 8.46875 148.765625 C 8.46875 148.25 8.113281 147.816406 7.636719 147.691406 L 7.636719 127.710938 L 11.542969 123.804688 L 11.542969 104.953125 C 12.023438 104.832031 12.375 104.398438 12.375 103.882812 Z M 35.398438 52.960938 C 34.953125 52.527344 34.28125 52.527344 33.835938 52.960938 C 33.402344 53.40625 33.402344 54.078125 33.835938 54.523438 C 34.210938 54.886719 34.75 54.945312 35.175781 54.691406 L 54.230469 73.746094 L 54.230469 92.648438 L 77.078125 115.496094 L 119.027344 115.496094 C 119.152344 115.96875 119.582031 116.324219 120.097656 116.324219 C 120.703125 116.324219 121.203125 115.832031 121.203125 115.21875 C 121.203125 114.613281 120.707031 114.113281 120.097656 114.113281 C 119.582031 114.113281 119.152344 114.46875 119.027344 114.945312 L 77.304688 114.945312 L 54.78125 92.421875 L 54.78125 73.515625 L 35.5625 54.300781 C 35.820312 53.878906 35.761719 53.339844 35.398438 52.960938 Z M 36.820312 48.207031 C 37.253906 47.761719 37.253906 47.089844 36.820312 46.644531 C 36.375 46.210938 35.703125 46.210938 35.257812 46.644531 C 34.894531 47.019531 34.835938 47.558594 35.09375 47.984375 L 24.664062 58.414062 L 24.664062 84.675781 L 40.027344 100.039062 L 40.027344 135.441406 C 39.550781 135.566406 39.195312 136 39.195312 136.515625 C 39.195312 137.121094 39.691406 137.621094 40.300781 137.621094 C 40.90625 137.621094 41.40625 137.125 41.40625 136.515625 C 41.40625 136 41.050781 135.566406 40.574219 135.441406 L 40.574219 99.816406 L 25.210938 84.453125 L 25.210938 58.640625 L 35.484375 48.371094 C 35.902344 48.628906 36.445312 48.574219 36.820312 48.207031 Z M 42.121094 67.636719 C 42.109375 65.207031 40.164062 63.265625 37.738281 63.25 C 35.308594 63.261719 33.367188 65.207031 33.351562 67.636719 C 33.363281 69.6875 34.746094 71.390625 36.640625 71.878906 L 36.640625 86.5 L 46.664062 96.527344 L 46.664062 110.242188 C 44.773438 110.734375 43.390625 112.4375 43.378906 114.484375 C 43.390625 116.914062 45.335938 118.855469 47.761719 118.871094 C 50.191406 118.859375 52.132812 116.914062 52.148438 114.484375 C 52.136719 112.4375 50.753906 110.730469 48.863281 110.242188 L 48.863281 95.621094 L 38.835938 85.59375 L 38.835938 71.878906 C 40.726562 71.390625 42.109375 69.6875 42.121094 67.636719 Z M 3.324219 8.75 C 2.714844 8.75 2.21875 9.246094 2.21875 9.855469 C 2.21875 10.464844 2.710938 10.960938 3.324219 10.960938 C 3.835938 10.960938 4.269531 10.605469 4.394531 10.128906 L 43.378906 10.128906 L 53.984375 20.738281 L 53.984375 36.601562 L 72.183594 54.800781 L 114.585938 54.800781 C 114.710938 55.277344 115.144531 55.632812 115.660156 55.632812 C 116.265625 55.632812 116.765625 55.140625 116.765625 54.527344 C 116.765625 53.921875 116.269531 53.421875 115.660156 53.421875 C 115.144531 53.421875 114.710938 53.777344 114.585938 54.253906 L 72.410156 54.253906 L 54.53125 36.375 L 54.53125 20.507812 L 43.601562 9.582031 L 4.394531 9.582031 C 4.269531 9.101562 3.835938 8.75 3.324219 8.75 Z M 3.324219 8.75 " fill-opacity="1" fill-rule="nonzero"/></g></svg>