<svg xmlns="http://www.w3.org/2000/svg" xmlns:xlink="http://www.w3.org/1999/xlink" width="185" zoomAndPan="magnify" viewBox="0 0 138.75 150.75" height="201" preserveAspectRatio="xMidYMid meet" version="1.0"><defs><clipPath id="7a93ab65de"><path d="M 52 145 L 80 145 L 80 149.742188 L 52 149.742188 Z M 52 145 " clip-rule="nonzero"/></clipPath><clipPath id="000c09e512"><path d="M 85 145 L 138.5 145 L 138.5 149.742188 L 85 149.742188 Z M 85 145 " clip-rule="nonzero"/></clipPath><clipPath id="8067be5a0d"><path d="M 88 0.0117188 L 103 0.0117188 L 103 31 L 88 31 Z M 88 0.0117188 " clip-rule="nonzero"/></clipPath><clipPath id="6e71de8362"><path d="M 52 145 L 80 145 L 80 149.742188 L 52 149.742188 Z M 52 145 " clip-rule="nonzero"/></clipPath><clipPath id="1ed76959d7"><path d="M 85 145 L 138.5 145 L 138.5 149.742188 L 85 149.742188 Z M 85 145 " clip-rule="nonzero"/></clipPath><clipPath id="bb08856279"><path d="M 88 0.0117188 L 103 0.0117188 L 103 31 L 88 31 Z M 88 0.0117188 " clip-rule="nonzero"/></clipPath></defs><path fill="#aa233b" d="M 0 4.160156 L 19.3125 4.160156 L 19.3125 8.917969 L 0 8.917969 Z M 0 4.160156 " fill-opacity="1" fill-rule="nonzero"/><path fill="#aa233b" d="M 23.996094 4.160156 L 62.078125 4.160156 L 62.078125 8.917969 L 23.996094 8.917969 Z M 23.996094 4.160156 " fill-opacity="1" fill-rule="nonzero"/><path fill="#aa233b" d="M 0 13.023438 L 19.3125 13.023438 L 19.3125 17.78125 L 0 17.78125 Z M 0 13.023438 " fill-opacity="1" fill-rule="nonzero"/><path fill="#aa233b" d="M 23.996094 13.023438 L 48.890625 13.023438 L 48.890625 17.78125 L 23.996094 17.78125 Z M 23.996094 13.023438 " fill-opacity="1" fill-rule="nonzero"/><path fill="#aa233b" d="M 0 28.941406 L 19.3125 28.941406 L 19.3125 33.699219 L 0 33.699219 Z M 0 28.941406 " fill-opacity="1" fill-rule="nonzero"/><path fill="#aa233b" d="M 92.988281 52.3125 L 112.300781 52.3125 L 112.300781 57.070312 L 92.988281 57.070312 Z M 92.988281 52.3125 " fill-opacity="1" fill-rule="nonzero"/><path fill="#aa233b" d="M 23.996094 28.941406 L 34.058594 28.941406 L 34.058594 33.699219 L 23.996094 33.699219 Z M 23.996094 28.941406 " fill-opacity="1" fill-rule="nonzero"/><path fill="#aa233b" d="M 12.417969 37.804688 L 24.957031 37.804688 L 24.957031 42.5625 L 12.417969 42.5625 Z M 12.417969 37.804688 " fill-opacity="1" fill-rule="nonzero"/><path fill="#aa233b" d="M 29.640625 37.804688 L 67.71875 37.804688 L 67.71875 42.5625 L 29.640625 42.5625 Z M 29.640625 37.804688 " fill-opacity="1" fill-rule="nonzero"/><path fill="#aa233b" d="M 72.402344 37.804688 L 110.484375 37.804688 L 110.484375 42.5625 L 72.402344 42.5625 Z M 72.402344 37.804688 " fill-opacity="1" fill-rule="nonzero"/><path fill="#aa233b" d="M 38.742188 28.941406 L 76.824219 28.941406 L 76.824219 33.699219 L 38.742188 33.699219 Z M 38.742188 28.941406 " fill-opacity="1" fill-rule="nonzero"/><path fill="#aa233b" d="M 26.8125 52.3125 L 36.464844 52.3125 L 36.464844 57.070312 L 26.8125 57.070312 Z M 26.8125 52.3125 " fill-opacity="1" fill-rule="nonzero"/><path fill="#aa233b" d="M 40.566406 52.3125 L 88.886719 52.3125 L 88.886719 57.070312 L 40.566406 57.070312 Z M 40.566406 52.3125 " fill-opacity="1" fill-rule="nonzero"/><path fill="#aa233b" d="M 69.847656 61.175781 L 118.164062 61.175781 L 118.164062 65.933594 L 69.847656 65.933594 Z M 69.847656 61.175781 " fill-opacity="1" fill-rule="nonzero"/><path fill="#aa233b" d="M 26.8125 61.175781 L 46.121094 61.175781 L 46.121094 65.933594 L 26.8125 65.933594 Z M 26.8125 61.175781 " fill-opacity="1" fill-rule="nonzero"/><path fill="#aa233b" d="M 50.804688 61.175781 L 65.960938 61.175781 L 65.960938 65.933594 L 50.804688 65.933594 Z M 50.804688 61.175781 " fill-opacity="1" fill-rule="nonzero"/><path fill="#aa233b" d="M 26.8125 70.039062 L 40.199219 70.039062 L 40.199219 74.792969 L 26.8125 74.792969 Z M 26.8125 70.039062 " fill-opacity="1" fill-rule="nonzero"/><path fill="#aa233b" d="M 43.445312 70.039062 L 69.847656 70.039062 L 69.847656 74.792969 L 43.445312 74.792969 Z M 43.445312 70.039062 " fill-opacity="1" fill-rule="nonzero"/><path fill="#aa233b" d="M 16.933594 83.136719 L 36.246094 83.136719 L 36.246094 87.890625 L 16.933594 87.890625 Z M 16.933594 83.136719 " fill-opacity="1" fill-rule="nonzero"/><path fill="#aa233b" d="M 73.09375 70.039062 L 92.402344 70.039062 L 92.402344 74.792969 L 73.09375 74.792969 Z M 73.09375 70.039062 " fill-opacity="1" fill-rule="nonzero"/><path fill="#aa233b" d="M 40.929688 83.136719 L 79.007812 83.136719 L 79.007812 87.890625 L 40.929688 87.890625 Z M 40.929688 83.136719 " fill-opacity="1" fill-rule="nonzero"/><path fill="#aa233b" d="M 26.8125 91.996094 L 46.121094 91.996094 L 46.121094 96.753906 L 26.8125 96.753906 Z M 26.8125 91.996094 " fill-opacity="1" fill-rule="nonzero"/><path fill="#aa233b" d="M 50.804688 91.996094 L 88.886719 91.996094 L 88.886719 96.753906 L 50.804688 96.753906 Z M 50.804688 91.996094 " fill-opacity="1" fill-rule="nonzero"/><path fill="#aa233b" d="M 26.8125 100.859375 L 46.121094 100.859375 L 46.121094 105.617188 L 26.8125 105.617188 Z M 26.8125 100.859375 " fill-opacity="1" fill-rule="nonzero"/><path fill="#aa233b" d="M 50.804688 100.859375 L 124.511719 100.859375 L 124.511719 105.617188 L 50.804688 105.617188 Z M 50.804688 100.859375 " fill-opacity="1" fill-rule="nonzero"/><path fill="#aa233b" d="M 69.574219 109.722656 L 88.886719 109.722656 L 88.886719 114.480469 L 69.574219 114.480469 Z M 69.574219 109.722656 " fill-opacity="1" fill-rule="nonzero"/><path fill="#aa233b" d="M 26.8125 109.722656 L 64.890625 109.722656 L 64.890625 114.480469 L 26.8125 114.480469 Z M 26.8125 109.722656 " fill-opacity="1" fill-rule="nonzero"/><path fill="#aa233b" d="M 45.15625 118.585938 L 73.964844 118.585938 L 73.964844 123.34375 L 45.15625 123.34375 Z M 45.15625 118.585938 " fill-opacity="1" fill-rule="nonzero"/><path fill="#aa233b" d="M 94.007812 109.722656 L 113.316406 109.722656 L 113.316406 114.480469 L 94.007812 114.480469 Z M 94.007812 109.722656 " fill-opacity="1" fill-rule="nonzero"/><path fill="#aa233b" d="M 80.953125 118.585938 L 137.769531 118.585938 L 137.769531 123.34375 L 80.953125 123.34375 Z M 80.953125 118.585938 " fill-opacity="1" fill-rule="nonzero"/><path fill="#aa233b" d="M 74.074219 127.449219 L 130.890625 127.449219 L 130.890625 132.203125 L 74.074219 132.203125 Z M 74.074219 127.449219 " fill-opacity="1" fill-rule="nonzero"/><path fill="#aa233b" d="M 26.8125 127.449219 L 40.484375 127.449219 L 40.484375 132.203125 L 26.8125 132.203125 Z M 26.8125 127.449219 " fill-opacity="1" fill-rule="nonzero"/><path fill="#aa233b" d="M 43.796875 127.449219 L 70.757812 127.449219 L 70.757812 132.203125 L 43.796875 132.203125 Z M 43.796875 127.449219 " fill-opacity="1" fill-rule="nonzero"/><path fill="#aa233b" d="M 52.210938 136.3125 L 71.523438 136.3125 L 71.523438 141.066406 L 52.210938 141.066406 Z M 52.210938 136.3125 " fill-opacity="1" fill-rule="nonzero"/><path fill="#aa233b" d="M 76.207031 136.3125 L 114.285156 136.3125 L 114.285156 141.066406 L 76.207031 141.066406 Z M 76.207031 136.3125 " fill-opacity="1" fill-rule="nonzero"/><g clip-path="url(#7a93ab65de)"><path fill="#aa233b" d="M 52.210938 145.175781 L 79.050781 145.175781 L 79.050781 149.929688 L 52.210938 149.929688 Z M 52.210938 145.175781 " fill-opacity="1" fill-rule="nonzero"/></g><g clip-path="url(#000c09e512)"><path fill="#aa233b" d="M 85.5625 145.175781 L 138.492188 145.175781 L 138.492188 149.929688 L 85.5625 149.929688 Z M 85.5625 145.175781 " fill-opacity="1" fill-rule="nonzero"/></g><path fill="#aa233b" d="M 77.378906 15.402344 L 71.546875 15.402344 L 82.269531 8.847656 L 82.269531 12.582031 Z M 82.269531 21.972656 L 71.546875 15.402344 L 77.378906 15.402344 L 82.269531 18.207031 Z M 82.269531 21.972656 " fill-opacity="1" fill-rule="nonzero"/><g clip-path="url(#8067be5a0d)"><path fill="#aa233b" d="M 91.722656 0.0195312 L 102.539062 30.496094 L 99.414062 30.496094 L 88.597656 0.0195312 Z M 91.722656 0.0195312 " fill-opacity="1" fill-rule="nonzero"/></g><path fill="#aa233b" d="M 110.230469 8.847656 L 120.953125 15.402344 L 115.117188 15.402344 L 110.230469 12.582031 Z M 115.117188 15.402344 L 120.953125 15.402344 L 110.230469 21.972656 L 110.230469 18.207031 Z M 115.117188 15.402344 " fill-opacity="1" fill-rule="nonzero"/><path fill="#aa233b" d="M 0 4.160156 L 19.3125 4.160156 L 19.3125 8.917969 L 0 8.917969 Z M 0 4.160156 " fill-opacity="1" fill-rule="nonzero"/><path fill="#aa233b" d="M 23.996094 4.160156 L 62.078125 4.160156 L 62.078125 8.917969 L 23.996094 8.917969 Z M 23.996094 4.160156 " fill-opacity="1" fill-rule="nonzero"/><path fill="#aa233b" d="M 0 13.023438 L 19.3125 13.023438 L 19.3125 17.78125 L 0 17.78125 Z M 0 13.023438 " fill-opacity="1" fill-rule="nonzero"/><path fill="#aa233b" d="M 23.996094 13.023438 L 48.890625 13.023438 L 48.890625 17.78125 L 23.996094 17.78125 Z M 23.996094 13.023438 " fill-opacity="1" fill-rule="nonzero"/><path fill="#aa233b" d="M 0 28.941406 L 19.3125 28.941406 L 19.3125 33.699219 L 0 33.699219 Z M 0 28.941406 " fill-opacity="1" fill-rule="nonzero"/><path fill="#aa233b" d="M 92.988281 52.3125 L 112.300781 52.3125 L 112.300781 57.070312 L 92.988281 57.070312 Z M 92.988281 52.3125 " fill-opacity="1" fill-rule="nonzero"/><path fill="#aa233b" d="M 23.996094 28.941406 L 34.058594 28.941406 L 34.058594 33.699219 L 23.996094 33.699219 Z M 23.996094 28.941406 " fill-opacity="1" fill-rule="nonzero"/><path fill="#aa233b" d="M 12.417969 37.804688 L 24.957031 37.804688 L 24.957031 42.5625 L 12.417969 42.5625 Z M 12.417969 37.804688 " fill-opacity="1" fill-rule="nonzero"/><path fill="#aa233b" d="M 29.640625 37.804688 L 67.71875 37.804688 L 67.71875 42.5625 L 29.640625 42.5625 Z M 29.640625 37.804688 " fill-opacity="1" fill-rule="nonzero"/><path fill="#aa233b" d="M 72.402344 37.804688 L 110.484375 37.804688 L 110.484375 42.5625 L 72.402344 42.5625 Z M 72.402344 37.804688 " fill-opacity="1" fill-rule="nonzero"/><path fill="#aa233b" d="M 38.742188 28.941406 L 76.824219 28.941406 L 76.824219 33.699219 L 38.742188 33.699219 Z M 38.742188 28.941406 " fill-opacity="1" fill-rule="nonzero"/><path fill="#aa233b" d="M 26.8125 52.3125 L 36.464844 52.3125 L 36.464844 57.070312 L 26.8125 57.070312 Z M 26.8125 52.3125 " fill-opacity="1" fill-rule="nonzero"/><path fill="#aa233b" d="M 40.566406 52.3125 L 88.886719 52.3125 L 88.886719 57.070312 L 40.566406 57.070312 Z M 40.566406 52.3125 " fill-opacity="1" fill-rule="nonzero"/><path fill="#aa233b" d="M 69.847656 61.175781 L 118.164062 61.175781 L 118.164062 65.933594 L 69.847656 65.933594 Z M 69.847656 61.175781 " fill-opacity="1" fill-rule="nonzero"/><path fill="#aa233b" d="M 26.8125 61.175781 L 46.121094 61.175781 L 46.121094 65.933594 L 26.8125 65.933594 Z M 26.8125 61.175781 " fill-opacity="1" fill-rule="nonzero"/><path fill="#aa233b" d="M 50.804688 61.175781 L 65.960938 61.175781 L 65.960938 65.933594 L 50.804688 65.933594 Z M 50.804688 61.175781 " fill-opacity="1" fill-rule="nonzero"/><path fill="#aa233b" d="M 26.8125 70.039062 L 40.199219 70.039062 L 40.199219 74.792969 L 26.8125 74.792969 Z M 26.8125 70.039062 " fill-opacity="1" fill-rule="nonzero"/><path fill="#aa233b" d="M 43.445312 70.039062 L 69.847656 70.039062 L 69.847656 74.792969 L 43.445312 74.792969 Z M 43.445312 70.039062 " fill-opacity="1" fill-rule="nonzero"/><path fill="#aa233b" d="M 16.933594 83.136719 L 36.246094 83.136719 L 36.246094 87.890625 L 16.933594 87.890625 Z M 16.933594 83.136719 " fill-opacity="1" fill-rule="nonzero"/><path fill="#aa233b" d="M 73.09375 70.039062 L 92.402344 70.039062 L 92.402344 74.792969 L 73.09375 74.792969 Z M 73.09375 70.039062 " fill-opacity="1" fill-rule="nonzero"/><path fill="#aa233b" d="M 40.929688 83.136719 L 79.007812 83.136719 L 79.007812 87.890625 L 40.929688 87.890625 Z M 40.929688 83.136719 " fill-opacity="1" fill-rule="nonzero"/><path fill="#aa233b" d="M 26.8125 91.996094 L 46.121094 91.996094 L 46.121094 96.753906 L 26.8125 96.753906 Z M 26.8125 91.996094 " fill-opacity="1" fill-rule="nonzero"/><path fill="#aa233b" d="M 50.804688 91.996094 L 88.886719 91.996094 L 88.886719 96.753906 L 50.804688 96.753906 Z M 50.804688 91.996094 " fill-opacity="1" fill-rule="nonzero"/><path fill="#aa233b" d="M 26.8125 100.859375 L 46.121094 100.859375 L 46.121094 105.617188 L 26.8125 105.617188 Z M 26.8125 100.859375 " fill-opacity="1" fill-rule="nonzero"/><path fill="#aa233b" d="M 50.804688 100.859375 L 124.511719 100.859375 L 124.511719 105.617188 L 50.804688 105.617188 Z M 50.804688 100.859375 " fill-opacity="1" fill-rule="nonzero"/><path fill="#aa233b" d="M 69.574219 109.722656 L 88.886719 109.722656 L 88.886719 114.480469 L 69.574219 114.480469 Z M 69.574219 109.722656 " fill-opacity="1" fill-rule="nonzero"/><path fill="#aa233b" d="M 26.8125 109.722656 L 64.890625 109.722656 L 64.890625 114.480469 L 26.8125 114.480469 Z M 26.8125 109.722656 " fill-opacity="1" fill-rule="nonzero"/><path fill="#aa233b" d="M 45.15625 118.585938 L 73.964844 118.585938 L 73.964844 123.34375 L 45.15625 123.34375 Z M 45.15625 118.585938 " fill-opacity="1" fill-rule="nonzero"/><path fill="#aa233b" d="M 94.007812 109.722656 L 113.316406 109.722656 L 113.316406 114.480469 L 94.007812 114.480469 Z M 94.007812 109.722656 " fill-opacity="1" fill-rule="nonzero"/><path fill="#aa233b" d="M 80.953125 118.585938 L 137.769531 118.585938 L 137.769531 123.34375 L 80.953125 123.34375 Z M 80.953125 118.585938 " fill-opacity="1" fill-rule="nonzero"/><path fill="#aa233b" d="M 74.074219 127.449219 L 130.890625 127.449219 L 130.890625 132.203125 L 74.074219 132.203125 Z M 74.074219 127.449219 " fill-opacity="1" fill-rule="nonzero"/><path fill="#aa233b" d="M 26.8125 127.449219 L 40.484375 127.449219 L 40.484375 132.203125 L 26.8125 132.203125 Z M 26.8125 127.449219 " fill-opacity="1" fill-rule="nonzero"/><path fill="#aa233b" d="M 43.796875 127.449219 L 70.757812 127.449219 L 70.757812 132.203125 L 43.796875 132.203125 Z M 43.796875 127.449219 " fill-opacity="1" fill-rule="nonzero"/><path fill="#aa233b" d="M 52.210938 136.3125 L 71.523438 136.3125 L 71.523438 141.066406 L 52.210938 141.066406 Z M 52.210938 136.3125 " fill-opacity="1" fill-rule="nonzero"/><path fill="#aa233b" d="M 76.207031 136.3125 L 114.285156 136.3125 L 114.285156 141.066406 L 76.207031 141.066406 Z M 76.207031 136.3125 " fill-opacity="1" fill-rule="nonzero"/><g clip-path="url(#6e71de8362)"><path fill="#aa233b" d="M 52.210938 145.175781 L 79.050781 145.175781 L 79.050781 149.929688 L 52.210938 149.929688 Z M 52.210938 145.175781 " fill-opacity="1" fill-rule="nonzero"/></g><g clip-path="url(#1ed76959d7)"><path fill="#aa233b" d="M 85.5625 145.175781 L 138.492188 145.175781 L 138.492188 149.929688 L 85.5625 149.929688 Z M 85.5625 145.175781 " fill-opacity="1" fill-rule="nonzero"/></g><path fill="#aa233b" d="M 77.378906 15.402344 L 71.546875 15.402344 L 82.269531 8.847656 L 82.269531 12.582031 Z M 82.269531 21.972656 L 71.546875 15.402344 L 77.378906 15.402344 L 82.269531 18.207031 Z M 82.269531 21.972656 " fill-opacity="1" fill-rule="nonzero"/><g clip-path="url(#bb08856279)"><path fill="#aa233b" d="M 91.722656 0.0195312 L 102.539062 30.496094 L 99.414062 30.496094 L 88.597656 0.0195312 Z M 91.722656 0.0195312 " fill-opacity="1" fill-rule="nonzero"/></g><path fill="#aa233b" d="M 110.230469 8.847656 L 120.953125 15.402344 L 115.117188 15.402344 L 110.230469 12.582031 Z M 115.117188 15.402344 L 120.953125 15.402344 L 110.230469 21.972656 L 110.230469 18.207031 Z M 115.117188 15.402344 " fill-opacity="1" fill-rule="nonzero"/></svg>